#N canvas 298 25 950 599 10;
#X msg 317 61 36 40 43;
#X msg 317 87 36 39 43;
#X msg 317 113 36 40 43 46;
#X msg 317 139 36 39 43 46;
#X msg 317 165 36 40 43 47;
#X msg 317 191 36 39 43 47;
#X msg 317 217 36 41 43 46;
#X msg 317 243 36 40 43 45;
#X msg 317 269 36 39 43 45;
#X msg 317 295 36 40 43 45 50;
#X msg 317 321 36 43;
#X msg 317 347 36 40 43 46 50;
#X text 195 61 MAJOR (C \, C△);
#X text 213 88 MINOR (Cm);
#X text 147 114 DOMINANT SEVENTH (C7);
#X text 159 140 MINOR SEVENTH (Cm7);
#X text 117 166 MAJOR SEVENTH (Cmaj7 \, C△7);
#X text 117 193 MINOR MAJOR SEVENTH (CmM7);
#X text 69 219 SEVENTH \, SUSPENDED FOURTH (C7sus4);
#X text 177 245 MAJOR SIXTH (C6);
#X text 171 271 MINOR SIXTH (Cm6);
#X text 165 297 SIXTH/NINTH (C6/9);
#X text 212 323 FIFTH (C5);
#X text 159 348 DOMINANT NINTH (C9);
#X text 171 374 MINOR NINTH (Cm9);
#X msg 317 399 36 40 43 47 50;
#X text 160 400 MAJOR NINTH (Cmaj9);
#X msg 317 425 36 40 43 47 50;
#X text 82 426 NINTH \, SUSPENDED FOURTH (C9sus4);
#X msg 317 451 36 40 43 46 50 53;
#X text 190 452 ELEVENTH (C11);
#X msg 706 61 36 39 43 46 50 53;
#X text 543 62 MINOR ELEVENTH (C11);
#X msg 706 87 36 40 43 46 50 53 57;
#X text 567 88 THIRTEENTH (C13);
#X msg 706 113 36 39 43 46 50 53 57;
#X text 525 114 MINOR THIRTEENTH (Cm13);
#X msg 706 139 36 40 43 47 50 57;
#X text 514 140 MAJOR THIRTEENTH (Cmaj13);
#X msg 706 165 36 40 43 50;
#X text 562 166 ADD NINTH (Cadd9);
#X msg 706 191 36 38 40 43;
#X text 557 192 ADD SECOND (Cadd2);
#X msg 706 217 36 40 42 46;
#X text 527 218 SEVEN MINUS FIVE (C7-5);
#X msg 706 243 36 40 44 46;
#X text 533 244 SEVEN PLUS FIVE (C7+5);
#X msg 706 269 36 41 43;
#X text 522 270 SUSPENDED FOURTH (Csus4);
#X msg 706 295 36 38 43;
#X text 522 296 SUSPENDED SECOND (Csus2);
#X msg 706 321 36 39 42;
#X text 539 322 DIMINISHED (Cdim \, C°);
#X msg 706 347 36 39 42 45;
#X text 479 348 DIMINISHED SEVENTH (Cdim7 \, C°7);
#X msg 706 373 36 39 42 46;
#X text 455 374 MINOR SEVENTH FLAT FIVE (Cm7b5 \, Cø);
#X msg 706 399 36 40 44;
#X text 545 400 AUGMENTED (Caug \, C+);
#X msg 706 425 36 40 44 46;
#X text 515 426 AUGMENTED SEVENTH (Caug7);
#X text 430 26 31 C CHORDS;
#N canvas 0 50 601 658 chordplayer 0;
#X msg 450 185 36 40 43 46 50 53 57;
#X msg 450 211 36 39 43 46 50 53 57;
#X obj 71 121 sel 0 1 2 3 4 5 6 7 8 9 10 11 12 13 14 15 16 17 18 19
20 21 22 23 24 25 26 27 28 29 30;
#X obj 225 564 unpack 0 0 0 0 0 0 0;
#X obj 71 21 bng 15 250 50 0 empty chord1 empty 17 7 0 10 -262144 -1
-1;
#X obj 101 21 bng 15 250 50 0 empty chord2 empty 17 7 0 10 -262144
-1 -1;
#X obj 131 21 bng 15 250 50 0 empty chord3 empty 17 7 0 10 -262144
-1 -1;
#X obj 161 21 bng 15 250 50 0 empty chord4 empty 17 7 0 10 -262144
-1 -1;
#X obj 191 21 bng 15 250 50 0 empty chord5 empty 17 7 0 10 -262144
-1 -1;
#X obj 221 21 bng 15 250 50 0 empty chord6 empty 17 7 0 10 -262144
-1 -1;
#X obj 251 21 bng 15 250 50 0 empty chord7 empty 17 7 0 10 -262144
-1 -1;
#X obj 281 21 bng 15 250 50 0 empty chord8 empty 17 7 0 10 -262144
-1 -1;
#X obj 311 21 bng 15 250 50 0 empty chord9 empty 17 7 0 10 -262144
-1 -1;
#X obj 341 21 bng 15 250 50 0 empty chord10 empty 17 7 0 10 -262144
-1 -1;
#X obj 371 21 bng 15 250 50 0 empty chord11 empty 17 7 0 10 -262144
-1 -1;
#X obj 401 21 bng 15 250 50 0 empty chord12 empty 17 7 0 10 -262144
-1 -1;
#X obj 431 21 bng 15 250 50 0 empty chord13 empty 17 7 0 10 -262144
-1 -1;
#X obj 461 21 bng 15 250 50 0 empty chord14 empty 17 7 0 10 -262144
-1 -1;
#X obj 491 21 bng 15 250 50 0 empty chord15 empty 17 7 0 10 -262144
-1 -1;
#X obj 521 21 bng 15 250 50 0 empty chord16 empty 17 7 0 10 -262144
-1 -1;
#X obj 71 71 bng 15 250 50 0 empty chord17 empty 17 7 0 10 -262144
-1 -1;
#X obj 101 71 bng 15 250 50 0 empty chord18 empty 17 7 0 10 -262144
-1 -1;
#X obj 131 71 bng 15 250 50 0 empty chord19 empty 17 7 0 10 -262144
-1 -1;
#X obj 161 71 bng 15 250 50 0 empty chord20 empty 17 7 0 10 -262144
-1 -1;
#X obj 191 71 bng 15 250 50 0 empty chord21 empty 17 7 0 10 -262144
-1 -1;
#X obj 221 71 bng 15 250 50 0 empty chord22 empty 17 7 0 10 -262144
-1 -1;
#X obj 251 71 bng 15 250 50 0 empty chord23 empty 17 7 0 10 -262144
-1 -1;
#X obj 281 71 bng 15 250 50 0 empty chord24 empty 17 7 0 10 -262144
-1 -1;
#X obj 311 71 bng 15 250 50 0 empty chord25 empty 17 7 0 10 -262144
-1 -1;
#X obj 341 71 bng 15 250 50 0 empty chord26 empty 17 7 0 10 -262144
-1 -1;
#X obj 371 71 bng 15 250 50 0 empty chord27 empty 17 7 0 10 -262144
-1 -1;
#X obj 401 71 bng 15 250 50 0 empty chord28 empty 17 7 0 10 -262144
-1 -1;
#X obj 431 71 bng 15 250 50 0 empty chord29 empty 17 7 0 10 -262144
-1 -1;
#X obj 461 71 bng 15 250 50 0 empty chord30 empty 17 7 0 10 -262144
-1 -1;
#X obj 491 71 bng 15 250 50 0 empty chord31 empty 17 7 0 10 -262144
-1 -1;
#X floatatom 111 590 5 0 0 0 - - -;
#X floatatom 167 590 5 0 0 0 - - -;
#X floatatom 223 590 5 0 0 0 - - -;
#X floatatom 281 590 5 0 0 0 - - -;
#X floatatom 337 590 5 0 0 0 - - -;
#X floatatom 393 590 5 0 0 0 - - -;
#X floatatom 449 590 5 0 0 0 - - -;
#X msg 21 159 36 40 43 0 0 0 0;
#X msg 21 185 36 39 43 0 0 0 0;
#X msg 21 211 36 40 43 46 0 0 0;
#X msg 21 237 36 39 43 46 0 0 0;
#X msg 21 263 36 40 43 47 0 0 0;
#X msg 21 289 36 39 43 47 0 0 0;
#X msg 21 315 36 41 43 46 0 0 0;
#X msg 21 341 36 40 43 45 0 0 0;
#X msg 21 367 36 39 43 45 0 0 0;
#X msg 21 393 36 40 43 45 50 0 0;
#X msg 21 419 36 43 0 0 0 0 0;
#X msg 21 445 36 40 43 46 50 0 0;
#X msg 21 497 36 40 43 47 50 0 0;
#X msg 21 523 36 40 43 47 50 0 0;
#X msg 21 549 36 40 43 46 50 53 0;
#X msg 450 159 36 39 43 46 50 53 0;
#X msg 450 237 36 40 43 47 50 57 0;
#X msg 450 263 36 40 43 50 0 0 0;
#X msg 450 289 36 38 40 43 0 0 0;
#X msg 450 315 36 40 42 46 0 0 0;
#X msg 450 341 36 40 44 46 0 0 0;
#X msg 450 367 36 41 43 0 0 0 0;
#X msg 450 393 36 38 43 0 0 0 0;
#X msg 450 419 36 39 42 0 0 0 0;
#X msg 450 445 36 39 42 45 0 0 0;
#X msg 450 471 36 39 42 46 0 0 0;
#X msg 450 497 36 40 44 0 0 0 0;
#X msg 450 523 36 40 44 46 0 0 0;
#N canvas 634 112 594 243 noteout 0;
#X obj 21 21 inlet note1;
#X obj 101 21 inlet note2;
#X obj 181 21 inlet note3;
#X obj 261 21 inlet note4;
#X obj 341 21 inlet note5;
#X obj 421 21 inlet note6;
#X obj 501 21 inlet note7;
#X obj 233 204 noteout 1;
#X floatatom 332 153 5 0 0 0 - duration -;
#X obj 233 178 makenote 127 1000;
#X floatatom 282 153 5 0 0 0 - velocity -;
#X obj 274 127 moses 1;
#X floatatom 274 47 5 0 0 0 - - -;
#X obj 104 127 moses 1;
#X floatatom 104 47 5 0 0 0 - - -;
#X obj 160 127 moses 1;
#X floatatom 160 47 5 0 0 0 - - -;
#X obj 216 127 moses 1;
#X floatatom 216 47 5 0 0 0 - - -;
#X obj 330 127 moses 1;
#X floatatom 330 47 5 0 0 0 - - -;
#X obj 386 127 moses 1;
#X floatatom 386 47 5 0 0 0 - - -;
#X obj 442 127 moses 1;
#X floatatom 442 47 5 0 0 0 - - -;
#X obj 178 72 +;
#X obj 210 72 +;
#X obj 242 72 +;
#X obj 274 72 +;
#X obj 306 72 +;
#X obj 338 72 +;
#X obj 370 72 +;
#X floatatom 402 72 5 0 24 0 - transpose -;
#X floatatom 274 98 5 0 0 0 - - -;
#X floatatom 104 98 5 0 0 0 - - -;
#X floatatom 160 98 5 0 0 0 - - -;
#X floatatom 216 98 5 0 0 0 - - -;
#X floatatom 330 98 5 0 0 0 - - -;
#X floatatom 386 98 5 0 0 0 - - -;
#X floatatom 442 98 5 0 0 0 - - -;
#X connect 0 0 14 0;
#X connect 1 0 16 0;
#X connect 2 0 18 0;
#X connect 3 0 12 0;
#X connect 4 0 20 0;
#X connect 5 0 22 0;
#X connect 6 0 24 0;
#X connect 8 0 9 2;
#X connect 9 0 7 0;
#X connect 9 1 7 1;
#X connect 10 0 9 1;
#X connect 11 1 9 0;
#X connect 12 0 28 0;
#X connect 13 1 9 0;
#X connect 14 0 25 0;
#X connect 15 1 9 0;
#X connect 16 0 26 0;
#X connect 17 1 9 0;
#X connect 18 0 27 0;
#X connect 19 1 9 0;
#X connect 20 0 29 0;
#X connect 21 1 9 0;
#X connect 22 0 30 0;
#X connect 23 1 9 0;
#X connect 24 0 31 0;
#X connect 25 0 34 0;
#X connect 26 0 35 0;
#X connect 27 0 36 0;
#X connect 28 0 33 0;
#X connect 29 0 37 0;
#X connect 30 0 38 0;
#X connect 31 0 39 0;
#X connect 32 0 31 1;
#X connect 32 0 30 1;
#X connect 32 0 29 1;
#X connect 32 0 28 1;
#X connect 32 0 27 1;
#X connect 32 0 26 1;
#X connect 32 0 25 1;
#X connect 33 0 11 0;
#X connect 34 0 13 0;
#X connect 35 0 15 0;
#X connect 36 0 17 0;
#X connect 37 0 19 0;
#X connect 38 0 21 0;
#X connect 39 0 23 0;
#X restore 253 614 pd noteout;
#X msg 71 45 0;
#X msg 101 45 1;
#X msg 131 45 2;
#X msg 161 45 3;
#X msg 191 45 4;
#X msg 221 45 5;
#X msg 251 45 6;
#X msg 281 45 7;
#X msg 311 45 8;
#X msg 341 45 9;
#X msg 371 45 10;
#X msg 401 45 11;
#X msg 431 45 12;
#X msg 461 45 13;
#X msg 491 45 14;
#X msg 521 45 15;
#X msg 71 95 16;
#X msg 101 95 17;
#X msg 131 95 18;
#X msg 161 95 19;
#X msg 191 95 20;
#X msg 221 95 21;
#X msg 251 95 22;
#X msg 281 95 23;
#X msg 311 95 24;
#X msg 341 95 25;
#X msg 371 95 26;
#X msg 401 95 27;
#X msg 431 95 28;
#X msg 461 95 29;
#X msg 491 95 30;
#X msg 21 471 36 39 43 46 50 0 0;
#X connect 0 0 3 0;
#X connect 1 0 3 0;
#X connect 2 0 42 0;
#X connect 2 1 43 0;
#X connect 2 2 44 0;
#X connect 2 3 45 0;
#X connect 2 4 46 0;
#X connect 2 5 47 0;
#X connect 2 6 48 0;
#X connect 2 7 49 0;
#X connect 2 8 50 0;
#X connect 2 9 51 0;
#X connect 2 10 52 0;
#X connect 2 11 53 0;
#X connect 2 12 102 0;
#X connect 2 13 54 0;
#X connect 2 14 55 0;
#X connect 2 15 56 0;
#X connect 2 16 57 0;
#X connect 2 17 0 0;
#X connect 2 18 1 0;
#X connect 2 19 58 0;
#X connect 2 20 59 0;
#X connect 2 21 60 0;
#X connect 2 22 61 0;
#X connect 2 23 62 0;
#X connect 2 24 63 0;
#X connect 2 25 64 0;
#X connect 2 26 65 0;
#X connect 2 27 66 0;
#X connect 2 28 67 0;
#X connect 2 29 68 0;
#X connect 2 30 69 0;
#X connect 3 0 35 0;
#X connect 3 1 36 0;
#X connect 3 2 37 0;
#X connect 3 3 38 0;
#X connect 3 4 39 0;
#X connect 3 5 40 0;
#X connect 3 6 41 0;
#X connect 4 0 71 0;
#X connect 5 0 72 0;
#X connect 6 0 73 0;
#X connect 7 0 74 0;
#X connect 8 0 75 0;
#X connect 9 0 76 0;
#X connect 10 0 77 0;
#X connect 11 0 78 0;
#X connect 12 0 79 0;
#X connect 13 0 80 0;
#X connect 14 0 81 0;
#X connect 15 0 82 0;
#X connect 16 0 83 0;
#X connect 17 0 84 0;
#X connect 18 0 85 0;
#X connect 19 0 86 0;
#X connect 20 0 87 0;
#X connect 21 0 88 0;
#X connect 22 0 89 0;
#X connect 23 0 90 0;
#X connect 24 0 91 0;
#X connect 25 0 92 0;
#X connect 26 0 93 0;
#X connect 27 0 94 0;
#X connect 28 0 95 0;
#X connect 29 0 96 0;
#X connect 30 0 97 0;
#X connect 31 0 98 0;
#X connect 32 0 99 0;
#X connect 33 0 100 0;
#X connect 34 0 101 0;
#X connect 35 0 70 0;
#X connect 36 0 70 1;
#X connect 37 0 70 2;
#X connect 38 0 70 3;
#X connect 39 0 70 4;
#X connect 40 0 70 5;
#X connect 41 0 70 6;
#X connect 42 0 3 0;
#X connect 43 0 3 0;
#X connect 44 0 3 0;
#X connect 45 0 3 0;
#X connect 46 0 3 0;
#X connect 47 0 3 0;
#X connect 48 0 3 0;
#X connect 49 0 3 0;
#X connect 50 0 3 0;
#X connect 51 0 3 0;
#X connect 52 0 3 0;
#X connect 53 0 3 0;
#X connect 54 0 3 0;
#X connect 55 0 3 0;
#X connect 56 0 3 0;
#X connect 57 0 3 0;
#X connect 58 0 3 0;
#X connect 59 0 3 0;
#X connect 60 0 3 0;
#X connect 61 0 3 0;
#X connect 62 0 3 0;
#X connect 63 0 3 0;
#X connect 64 0 3 0;
#X connect 65 0 3 0;
#X connect 66 0 3 0;
#X connect 67 0 3 0;
#X connect 68 0 3 0;
#X connect 69 0 3 0;
#X connect 71 0 2 0;
#X connect 72 0 2 0;
#X connect 73 0 2 0;
#X connect 74 0 2 0;
#X connect 75 0 2 0;
#X connect 76 0 2 0;
#X connect 77 0 2 0;
#X connect 78 0 2 0;
#X connect 79 0 2 0;
#X connect 80 0 2 0;
#X connect 81 0 2 0;
#X connect 82 0 2 0;
#X connect 83 0 2 0;
#X connect 84 0 2 0;
#X connect 85 0 2 0;
#X connect 86 0 2 0;
#X connect 87 0 2 0;
#X connect 88 0 2 0;
#X connect 89 0 2 0;
#X connect 90 0 2 0;
#X connect 91 0 2 0;
#X connect 92 0 2 0;
#X connect 93 0 2 0;
#X connect 94 0 2 0;
#X connect 95 0 2 0;
#X connect 96 0 2 0;
#X connect 97 0 2 0;
#X connect 98 0 2 0;
#X connect 99 0 2 0;
#X connect 100 0 2 0;
#X connect 101 0 2 0;
#X connect 102 0 3 0;
#X restore 706 451 pd chordplayer;
#X obj 291 62 bng 15 250 50 0 chord1 empty empty 17 7 0 10 -262144
-1 -1;
#X obj 291 87 bng 15 250 50 0 chord2 empty empty 17 7 0 10 -262144
-1 -1;
#X obj 291 114 bng 15 250 50 0 chord3 empty empty 17 7 0 10 -262144
-1 -1;
#X obj 291 139 bng 15 250 50 0 chord4 empty empty 17 7 0 10 -262144
-1 -1;
#X obj 291 165 bng 15 250 50 0 chord5 empty empty 17 7 0 10 -262144
-1 -1;
#X obj 291 190 bng 15 250 50 0 chord6 empty empty 17 7 0 10 -262144
-1 -1;
#X obj 291 217 bng 15 250 50 0 chord7 empty empty 17 7 0 10 -262144
-1 -1;
#X obj 291 242 bng 15 250 50 0 chord8 empty empty 17 7 0 10 -262144
-1 -1;
#X obj 291 270 bng 15 250 50 0 chord9 empty empty 17 7 0 10 -262144
-1 -1;
#X obj 291 295 bng 15 250 50 0 chord10 empty empty 17 7 0 10 -262144
-1 -1;
#X obj 291 322 bng 15 250 50 0 chord11 empty empty 17 7 0 10 -262144
-1 -1;
#X obj 291 347 bng 15 250 50 0 chord12 empty empty 17 7 0 10 -262144
-1 -1;
#X obj 291 373 bng 15 250 50 0 chord13 empty empty 17 7 0 10 -262144
-1 -1;
#X obj 291 399 bng 15 250 50 0 chord14 empty empty 17 7 0 10 -262144
-1 -1;
#X obj 291 426 bng 15 250 50 0 chord15 empty empty 17 7 0 10 -262144
-1 -1;
#X obj 291 451 bng 15 250 50 0 chord16 empty empty 17 7 0 10 -262144
-1 -1;
#X obj 681 62 bng 15 250 50 0 chord17 empty empty 17 7 0 10 -262144
-1 -1;
#X obj 681 87 bng 15 250 50 0 chord18 empty empty 17 7 0 10 -262144
-1 -1;
#X obj 681 114 bng 15 250 50 0 chord19 empty empty 17 7 0 10 -262144
-1 -1;
#X obj 681 139 bng 15 250 50 0 chord20 empty empty 17 7 0 10 -262144
-1 -1;
#X obj 681 165 bng 15 250 50 0 chord21 empty empty 17 7 0 10 -262144
-1 -1;
#X obj 681 190 bng 15 250 50 0 chord22 empty empty 17 7 0 10 -262144
-1 -1;
#X obj 681 217 bng 15 250 50 0 chord23 empty empty 17 7 0 10 -262144
-1 -1;
#X obj 681 242 bng 15 250 50 0 chord24 empty empty 17 7 0 10 -262144
-1 -1;
#X obj 681 270 bng 15 250 50 0 chord25 empty empty 17 7 0 10 -262144
-1 -1;
#X obj 681 295 bng 15 250 50 0 chord26 empty empty 17 7 0 10 -262144
-1 -1;
#X obj 681 322 bng 15 250 50 0 chord27 empty empty 17 7 0 10 -262144
-1 -1;
#X obj 681 347 bng 15 250 50 0 chord28 empty empty 17 7 0 10 -262144
-1 -1;
#X obj 681 373 bng 15 250 50 0 chord29 empty empty 17 7 0 10 -262144
-1 -1;
#X obj 681 399 bng 15 250 50 0 chord30 empty empty 17 7 0 10 -262144
-1 -1;
#X obj 681 426 bng 15 250 50 0 chord31 empty empty 17 7 0 10 -262144
-1 -1;
#X msg 317 373 36 39 43 46 50;
#X floatatom 486 504 5 0 24 2 TRANSPOSE - transpose;
#X text 547 480 0=C :: 1=C#/Db :: 2=D :: 3=D#/Eb :: 4=E :: 5=F :: 6=F#/Gb
:: 7=G :: 8=G#/Ab :: 9=A :: 10=A#/Bb :: 11=B :: 12=C (1 oct);
#X text 547 504 13=C#/Db :: 14=D :: 15=D#/Eb :: 16=E :: 17=F :: 18=F#/Gb
:: 19=G :: 20=G#/Ab :: 21=A :: 22=A#/Bb :: 23=B :: 24=C (2 oct);
#X floatatom 66 504 5 0 24 2 VELOCITY - velocity;
#X floatatom 286 504 5 0 10000 2 DURATION - duration;
#X text 110 502 DEFAULT VALUE - 127 (MAX);
#X text 330 502 DEFAULT VALUE - 1000ms;
#X text 549 538 www.formeryugoslavia.org;
#X text 549 549 "take this \, brother. may it serve you well.";
