#N canvas 805 129 602 497 10;
#X floatatom 73 16 5 0 0 0 - - -, f 5;
#X obj 16 44 t f f b;
#X obj 16 72 mtof;
#X floatatom 80 72 8 0 0 0 - - -, f 8;
#X obj 16 100 osc~;
#X obj 17 298 *~;
#X obj 35 263 phasor~;
#X obj 164 83 vline~;
#X obj 16 128 *~;
#X msg 164 61 1 500 \, 0 1000 2000 \, 0 1000 2000;
#X obj 59 462 tabwrite~ array01;
#N canvas 0 50 450 250 (subpatch) 0;
#X array array01 100 float 5;
#A 0 0 0 0 0 0 0 0 0 0 0 0 0 0 0 0 0 0 0 0 0 0 0 0 0 0 0 0 0 0 0 0
0 0 0 0 0 0 0 0 0 0 0 0 0 0 0 0 0 0 0 0 0 0 0 0 0 0 0 0 0 0 0 0 0 0
0 0 0 0 0 0 0 0 0 0 0 0 0 0 0 0 0 0 0 0 0 0 0 0 0 0 0 0 0 0 0 0 0 0
0;
#X coords 0 1 100 -1 384 264 1;
#X restore 193 215 graph;
#X floatatom 35 238 5 0 0 0 - - -, f 5;
#X obj 38 212 hsl 128 15 110 880 0 0 empty empty empty -2 -8 0 10 -262144
-1 -1 8700 1;
#X msg 35 184 440;
#X obj 35 156 loadbang;
#X obj 16 16 key;
#X obj 106 156 ctlin 70;
#X text 169 154 cc from ev-xs knob 1;
#X obj 106 181 * 6.92913;
#X text 120 133 upper limit / 127;
#X text 119 122 conversion factor for cc to whatever;
#X text 178 180 880 / 127;
#X obj 17 462 dac~;
#X obj 59 408 tgl 15 0 empty empty empty 17 7 0 10 -262144 -1 -1 1
1;
#X obj 17 408 *~;
#X obj 38 382 hsl 128 15 0 1 0 0 empty empty volume -2 -8 0 10 -262144
-1 -1 5400 1;
#X obj 35 326 ctlin 71;
#X obj 35 348 / 127;
#X text 141 22 amplitude modulation synth;
#X obj 422 16 loadbang;
#X msg 422 44 \; pd dsp 1;
#X obj 106 326 loadbang;
#X msg 106 348 1;
#X obj 59 434 metro 8;
#X connect 1 0 2 0;
#X connect 1 2 9 0;
#X connect 2 0 3 0;
#X connect 2 0 4 0;
#X connect 4 0 8 0;
#X connect 5 0 25 0;
#X connect 6 0 5 1;
#X connect 7 0 8 1;
#X connect 8 0 5 0;
#X connect 9 0 7 0;
#X connect 12 0 6 0;
#X connect 13 0 12 0;
#X connect 14 0 13 0;
#X connect 15 0 14 0;
#X connect 16 0 0 0;
#X connect 16 0 1 0;
#X connect 17 0 19 0;
#X connect 19 0 13 0;
#X connect 24 0 34 0;
#X connect 25 0 23 0;
#X connect 25 0 23 1;
#X connect 25 0 10 0;
#X connect 26 0 25 1;
#X connect 27 0 28 0;
#X connect 28 0 26 0;
#X connect 30 0 31 0;
#X connect 32 0 33 0;
#X connect 33 0 24 0;
#X connect 34 0 10 0;
