#N canvas 116 125 832 571 10;
#X floatatom 71 27 5 0 0 0 - - -, f 5;
#X obj 14 55 t f f b;
#X obj 14 83 mtof;
#X floatatom 78 83 8 0 0 0 - - -, f 8;
#X obj 14 111 osc~;
#X obj 15 329 *~;
#X obj 33 301 phasor~;
#X obj 162 94 vline~;
#X obj 14 139 *~;
#X obj 15 530 dac~;
#X msg 162 72 1 500 \, 0 1000 2000 \, 0 1000 2000;
#X obj 127 385 *~;
#X floatatom 163 357 5 0 0 0 - - -, f 5;
#X obj 166 333 hsl 128 15 0.4 1.1 0 0 empty empty empty -2 -8 0 10
-262144 -1 -1 1143 1;
#X obj 51 441 tgl 15 0 empty empty empty 17 7 0 10 -262144 -1 -1 1
1;
#X obj 51 495 tabwrite~ array01;
#N canvas 0 50 450 250 (subpatch) 0;
#X array array01 100 float 5;
#A 0 0 0 0 0 0 0 0 0 0 0 0 0 0 0 0 0 0 0 0 0 0 0 0 0 0 0 0 0 0 0 0
0 0 0 0 0 0 0 0 0 0 0 0 0 0 0 0 0 0 0 0 0 0 0 0 0 0 0 0 0 0 0 0 0 0
0 0 0 0 0 0 0 0 0 0 0 0 0 0 0 0 0 0 0 0 0 0 0 0 0 0 0 0 0 0 0 0 0 0
0;
#X coords 0 1 100 -1 401 326 1;
#X restore 410 79 graph;
#X obj 51 467 metro 16;
#X text 144 21 sweeping amplitude modulation snippet needs cyclone
library for sweep counter;
#X obj 15 477 *~;
#X text 158 378 delay w/adjustable feedback;
#X obj 163 277 loadbang;
#X msg 163 305 0.6;
#X floatatom 33 276 5 0 0 0 - - -, f 5;
#X obj 36 250 hsl 128 15 110 880 0 0 empty empty empty -2 -8 0 10 -262144
-1 -1 0 1;
#X msg 33 222 440;
#X obj 33 194 loadbang;
#X obj 14 27 key;
#X obj 104 194 ctlin 70;
#X text 167 192 cc from ev-xs knob 1;
#X obj 104 219 * 6.92913;
#X obj 234 277 ctlin 71;
#X obj 234 304 * 0.00944882;
#X text 118 144 upper limit / 127;
#X text 117 133 conversion factor for cc to whatever;
#X text 176 218 880 / 127;
#X text 326 304 1.1 / 127;
#X obj 16 413 delread~ delay 75;
#X obj 14 357 delwrite~ delay 1000;
#X obj 163 396 loadbang;
#X msg 163 424 1;
#X connect 1 0 2 0;
#X connect 1 2 10 0;
#X connect 2 0 3 0;
#X connect 2 0 4 0;
#X connect 4 0 8 0;
#X connect 5 0 38 0;
#X connect 6 0 5 1;
#X connect 7 0 8 1;
#X connect 8 0 5 0;
#X connect 10 0 7 0;
#X connect 11 0 38 0;
#X connect 12 0 11 1;
#X connect 13 0 12 0;
#X connect 14 0 17 0;
#X connect 17 0 15 0;
#X connect 19 0 9 0;
#X connect 19 0 9 1;
#X connect 19 0 15 0;
#X connect 21 0 22 0;
#X connect 22 0 13 0;
#X connect 23 0 6 0;
#X connect 24 0 23 0;
#X connect 25 0 24 0;
#X connect 26 0 25 0;
#X connect 27 0 0 0;
#X connect 27 0 1 0;
#X connect 28 0 30 0;
#X connect 30 0 24 0;
#X connect 31 0 32 0;
#X connect 32 0 13 0;
#X connect 37 0 11 0;
#X connect 37 0 19 0;
#X connect 39 0 40 0;
#X connect 40 0 14 0;
