#N canvas 0 50 450 300 10;
#X text 52 33 g@@@@@@@@@@@@@@@@@@@@@@@@b_;
#X text 46 48 0@@@@@@@@@@@@@@@@@@@@@@@@@@@k;
#X text 46 62 0@@@@@@@@@@@@@^^#@@@@@@@@@@@@L;
#X text 52 75 #@@@@@@@@@@";
#X text 141 75 J@@@@@@@@@@@@@;
#X text 135 88 J@@@@@@@@@@@@@@b;
#X text 130 101 d@@@@@##@@@@@@@@@L;
#X text 125 114 d@@@@#;
#X text 178 114 ^@@@@@@@@Q;
#X text 120 127 d@@@@@@r;
#X text 190 127 #@@@@@@@[;
#X text 114 140 d@@@@@@@[;
#X text 110 153 0@@@@@@@P;
#X text 196 140 #@@@@@@@r;
#X text 202 153 0@@@@@@%;
#X text 104 166 0@@@@P;
#X text 209 166 0@@@@@@L;
#X text 98 179 0@@@@^;
#X text 221 179 0@@@@@@;
#X text 92 192 #@@@F;
#X text 87 205 1@@@^;
#X text 227 192 0@@@@@b;
#X text 233 205 `@@@@@L;
#X text 239 218 ^@@@@@;
#X text 245 231 ^@@@@[;
#X text 258 244 ##P;
