#N canvas 1246 77 420 454 10;
#X obj 43 24 bng 30 250 50 0 empty empty empty 17 7 0 10 -4034 -1 -1
;
#X text 14 6 open any file!;
#X obj 43 59 openpanel;
#X msg 64 81 set symbol \$1;
#X obj 43 152 soundfiler;
#X floatatom 43 174 10 0 0 0 - - -, f 10;
#X obj 29 193 hsl 150 15 0.02 2 1 1 empty \$0-speed playback_speed_(0.02_-_2)
0 7 0 10 -262144 -1 -1 5300 1;
#X obj 26 232 phasor~;
#X obj 26 254 *~;
#X floatatom 26 213 5 0 0 0 - - -, f 5;
#X obj 26 276 tabread4~ left;
#X obj 137 276 tabread4~ right;
#N canvas 0 50 450 250 (subpatch) 0;
#X array left 96307 float 4;
#X coords 0 1 96306 -1 100 69 1;
#X restore 191 180 graph;
#N canvas 0 50 450 250 (subpatch) 0;
#X array right 96307 float 4;
#X coords 0 1 96306 -1 100 69 1;
#X restore 296 180 graph;
#X text 79 30 DATA PLAYER MODULE;
#X obj 26 298 outlet~;
#X msg 64 102 symbol filename_goes_here;
#X obj 137 297 outlet~;
#X msg 43 130 read -maxsize 1e+008 -raw 0 2 2 l \$1 left right;
#X connect 0 0 2 0;
#X connect 2 0 3 0;
#X connect 2 0 18 0;
#X connect 3 0 16 0;
#X connect 4 0 5 0;
#X connect 5 0 8 1;
#X connect 6 0 9 0;
#X connect 7 0 8 0;
#X connect 8 0 10 0;
#X connect 8 0 11 0;
#X connect 9 0 7 0;
#X connect 10 0 15 0;
#X connect 11 0 17 0;
#X connect 16 0 18 0;
#X connect 18 0 4 0;
