#N canvas 138 143 802 262 10;
#X obj 83 61 hradio 30 1 0 16 empty \$0-hradio1 empty 0 -8 0 10 -4160
-262144 -1 13;
#X obj 83 91 tgl 30 0 \$0-step1-1 step1-1-input empty 17 7 0 10 -228856
-1 -1 1 1;
#X obj 113 91 tgl 30 0 \$0-step1-2 step1-2-input empty 17 7 0 10 -262144
-1 -1 0 1;
#X obj 143 91 tgl 30 0 \$0-step1-3 step1-3-input empty 17 7 0 10 -262144
-1 -1 1 1;
#X obj 173 91 tgl 30 0 \$0-step1-4 step1-4-input empty 17 7 0 10 -262144
-1 -1 0 1;
#X obj 203 91 tgl 30 0 \$0-step1-5 step1-5-input empty 17 7 0 10 -228856
-1 -1 0 1;
#X obj 233 91 tgl 30 0 \$0-step1-6 step1-6-input empty 17 7 0 10 -262144
-1 -1 1 1;
#X obj 263 91 tgl 30 0 \$0-step1-7 step1-7-input empty 17 7 0 10 -262144
-1 -1 0 1;
#X obj 293 91 tgl 30 0 \$0-step1-8 step1-8-input empty 17 7 0 10 -262144
-1 -1 0 1;
#X obj 323 91 tgl 30 0 \$0-step1-9 step1-9-input empty 17 7 0 10 -228856
-1 -1 1 1;
#X obj 353 91 tgl 30 0 \$0-step1-10 step1-10-input empty 17 7 0 10
-262144 -1 -1 0 1;
#X obj 383 91 tgl 30 0 \$0-step1-11 step1-11-input empty 17 7 0 10
-262144 -1 -1 0 1;
#X obj 413 91 tgl 30 0 \$0-step1-12 step1-12-input empty 17 7 0 10
-262144 -1 -1 0 1;
#X obj 443 91 tgl 30 0 \$0-step1-13 step1-13-input empty 17 7 0 10
-228856 -1 -1 0 1;
#X obj 473 91 tgl 30 0 \$0-step1-14 step1-14-input empty 17 7 0 10
-262144 -1 -1 0 1;
#X obj 503 91 tgl 30 0 \$0-step1-15 step1-15-input empty 17 7 0 10
-262144 -1 -1 0 1;
#X obj 533 91 tgl 30 0 \$0-step1-16 step1-16-input empty 17 7 0 10
-262144 -1 -1 1 1;
#N canvas -9 7 1366 697 guts 0;
#X floatatom 22 22 5 0 0 0 - - -;
#X obj 22 50 sel 0 1 2 3 4 5 6 7 8 9 10 11 12 13 14 15;
#X obj 22 103 spigot;
#X obj 22 155 bng 15 250 50 0 empty empty empty 17 7 0 10 -262144 -1
-1;
#X obj 22 129 t b;
#X obj 55 76 r \$0-step1-1;
#X obj 52 129 spigot;
#X obj 52 181 bng 15 250 50 0 empty empty empty 17 7 0 10 -262144 -1
-1;
#X obj 52 155 t b;
#X obj 85 103 r \$0-step1-2;
#X obj 82 155 spigot;
#X obj 82 207 bng 15 250 50 0 empty empty empty 17 7 0 10 -262144 -1
-1;
#X obj 82 181 t b;
#X obj 115 129 r \$0-step1-3;
#X obj 112 182 spigot;
#X obj 112 234 bng 15 250 50 0 empty empty empty 17 7 0 10 -262144
-1 -1;
#X obj 112 208 t b;
#X obj 145 155 r \$0-step1-4;
#X obj 142 209 spigot;
#X obj 142 261 bng 15 250 50 0 empty empty empty 17 7 0 10 -262144
-1 -1;
#X obj 142 235 t b;
#X obj 175 182 r \$0-step1-5;
#X obj 172 236 spigot;
#X obj 172 288 bng 15 250 50 0 empty empty empty 17 7 0 10 -262144
-1 -1;
#X obj 172 262 t b;
#X obj 202 262 spigot;
#X obj 202 314 bng 15 250 50 0 empty empty empty 17 7 0 10 -262144
-1 -1;
#X obj 202 288 t b;
#X obj 232 288 spigot;
#X obj 232 340 bng 15 250 50 0 empty empty empty 17 7 0 10 -262144
-1 -1;
#X obj 232 314 t b;
#X obj 22 283 spigot;
#X obj 22 335 bng 15 250 50 0 empty empty empty 17 7 0 10 -262144 -1
-1;
#X obj 22 309 t b;
#X obj 52 309 spigot;
#X obj 52 361 bng 15 250 50 0 empty empty empty 17 7 0 10 -262144 -1
-1;
#X obj 52 335 t b;
#X obj 82 335 spigot;
#X obj 82 387 bng 15 250 50 0 empty empty empty 17 7 0 10 -262144 -1
-1;
#X obj 82 361 t b;
#X obj 112 362 spigot;
#X obj 112 414 bng 15 250 50 0 empty empty empty 17 7 0 10 -262144
-1 -1;
#X obj 112 388 t b;
#X obj 142 389 spigot;
#X obj 142 441 bng 15 250 50 0 empty empty empty 17 7 0 10 -262144
-1 -1;
#X obj 142 415 t b;
#X obj 172 416 spigot;
#X obj 172 468 bng 15 250 50 0 empty empty empty 17 7 0 10 -262144
-1 -1;
#X obj 172 442 t b;
#X obj 202 442 spigot;
#X obj 202 494 bng 15 250 50 0 empty empty empty 17 7 0 10 -262144
-1 -1;
#X obj 202 468 t b;
#X obj 232 468 spigot;
#X obj 232 520 bng 15 250 50 0 empty empty empty 17 7 0 10 -262144
-1 -1;
#X obj 232 494 t b;
#X obj 55 256 r \$0-step1-9;
#X obj 85 283 r \$0-step1-10;
#X obj 115 309 r \$0-step1-11;
#X obj 145 335 r \$0-step1-12;
#X obj 175 362 r \$0-step1-13;
#X obj 205 209 r \$0-step1-6;
#X obj 235 235 r \$0-step1-7;
#X obj 265 261 r \$0-step1-8;
#X obj 205 389 r \$0-step1-14;
#X obj 235 415 r \$0-step1-15;
#X obj 265 441 r \$0-step1-16;
#X obj 332 103 spigot;
#X obj 332 155 bng 15 250 50 0 empty empty empty 17 7 0 10 -262144
-1 -1;
#X obj 332 129 t b;
#X obj 362 129 spigot;
#X obj 362 181 bng 15 250 50 0 empty empty empty 17 7 0 10 -262144
-1 -1;
#X obj 362 155 t b;
#X obj 392 155 spigot;
#X obj 392 207 bng 15 250 50 0 empty empty empty 17 7 0 10 -262144
-1 -1;
#X obj 392 181 t b;
#X obj 422 182 spigot;
#X obj 422 234 bng 15 250 50 0 empty empty empty 17 7 0 10 -262144
-1 -1;
#X obj 422 208 t b;
#X obj 452 209 spigot;
#X obj 452 261 bng 15 250 50 0 empty empty empty 17 7 0 10 -262144
-1 -1;
#X obj 452 235 t b;
#X obj 482 236 spigot;
#X obj 482 288 bng 15 250 50 0 empty empty empty 17 7 0 10 -262144
-1 -1;
#X obj 482 262 t b;
#X obj 512 262 spigot;
#X obj 512 314 bng 15 250 50 0 empty empty empty 17 7 0 10 -262144
-1 -1;
#X obj 512 288 t b;
#X obj 542 288 spigot;
#X obj 542 340 bng 15 250 50 0 empty empty empty 17 7 0 10 -262144
-1 -1;
#X obj 542 314 t b;
#X obj 332 283 spigot;
#X obj 332 335 bng 15 250 50 0 empty empty empty 17 7 0 10 -262144
-1 -1;
#X obj 332 309 t b;
#X obj 362 309 spigot;
#X obj 362 361 bng 15 250 50 0 empty empty empty 17 7 0 10 -262144
-1 -1;
#X obj 362 335 t b;
#X obj 392 335 spigot;
#X obj 392 387 bng 15 250 50 0 empty empty empty 17 7 0 10 -262144
-1 -1;
#X obj 392 361 t b;
#X obj 422 362 spigot;
#X obj 422 414 bng 15 250 50 0 empty empty empty 17 7 0 10 -262144
-1 -1;
#X obj 422 388 t b;
#X obj 452 389 spigot;
#X obj 452 441 bng 15 250 50 0 empty empty empty 17 7 0 10 -262144
-1 -1;
#X obj 452 415 t b;
#X obj 482 416 spigot;
#X obj 482 468 bng 15 250 50 0 empty empty empty 17 7 0 10 -262144
-1 -1;
#X obj 482 442 t b;
#X obj 512 442 spigot;
#X obj 512 494 bng 15 250 50 0 empty empty empty 17 7 0 10 -262144
-1 -1;
#X obj 512 468 t b;
#X obj 542 468 spigot;
#X obj 542 520 bng 15 250 50 0 empty empty empty 17 7 0 10 -262144
-1 -1;
#X obj 542 494 t b;
#X obj 365 76 r \$0-step2-1;
#X obj 395 103 r \$0-step2-2;
#X obj 425 129 r \$0-step2-3;
#X obj 455 155 r \$0-step2-4;
#X obj 485 182 r \$0-step2-5;
#X obj 515 209 r \$0-step2-6;
#X obj 545 235 r \$0-step2-7;
#X obj 575 261 r \$0-step2-8;
#X obj 365 256 r \$0-step2-9;
#X obj 395 283 r \$0-step2-10;
#X obj 425 309 r \$0-step2-11;
#X obj 455 335 r \$0-step2-12;
#X obj 485 362 r \$0-step2-13;
#X obj 515 389 r \$0-step2-14;
#X obj 545 415 r \$0-step2-15;
#X obj 575 441 r \$0-step2-16;
#X obj 632 103 spigot;
#X obj 632 155 bng 15 250 50 0 empty empty empty 17 7 0 10 -262144
-1 -1;
#X obj 632 129 t b;
#X obj 662 129 spigot;
#X obj 662 181 bng 15 250 50 0 empty empty empty 17 7 0 10 -262144
-1 -1;
#X obj 662 155 t b;
#X obj 692 155 spigot;
#X obj 692 207 bng 15 250 50 0 empty empty empty 17 7 0 10 -262144
-1 -1;
#X obj 692 181 t b;
#X obj 722 182 spigot;
#X obj 722 234 bng 15 250 50 0 empty empty empty 17 7 0 10 -262144
-1 -1;
#X obj 722 208 t b;
#X obj 752 209 spigot;
#X obj 752 261 bng 15 250 50 0 empty empty empty 17 7 0 10 -262144
-1 -1;
#X obj 752 235 t b;
#X obj 782 236 spigot;
#X obj 782 288 bng 15 250 50 0 empty empty empty 17 7 0 10 -262144
-1 -1;
#X obj 782 262 t b;
#X obj 812 262 spigot;
#X obj 812 314 bng 15 250 50 0 empty empty empty 17 7 0 10 -262144
-1 -1;
#X obj 812 288 t b;
#X obj 842 288 spigot;
#X obj 842 340 bng 15 250 50 0 empty empty empty 17 7 0 10 -262144
-1 -1;
#X obj 842 314 t b;
#X obj 632 283 spigot;
#X obj 632 335 bng 15 250 50 0 empty empty empty 17 7 0 10 -262144
-1 -1;
#X obj 632 309 t b;
#X obj 662 309 spigot;
#X obj 662 361 bng 15 250 50 0 empty empty empty 17 7 0 10 -262144
-1 -1;
#X obj 662 335 t b;
#X obj 692 335 spigot;
#X obj 692 387 bng 15 250 50 0 empty empty empty 17 7 0 10 -262144
-1 -1;
#X obj 692 361 t b;
#X obj 722 362 spigot;
#X obj 722 414 bng 15 250 50 0 empty empty empty 17 7 0 10 -262144
-1 -1;
#X obj 722 388 t b;
#X obj 752 389 spigot;
#X obj 752 441 bng 15 250 50 0 empty empty empty 17 7 0 10 -262144
-1 -1;
#X obj 752 415 t b;
#X obj 782 416 spigot;
#X obj 782 468 bng 15 250 50 0 empty empty empty 17 7 0 10 -262144
-1 -1;
#X obj 782 442 t b;
#X obj 812 442 spigot;
#X obj 812 494 bng 15 250 50 0 empty empty empty 17 7 0 10 -262144
-1 -1;
#X obj 812 468 t b;
#X obj 842 468 spigot;
#X obj 842 520 bng 15 250 50 0 empty empty empty 17 7 0 10 -262144
-1 -1;
#X obj 842 494 t b;
#X obj 665 76 r \$0-step3-1;
#X obj 695 103 r \$0-step3-2;
#X obj 725 129 r \$0-step3-3;
#X obj 755 155 r \$0-step3-4;
#X obj 785 182 r \$0-step3-5;
#X obj 815 209 r \$0-step3-6;
#X obj 845 235 r \$0-step3-7;
#X obj 875 261 r \$0-step3-8;
#X obj 665 256 r \$0-step3-9;
#X obj 695 283 r \$0-step3-10;
#X obj 725 309 r \$0-step3-11;
#X obj 755 335 r \$0-step3-12;
#X obj 785 362 r \$0-step3-13;
#X obj 815 389 r \$0-step3-14;
#X obj 845 415 r \$0-step3-15;
#X obj 875 441 r \$0-step3-16;
#X obj 332 50 sel 0 1 2 3 4 5 6 7 8 9 10 11 12 13 14 15;
#X obj 632 50 sel 0 1 2 3 4 5 6 7 8 9 10 11 12 13 14 15;
#X obj 942 50 sel 0 1 2 3 4 5 6 7 8 9 10 11 12 13 14 15;
#X obj 942 103 spigot;
#X obj 942 155 bng 15 250 50 0 empty empty empty 17 7 0 10 -262144
-1 -1;
#X obj 942 129 t b;
#X obj 972 129 spigot;
#X obj 972 181 bng 15 250 50 0 empty empty empty 17 7 0 10 -262144
-1 -1;
#X obj 972 155 t b;
#X obj 1002 155 spigot;
#X obj 1002 207 bng 15 250 50 0 empty empty empty 17 7 0 10 -262144
-1 -1;
#X obj 1002 181 t b;
#X obj 1032 182 spigot;
#X obj 1032 234 bng 15 250 50 0 empty empty empty 17 7 0 10 -262144
-1 -1;
#X obj 1032 208 t b;
#X obj 1062 209 spigot;
#X obj 1062 261 bng 15 250 50 0 empty empty empty 17 7 0 10 -262144
-1 -1;
#X obj 1062 235 t b;
#X obj 1092 236 spigot;
#X obj 1092 288 bng 15 250 50 0 empty empty empty 17 7 0 10 -262144
-1 -1;
#X obj 1092 262 t b;
#X obj 1122 262 spigot;
#X obj 1122 314 bng 15 250 50 0 empty empty empty 17 7 0 10 -262144
-1 -1;
#X obj 1122 288 t b;
#X obj 1152 288 spigot;
#X obj 1152 340 bng 15 250 50 0 empty empty empty 17 7 0 10 -262144
-1 -1;
#X obj 1152 314 t b;
#X obj 942 283 spigot;
#X obj 942 335 bng 15 250 50 0 empty empty empty 17 7 0 10 -262144
-1 -1;
#X obj 942 309 t b;
#X obj 972 309 spigot;
#X obj 972 361 bng 15 250 50 0 empty empty empty 17 7 0 10 -262144
-1 -1;
#X obj 972 335 t b;
#X obj 1002 335 spigot;
#X obj 1002 387 bng 15 250 50 0 empty empty empty 17 7 0 10 -262144
-1 -1;
#X obj 1002 361 t b;
#X obj 1032 362 spigot;
#X obj 1032 414 bng 15 250 50 0 empty empty empty 17 7 0 10 -262144
-1 -1;
#X obj 1032 388 t b;
#X obj 1062 389 spigot;
#X obj 1062 441 bng 15 250 50 0 empty empty empty 17 7 0 10 -262144
-1 -1;
#X obj 1062 415 t b;
#X obj 1092 416 spigot;
#X obj 1092 468 bng 15 250 50 0 empty empty empty 17 7 0 10 -262144
-1 -1;
#X obj 1092 442 t b;
#X obj 1122 442 spigot;
#X obj 1122 494 bng 15 250 50 0 empty empty empty 17 7 0 10 -262144
-1 -1;
#X obj 1122 468 t b;
#X obj 1152 468 spigot;
#X obj 1152 520 bng 15 250 50 0 empty empty empty 17 7 0 10 -262144
-1 -1;
#X obj 1152 494 t b;
#X obj 975 76 r \$0-step4-1;
#X obj 1005 103 r \$0-step4-2;
#X obj 1035 129 r \$0-step4-3;
#X obj 1065 155 r \$0-step4-4;
#X obj 1095 182 r \$0-step4-5;
#X obj 1125 209 r \$0-step4-6;
#X obj 1155 235 r \$0-step4-7;
#X obj 1185 261 r \$0-step4-8;
#X obj 975 256 r \$0-step4-9;
#X obj 1005 283 r \$0-step4-10;
#X obj 1035 309 r \$0-step4-11;
#X obj 1065 335 r \$0-step4-12;
#X obj 1095 362 r \$0-step4-13;
#X obj 1125 389 r \$0-step4-14;
#X obj 1155 415 r \$0-step4-15;
#X obj 1185 441 r \$0-step4-16;
#X msg 20 547 36;
#X msg 330 547 38;
#X msg 630 547 42;
#X msg 940 547 46;
#X obj 20 573 makenote 127 500;
#X obj 20 599 noteout 1;
#X obj 944 17 hradio 15 1 0 16 \$0-hradio1 empty empty 0 -8 0 10 -262144
-1 -1 13;
#X obj -32 -82 tgl 15 0 empty \$0-start empty 17 7 0 10 -262144 -1
-1 0 1;
#X obj -32 -57 metro;
#X floatatom -5 -157 5 0 300 0 - bpm -;
#X obj -5 -132 expr 60000/$f1;
#X floatatom -5 -106 5 0 0 0 - - -;
#X obj -32 -31 bng 15 250 50 0 metronome empty empty 17 7 0 10 -262144
-1 -1;
#X obj 22 -57 metro;
#X floatatom 49 -82 5 0 0 0 - - -;
#X obj 49 -106 / 4;
#X obj 22 -31 bng 15 250 50 0 empty empty empty 17 7 0 10 -262144 -1
-1;
#X obj 22 -4 counter 0 15;
#X obj 56 -32 sel 0;
#X obj 134 -148 loadbang;
#X msg 134 -119 \; initbpm 120 \;;
#N canvas 318 117 249 216 midiclock 0;
#X floatatom 143 77 5 0 0 0 - - -;
#X obj 116 104 metro;
#X msg 116 155 248;
#X obj 116 130 bng 15 50 50 0 empty empty empty 17 7 0 10 -262144 -1
-1;
#X obj 42 130 sel 0 1;
#X msg 42 155 252;
#X msg 79 155 250;
#X obj 42 181 midiout;
#X obj 42 24 inlet start;
#X obj 143 24 inlet bpm;
#X obj 143 50 expr $f1/24;
#X floatatom 42 105 5 0 0 0 - - -;
#X connect 0 0 1 1;
#X connect 1 0 3 0;
#X connect 2 0 7 0;
#X connect 3 0 2 0;
#X connect 4 0 5 0;
#X connect 4 1 6 0;
#X connect 5 0 7 0;
#X connect 6 0 7 0;
#X connect 8 0 1 0;
#X connect 8 0 11 0;
#X connect 9 0 10 0;
#X connect 10 0 0 0;
#X connect 11 0 4 0;
#X restore 119 -62 pd midiclock;
#X connect 0 0 1 0;
#X connect 0 0 194 0;
#X connect 0 0 195 0;
#X connect 0 0 196 0;
#X connect 0 0 267 0;
#X connect 1 0 2 0;
#X connect 1 1 6 0;
#X connect 1 2 10 0;
#X connect 1 3 14 0;
#X connect 1 4 18 0;
#X connect 1 5 22 0;
#X connect 1 6 25 0;
#X connect 1 7 28 0;
#X connect 1 8 31 0;
#X connect 1 9 34 0;
#X connect 1 10 37 0;
#X connect 1 11 40 0;
#X connect 1 12 43 0;
#X connect 1 13 46 0;
#X connect 1 14 49 0;
#X connect 1 15 52 0;
#X connect 2 0 4 0;
#X connect 3 0 261 0;
#X connect 4 0 3 0;
#X connect 5 0 2 1;
#X connect 6 0 8 0;
#X connect 7 0 261 0;
#X connect 8 0 7 0;
#X connect 9 0 6 1;
#X connect 10 0 12 0;
#X connect 11 0 261 0;
#X connect 12 0 11 0;
#X connect 13 0 10 1;
#X connect 14 0 16 0;
#X connect 15 0 261 0;
#X connect 16 0 15 0;
#X connect 17 0 14 1;
#X connect 18 0 20 0;
#X connect 19 0 261 0;
#X connect 20 0 19 0;
#X connect 21 0 18 1;
#X connect 22 0 24 0;
#X connect 23 0 261 0;
#X connect 24 0 23 0;
#X connect 25 0 27 0;
#X connect 26 0 261 0;
#X connect 27 0 26 0;
#X connect 28 0 30 0;
#X connect 29 0 261 0;
#X connect 30 0 29 0;
#X connect 31 0 33 0;
#X connect 32 0 261 0;
#X connect 33 0 32 0;
#X connect 34 0 36 0;
#X connect 35 0 261 0;
#X connect 36 0 35 0;
#X connect 37 0 39 0;
#X connect 38 0 261 0;
#X connect 39 0 38 0;
#X connect 40 0 42 0;
#X connect 41 0 261 0;
#X connect 42 0 41 0;
#X connect 43 0 45 0;
#X connect 44 0 261 0;
#X connect 45 0 44 0;
#X connect 46 0 48 0;
#X connect 47 0 261 0;
#X connect 48 0 47 0;
#X connect 49 0 51 0;
#X connect 50 0 261 0;
#X connect 51 0 50 0;
#X connect 52 0 54 0;
#X connect 53 0 261 0;
#X connect 54 0 53 0;
#X connect 55 0 31 1;
#X connect 56 0 34 1;
#X connect 57 0 37 1;
#X connect 58 0 40 1;
#X connect 59 0 43 1;
#X connect 60 0 22 1;
#X connect 61 0 25 1;
#X connect 62 0 28 1;
#X connect 63 0 46 1;
#X connect 64 0 49 1;
#X connect 65 0 52 1;
#X connect 66 0 68 0;
#X connect 67 0 262 0;
#X connect 68 0 67 0;
#X connect 69 0 71 0;
#X connect 70 0 262 0;
#X connect 71 0 70 0;
#X connect 72 0 74 0;
#X connect 73 0 262 0;
#X connect 74 0 73 0;
#X connect 75 0 77 0;
#X connect 76 0 262 0;
#X connect 77 0 76 0;
#X connect 78 0 80 0;
#X connect 79 0 262 0;
#X connect 80 0 79 0;
#X connect 81 0 83 0;
#X connect 82 0 262 0;
#X connect 83 0 82 0;
#X connect 84 0 86 0;
#X connect 85 0 262 0;
#X connect 86 0 85 0;
#X connect 87 0 89 0;
#X connect 88 0 262 0;
#X connect 89 0 88 0;
#X connect 90 0 92 0;
#X connect 91 0 262 0;
#X connect 92 0 91 0;
#X connect 93 0 95 0;
#X connect 94 0 262 0;
#X connect 95 0 94 0;
#X connect 96 0 98 0;
#X connect 97 0 262 0;
#X connect 98 0 97 0;
#X connect 99 0 101 0;
#X connect 100 0 262 0;
#X connect 101 0 100 0;
#X connect 102 0 104 0;
#X connect 103 0 262 0;
#X connect 104 0 103 0;
#X connect 105 0 107 0;
#X connect 106 0 262 0;
#X connect 107 0 106 0;
#X connect 108 0 110 0;
#X connect 109 0 262 0;
#X connect 110 0 109 0;
#X connect 111 0 113 0;
#X connect 112 0 262 0;
#X connect 113 0 112 0;
#X connect 114 0 66 1;
#X connect 115 0 69 1;
#X connect 116 0 72 1;
#X connect 117 0 75 1;
#X connect 118 0 78 1;
#X connect 119 0 81 1;
#X connect 120 0 84 1;
#X connect 121 0 87 1;
#X connect 122 0 90 1;
#X connect 123 0 93 1;
#X connect 124 0 96 1;
#X connect 125 0 99 1;
#X connect 126 0 102 1;
#X connect 127 0 105 1;
#X connect 128 0 108 1;
#X connect 129 0 111 1;
#X connect 130 0 132 0;
#X connect 131 0 263 0;
#X connect 132 0 131 0;
#X connect 133 0 135 0;
#X connect 134 0 263 0;
#X connect 135 0 134 0;
#X connect 136 0 138 0;
#X connect 137 0 263 0;
#X connect 138 0 137 0;
#X connect 139 0 141 0;
#X connect 140 0 263 0;
#X connect 141 0 140 0;
#X connect 142 0 144 0;
#X connect 143 0 263 0;
#X connect 144 0 143 0;
#X connect 145 0 147 0;
#X connect 146 0 263 0;
#X connect 147 0 146 0;
#X connect 148 0 150 0;
#X connect 149 0 263 0;
#X connect 150 0 149 0;
#X connect 151 0 153 0;
#X connect 152 0 263 0;
#X connect 153 0 152 0;
#X connect 154 0 156 0;
#X connect 155 0 263 0;
#X connect 156 0 155 0;
#X connect 157 0 159 0;
#X connect 158 0 263 0;
#X connect 159 0 158 0;
#X connect 160 0 162 0;
#X connect 161 0 263 0;
#X connect 162 0 161 0;
#X connect 163 0 165 0;
#X connect 164 0 263 0;
#X connect 165 0 164 0;
#X connect 166 0 168 0;
#X connect 167 0 263 0;
#X connect 168 0 167 0;
#X connect 169 0 171 0;
#X connect 170 0 263 0;
#X connect 171 0 170 0;
#X connect 172 0 174 0;
#X connect 173 0 263 0;
#X connect 174 0 173 0;
#X connect 175 0 177 0;
#X connect 176 0 263 0;
#X connect 177 0 176 0;
#X connect 178 0 130 1;
#X connect 179 0 133 1;
#X connect 180 0 136 1;
#X connect 181 0 139 1;
#X connect 182 0 142 1;
#X connect 183 0 145 1;
#X connect 184 0 148 1;
#X connect 185 0 151 1;
#X connect 186 0 154 1;
#X connect 187 0 157 1;
#X connect 188 0 160 1;
#X connect 189 0 163 1;
#X connect 190 0 166 1;
#X connect 191 0 169 1;
#X connect 192 0 172 1;
#X connect 193 0 175 1;
#X connect 194 0 66 0;
#X connect 194 1 69 0;
#X connect 194 2 72 0;
#X connect 194 3 75 0;
#X connect 194 4 78 0;
#X connect 194 5 81 0;
#X connect 194 6 84 0;
#X connect 194 7 87 0;
#X connect 194 8 90 0;
#X connect 194 9 93 0;
#X connect 194 10 96 0;
#X connect 194 11 99 0;
#X connect 194 12 102 0;
#X connect 194 13 105 0;
#X connect 194 14 108 0;
#X connect 194 15 111 0;
#X connect 195 0 130 0;
#X connect 195 1 133 0;
#X connect 195 2 136 0;
#X connect 195 3 139 0;
#X connect 195 4 142 0;
#X connect 195 5 145 0;
#X connect 195 6 148 0;
#X connect 195 7 151 0;
#X connect 195 8 154 0;
#X connect 195 9 157 0;
#X connect 195 10 160 0;
#X connect 195 11 163 0;
#X connect 195 12 166 0;
#X connect 195 13 169 0;
#X connect 195 14 172 0;
#X connect 195 15 175 0;
#X connect 196 0 197 0;
#X connect 196 1 200 0;
#X connect 196 2 203 0;
#X connect 196 3 206 0;
#X connect 196 4 209 0;
#X connect 196 5 212 0;
#X connect 196 6 215 0;
#X connect 196 7 218 0;
#X connect 196 8 221 0;
#X connect 196 9 224 0;
#X connect 196 10 227 0;
#X connect 196 11 230 0;
#X connect 196 12 233 0;
#X connect 196 13 236 0;
#X connect 196 14 239 0;
#X connect 196 15 242 0;
#X connect 197 0 199 0;
#X connect 198 0 264 0;
#X connect 199 0 198 0;
#X connect 200 0 202 0;
#X connect 201 0 264 0;
#X connect 202 0 201 0;
#X connect 203 0 205 0;
#X connect 204 0 264 0;
#X connect 205 0 204 0;
#X connect 206 0 208 0;
#X connect 207 0 264 0;
#X connect 208 0 207 0;
#X connect 209 0 211 0;
#X connect 210 0 264 0;
#X connect 211 0 210 0;
#X connect 212 0 214 0;
#X connect 213 0 264 0;
#X connect 214 0 213 0;
#X connect 215 0 217 0;
#X connect 216 0 264 0;
#X connect 217 0 216 0;
#X connect 218 0 220 0;
#X connect 219 0 264 0;
#X connect 220 0 219 0;
#X connect 221 0 223 0;
#X connect 222 0 264 0;
#X connect 223 0 222 0;
#X connect 224 0 226 0;
#X connect 225 0 264 0;
#X connect 226 0 225 0;
#X connect 227 0 229 0;
#X connect 228 0 264 0;
#X connect 229 0 228 0;
#X connect 230 0 232 0;
#X connect 231 0 264 0;
#X connect 232 0 231 0;
#X connect 233 0 235 0;
#X connect 234 0 264 0;
#X connect 235 0 234 0;
#X connect 236 0 238 0;
#X connect 237 0 264 0;
#X connect 238 0 237 0;
#X connect 239 0 241 0;
#X connect 240 0 264 0;
#X connect 241 0 240 0;
#X connect 242 0 244 0;
#X connect 243 0 264 0;
#X connect 244 0 243 0;
#X connect 245 0 197 1;
#X connect 246 0 200 1;
#X connect 247 0 203 1;
#X connect 248 0 206 1;
#X connect 249 0 209 1;
#X connect 250 0 212 1;
#X connect 251 0 215 1;
#X connect 252 0 218 1;
#X connect 253 0 221 1;
#X connect 254 0 224 1;
#X connect 255 0 227 1;
#X connect 256 0 230 1;
#X connect 257 0 233 1;
#X connect 258 0 236 1;
#X connect 259 0 239 1;
#X connect 260 0 242 1;
#X connect 261 0 265 0;
#X connect 262 0 265 0;
#X connect 263 0 265 0;
#X connect 264 0 265 0;
#X connect 265 0 266 0;
#X connect 265 1 266 1;
#X connect 268 0 269 0;
#X connect 268 0 274 0;
#X connect 268 0 279 0;
#X connect 268 0 282 0;
#X connect 269 0 273 0;
#X connect 270 0 271 0;
#X connect 271 0 272 0;
#X connect 271 0 276 0;
#X connect 271 0 282 1;
#X connect 272 0 269 1;
#X connect 274 0 277 0;
#X connect 275 0 274 1;
#X connect 276 0 275 0;
#X connect 277 0 278 0;
#X connect 278 0 0 0;
#X connect 279 0 278 2;
#X connect 280 0 281 0;
#X restore 82 221 pd guts;
#X obj 83 121 tgl 30 0 \$0-step2-1 step2-1-input empty 17 7 0 10 -228856
-1 -1 0 1;
#X obj 113 121 tgl 30 0 \$0-step2-2 step2-2-input empty 17 7 0 10 -262144
-1 -1 0 1;
#X obj 143 121 tgl 30 0 \$0-step2-3 step2-3-input empty 17 7 0 10 -262144
-1 -1 0 1;
#X obj 173 121 tgl 30 0 \$0-step2-4 step2-4-input empty 17 7 0 10 -262144
-1 -1 0 1;
#X obj 203 121 tgl 30 0 \$0-step2-5 step2-5-input empty 17 7 0 10 -228856
-1 -1 1 1;
#X obj 233 121 tgl 30 0 \$0-step2-6 step2-6-input empty 17 7 0 10 -262144
-1 -1 0 1;
#X obj 263 121 tgl 30 0 \$0-step2-7 step2-7-input empty 17 7 0 10 -262144
-1 -1 0 1;
#X obj 293 121 tgl 30 0 \$0-step2-8 step2-8-input empty 17 7 0 10 -262144
-1 -1 0 1;
#X obj 323 121 tgl 30 0 \$0-step2-9 step2-9-input empty 17 7 0 10 -228856
-1 -1 0 1;
#X obj 353 121 tgl 30 0 \$0-step2-10 step2-10-input empty 17 7 0 10
-262144 -1 -1 0 1;
#X obj 383 121 tgl 30 0 \$0-step2-11 step2-11-input empty 17 7 0 10
-262144 -1 -1 0 1;
#X obj 413 121 tgl 30 0 \$0-step2-12 step2-12-input empty 17 7 0 10
-262144 -1 -1 0 1;
#X obj 443 121 tgl 30 0 \$0-step2-13 step2-13-input empty 17 7 0 10
-228856 -1 -1 1 1;
#X obj 473 121 tgl 30 0 \$0-step2-14 step2-14-input empty 17 7 0 10
-262144 -1 -1 0 1;
#X obj 503 121 tgl 30 0 \$0-step2-15 step2-15-input empty 17 7 0 10
-262144 -1 -1 1 1;
#X obj 533 121 tgl 30 0 \$0-step2-16 step2-16-input empty 17 7 0 10
-262144 -1 -1 0 1;
#X obj 83 151 tgl 30 0 \$0-step3-1 step3-1-input empty 17 7 0 10 -228856
-1 -1 1 1;
#X obj 113 151 tgl 30 0 \$0-step3-2 step3-2-input empty 17 7 0 10 -262144
-1 -1 1 1;
#X obj 143 151 tgl 30 0 \$0-step3-3 step3-3-input empty 17 7 0 10 -262144
-1 -1 1 1;
#X obj 173 151 tgl 30 0 \$0-step3-4 step3-4-input empty 17 7 0 10 -262144
-1 -1 1 1;
#X obj 203 151 tgl 30 0 \$0-step3-5 step3-5-input empty 17 7 0 10 -228856
-1 -1 1 1;
#X obj 233 151 tgl 30 0 \$0-step3-6 step3-6-input empty 17 7 0 10 -262144
-1 -1 1 1;
#X obj 263 151 tgl 30 0 \$0-step3-7 step3-7-input empty 17 7 0 10 -262144
-1 -1 1 1;
#X obj 293 151 tgl 30 0 \$0-step3-8 step3-8-input empty 17 7 0 10 -262144
-1 -1 0 1;
#X obj 323 151 tgl 30 0 \$0-step3-9 step3-9-input empty 17 7 0 10 -228856
-1 -1 1 1;
#X obj 353 151 tgl 30 0 \$0-step3-10 step3-10-input empty 17 7 0 10
-262144 -1 -1 1 1;
#X obj 383 151 tgl 30 0 \$0-step3-11 step3-11-input empty 17 7 0 10
-262144 -1 -1 1 1;
#X obj 413 151 tgl 30 0 \$0-step3-12 step3-12-input empty 17 7 0 10
-262144 -1 -1 1 1;
#X obj 443 151 tgl 30 0 \$0-step3-13 step3-13-input empty 17 7 0 10
-228856 -1 -1 1 1;
#X obj 473 151 tgl 30 0 \$0-step3-14 step3-14-input empty 17 7 0 10
-262144 -1 -1 1 1;
#X obj 503 151 tgl 30 0 \$0-step3-15 step3-15-input empty 17 7 0 10
-262144 -1 -1 1 1;
#X obj 533 151 tgl 30 0 \$0-step3-16 step3-16-input empty 17 7 0 10
-262144 -1 -1 0 1;
#X obj 83 181 tgl 30 0 \$0-step4-1 step4-1-input empty 17 7 0 10 -228856
-1 -1 0 1;
#X obj 113 181 tgl 30 0 \$0-step4-2 step4-2-input empty 17 7 0 10 -262144
-1 -1 0 1;
#X obj 143 181 tgl 30 0 \$0-step4-3 step4-3-input empty 17 7 0 10 -262144
-1 -1 0 1;
#X obj 173 181 tgl 30 0 \$0-step4-4 step4-4-input empty 17 7 0 10 -262144
-1 -1 0 1;
#X obj 203 181 tgl 30 0 \$0-step4-5 step4-5-input empty 17 7 0 10 -228856
-1 -1 0 1;
#X obj 233 181 tgl 30 0 \$0-step4-6 step4-6-input empty 17 7 0 10 -262144
-1 -1 0 1;
#X obj 263 181 tgl 30 0 \$0-step4-7 step4-7-input empty 17 7 0 10 -262144
-1 -1 0 1;
#X obj 293 181 tgl 30 0 \$0-step4-8 step4-8-input empty 17 7 0 10 -262144
-1 -1 1 1;
#X obj 323 181 tgl 30 0 \$0-step4-9 step4-9-input empty 17 7 0 10 -228856
-1 -1 0 1;
#X obj 353 181 tgl 30 0 \$0-step4-10 step4-10-input empty 17 7 0 10
-262144 -1 -1 0 1;
#X obj 383 181 tgl 30 0 \$0-step4-11 step4-11-input empty 17 7 0 10
-262144 -1 -1 0 1;
#X obj 413 181 tgl 30 0 \$0-step4-12 step4-12-input empty 17 7 0 10
-262144 -1 -1 0 1;
#X obj 443 181 tgl 30 0 \$0-step4-13 step4-13-input empty 17 7 0 10
-228856 -1 -1 0 1;
#X obj 473 181 tgl 30 0 \$0-step4-14 step4-14-input empty 17 7 0 10
-262144 -1 -1 0 1;
#X obj 503 181 tgl 30 0 \$0-step4-15 step4-15-input empty 17 7 0 10
-262144 -1 -1 0 1;
#X obj 533 181 tgl 30 0 \$0-step4-16 step4-16-input empty 17 7 0 10
-262144 -1 -1 1 1;
#X text 55 97 kick;
#X text 49 128 snare;
#X text 19 158 closed hat;
#X text 31 187 open hat;
#X obj 84 21 tgl 30 0 \$0-start empty START 35 14 1 24 -262144 -1 -1
0 1;
#X obj 262 23 nbx 3 25 0 300 0 0 bpm initbpm BPM 75 12 1 24 -262144
-1 -1 120 256;
#X obj 52 61 bng 30 250 50 0 empty metronome empty 17 7 0 10 -262144
-1 -1;
#N canvas 268 307 1006 403 presets 0;
#X obj 23 8 bng 15 250 50 0 empty \$0-clear clear_all 17 7 0 10 -262144
-1 -1;
#X msg 23 73 \; step1-1-input 0 \; step1-2-input 0 \; step1-3-input
0 \; step1-4-input 0 \; step1-5-input 0 \; step1-6-input 0 \; step1-7-input
0 \; step1-8-input 0 \; step1-9-input 0 \; step1-10-input 0 \; step1-11-input
0 \; step1-12-input 0 \; step1-13-input 0 \; step1-14-input 0 \; step1-15-input
0 \; step1-16-input 0 \;;
#X msg 143 73 \; step2-1-input 0 \; step2-2-input 0 \; step2-3-input
0 \; step2-4-input 0 \; step2-5-input 0 \; step2-6-input 0 \; step2-7-input
0 \; step2-8-input 0 \; step2-9-input 0 \; step2-10-input 0 \; step2-11-input
0 \; step2-12-input 0 \; step2-13-input 0 \; step2-14-input 0 \; step2-15-input
0 \; step2-16-input 0 \;;
#X msg 263 73 \; step3-1-input 0 \; step3-2-input 0 \; step3-3-input
0 \; step3-4-input 0 \; step3-5-input 0 \; step3-6-input 0 \; step3-7-input
0 \; step3-8-input 0 \; step3-9-input 0 \; step3-10-input 0 \; step3-11-input
0 \; step3-12-input 0 \; step3-13-input 0 \; step3-14-input 0 \; step3-15-input
0 \; step3-16-input 0 \;;
#X msg 383 73 \; step4-1-input 0 \; step4-2-input 0 \; step4-3-input
0 \; step4-4-input 0 \; step4-5-input 0 \; step4-6-input 0 \; step4-7-input
0 \; step4-8-input 0 \; step4-9-input 0 \; step4-10-input 0 \; step4-11-input
0 \; step4-12-input 0 \; step4-13-input 0 \; step4-14-input 0 \; step4-15-input
0 \; step4-16-input 0 \;;
#X obj 23 35 bng 15 250 50 0 empty clearkick clear_kick 17 7 0 10 -262144
-1 -1;
#X obj 143 35 bng 15 250 50 0 empty clearsnare clear_snare 17 7 0 10
-262144 -1 -1;
#X obj 263 35 bng 15 250 50 0 empty clearch clear_ch 17 7 0 10 -262144
-1 -1;
#X obj 383 35 bng 15 250 50 0 empty clearoh clear_oh 17 7 0 10 -262144
-1 -1;
#X obj 514 11 loadbang;
#N canvas 141 285 694 300 preset1 0;
#X obj 23 4 inlet;
#X obj 23 35 bng 15 250 50 0 empty empty empty 17 7 0 10 -262144 -1
-1;
#X msg 23 73 \; step1-1-input 1 \; step1-2-input 0 \; step1-3-input
0 \; step1-4-input 0 \; step1-5-input 1 \; step1-6-input 0 \; step1-7-input
0 \; step1-8-input 0 \; step1-9-input 1 \; step1-10-input 0 \; step1-11-input
0 \; step1-12-input 0 \; step1-13-input 1 \; step1-14-input 0 \; step1-15-input
0 \; step1-16-input 0 \;;
#X msg 143 73 \; step2-1-input 0 \; step2-2-input 0 \; step2-3-input
0 \; step2-4-input 0 \; step2-5-input 1 \; step2-6-input 0 \; step2-7-input
0 \; step2-8-input 0 \; step2-9-input 0 \; step2-10-input 0 \; step2-11-input
0 \; step2-12-input 0 \; step2-13-input 1 \; step2-14-input 0 \; step2-15-input
0 \; step2-16-input 0 \;;
#X msg 263 73 \; step3-1-input 1 \; step3-2-input 1 \; step3-3-input
1 \; step3-4-input 1 \; step3-5-input 1 \; step3-6-input 1 \; step3-7-input
1 \; step3-8-input 1 \; step3-9-input 1 \; step3-10-input 1 \; step3-11-input
1 \; step3-12-input 1 \; step3-13-input 1 \; step3-14-input 1 \; step3-15-input
1 \; step3-16-input 1 \;;
#X msg 383 73 \; step4-1-input 0 \; step4-2-input 0 \; step4-3-input
1 \; step4-4-input 0 \; step4-5-input 0 \; step4-6-input 1 \; step4-7-input
0 \; step4-8-input 0 \; step4-9-input 1 \; step4-10-input 0 \; step4-11-input
0 \; step4-12-input 1 \; step4-13-input 0 \; step4-14-input 0 \; step4-15-input
1 \; step4-16-input 0 \;;
#X connect 0 0 1 0;
#X connect 1 0 2 0;
#X connect 1 0 3 0;
#X connect 1 0 4 0;
#X connect 1 0 5 0;
#X restore 514 184 pd preset1;
#N canvas 141 285 694 300 preset2 0;
#X obj 23 4 inlet;
#X obj 23 35 bng 15 250 50 0 empty empty empty 17 7 0 10 -262144 -1
-1;
#X msg 23 73 \; step1-1-input 1 \; step1-2-input 0 \; step1-3-input
0 \; step1-4-input 0 \; step1-5-input 0 \; step1-6-input 0 \; step1-7-input
0 \; step1-8-input 1 \; step1-9-input 0 \; step1-10-input 1 \; step1-11-input
0 \; step1-12-input 1 \; step1-13-input 0 \; step1-14-input 1 \; step1-15-input
0 \; step1-16-input 0 \;;
#X msg 143 73 \; step2-1-input 0 \; step2-2-input 0 \; step2-3-input
0 \; step2-4-input 0 \; step2-5-input 0 \; step2-6-input 0 \; step2-7-input
0 \; step2-8-input 1 \; step2-9-input 0 \; step2-10-input 1 \; step2-11-input
0 \; step2-12-input 1 \; step2-13-input 0 \; step2-14-input 0 \; step2-15-input
0 \; step2-16-input 0 \;;
#X msg 263 73 \; step3-1-input 1 \; step3-2-input 0 \; step3-3-input
1 \; step3-4-input 0 \; step3-5-input 1 \; step3-6-input 1 \; step3-7-input
1 \; step3-8-input 0 \; step3-9-input 0 \; step3-10-input 0 \; step3-11-input
0 \; step3-12-input 0 \; step3-13-input 0 \; step3-14-input 1 \; step3-15-input
0 \; step3-16-input 0 \;;
#X msg 383 73 \; step4-1-input 0 \; step4-2-input 0 \; step4-3-input
0 \; step4-4-input 0 \; step4-5-input 0 \; step4-6-input 0 \; step4-7-input
0 \; step4-8-input 1 \; step4-9-input 0 \; step4-10-input 1 \; step4-11-input
0 \; step4-12-input 1 \; step4-13-input 0 \; step4-14-input 0 \; step4-15-input
0 \; step4-16-input 0 \;;
#X connect 0 0 1 0;
#X connect 1 0 2 0;
#X connect 1 0 3 0;
#X connect 1 0 4 0;
#X connect 1 0 5 0;
#X restore 584 184 pd preset2;
#N canvas 141 285 694 300 presettemplate 0;
#X obj 23 4 inlet;
#X obj 23 35 bng 15 250 50 0 empty empty empty 17 7 0 10 -262144 -1
-1;
#X msg 23 73 \; step1-1-input 0 \; step1-2-input 0 \; step1-3-input
0 \; step1-4-input 0 \; step1-5-input 0 \; step1-6-input 0 \; step1-7-input
0 \; step1-8-input 0 \; step1-9-input 0 \; step1-10-input 0 \; step1-11-input
0 \; step1-12-input 0 \; step1-13-input 0 \; step1-14-input 0 \; step1-15-input
0 \; step1-16-input 0 \;;
#X msg 143 73 \; step2-1-input 0 \; step2-2-input 0 \; step2-3-input
0 \; step2-4-input 0 \; step2-5-input 0 \; step2-6-input 0 \; step2-7-input
0 \; step2-8-input 0 \; step2-9-input 0 \; step2-10-input 0 \; step2-11-input
0 \; step2-12-input 0 \; step2-13-input 0 \; step2-14-input 0 \; step2-15-input
0 \; step2-16-input 0 \;;
#X msg 263 73 \; step3-1-input 0 \; step3-2-input 0 \; step3-3-input
0 \; step3-4-input 0 \; step3-5-input 0 \; step3-6-input 0 \; step3-7-input
0 \; step3-8-input 0 \; step3-9-input 0 \; step3-10-input 0 \; step3-11-input
0 \; step3-12-input 0 \; step3-13-input 0 \; step3-14-input 0 \; step3-15-input
0 \; step3-16-input 0 \;;
#X msg 383 73 \; step4-1-input 0 \; step4-2-input 0 \; step4-3-input
0 \; step4-4-input 0 \; step4-5-input 0 \; step4-6-input 0 \; step4-7-input
0 \; step4-8-input 0 \; step4-9-input 0 \; step4-10-input 0 \; step4-11-input
0 \; step4-12-input 0 \; step4-13-input 0 \; step4-14-input 0 \; step4-15-input
0 \; step4-16-input 0 \;;
#X connect 0 0 1 0;
#X connect 1 0 2 0;
#X connect 1 0 3 0;
#X connect 1 0 4 0;
#X connect 1 0 5 0;
#X restore 514 236 pd presettemplate;
#X floatatom 514 96 5 0 0 0 - presetradio -;
#X obj 514 121 sel 0 1 2 3 4 5 6 7;
#N canvas 141 285 694 300 preset3 0;
#X obj 23 4 inlet;
#X obj 23 35 bng 15 250 50 0 empty empty empty 17 7 0 10 -262144 -1
-1;
#X msg 23 73 \; step1-1-input 1 \; step1-2-input 0 \; step1-3-input
1 \; step1-4-input 0 \; step1-5-input 0 \; step1-6-input 1 \; step1-7-input
0 \; step1-8-input 0 \; step1-9-input 1 \; step1-10-input 0 \; step1-11-input
0 \; step1-12-input 0 \; step1-13-input 0 \; step1-14-input 0 \; step1-15-input
0 \; step1-16-input 1 \;;
#X msg 143 73 \; step2-1-input 0 \; step2-2-input 0 \; step2-3-input
0 \; step2-4-input 0 \; step2-5-input 1 \; step2-6-input 0 \; step2-7-input
0 \; step2-8-input 0 \; step2-9-input 0 \; step2-10-input 0 \; step2-11-input
0 \; step2-12-input 0 \; step2-13-input 1 \; step2-14-input 0 \; step2-15-input
0 \; step2-16-input 0 \;;
#X msg 263 73 \; step3-1-input 1 \; step3-2-input 1 \; step3-3-input
1 \; step3-4-input 1 \; step3-5-input 1 \; step3-6-input 1 \; step3-7-input
1 \; step3-8-input 1 \; step3-9-input 1 \; step3-10-input 1 \; step3-11-input
1 \; step3-12-input 1 \; step3-13-input 1 \; step3-14-input 1 \; step3-15-input
1 \; step3-16-input 0 \;;
#X msg 383 73 \; step4-1-input 0 \; step4-2-input 0 \; step4-3-input
0 \; step4-4-input 0 \; step4-5-input 0 \; step4-6-input 0 \; step4-7-input
0 \; step4-8-input 0 \; step4-9-input 0 \; step4-10-input 0 \; step4-11-input
0 \; step4-12-input 0 \; step4-13-input 0 \; step4-14-input 0 \; step4-15-input
0 \; step4-16-input 1 \;;
#X connect 0 0 1 0;
#X connect 1 0 2 0;
#X connect 1 0 3 0;
#X connect 1 0 4 0;
#X connect 1 0 5 0;
#X restore 653 184 pd preset3;
#N canvas 150 319 694 300 preset4 0;
#X obj 23 4 inlet;
#X obj 23 35 bng 15 250 50 0 empty empty empty 17 7 0 10 -262144 -1
-1;
#X msg 23 73 \; step1-1-input 1 \; step1-2-input 0 \; step1-3-input
1 \; step1-4-input 0 \; step1-5-input 0 \; step1-6-input 1 \; step1-7-input
0 \; step1-8-input 0 \; step1-9-input 1 \; step1-10-input 0 \; step1-11-input
0 \; step1-12-input 0 \; step1-13-input 0 \; step1-14-input 0 \; step1-15-input
0 \; step1-16-input 1 \;;
#X msg 143 73 \; step2-1-input 0 \; step2-2-input 0 \; step2-3-input
0 \; step2-4-input 0 \; step2-5-input 1 \; step2-6-input 0 \; step2-7-input
0 \; step2-8-input 0 \; step2-9-input 0 \; step2-10-input 0 \; step2-11-input
0 \; step2-12-input 0 \; step2-13-input 1 \; step2-14-input 0 \; step2-15-input
1 \; step2-16-input 0 \;;
#X msg 263 73 \; step3-1-input 1 \; step3-2-input 1 \; step3-3-input
1 \; step3-4-input 1 \; step3-5-input 1 \; step3-6-input 1 \; step3-7-input
1 \; step3-8-input 0 \; step3-9-input 1 \; step3-10-input 1 \; step3-11-input
1 \; step3-12-input 1 \; step3-13-input 1 \; step3-14-input 1 \; step3-15-input
1 \; step3-16-input 0 \;;
#X msg 383 73 \; step4-1-input 0 \; step4-2-input 0 \; step4-3-input
0 \; step4-4-input 0 \; step4-5-input 0 \; step4-6-input 0 \; step4-7-input
0 \; step4-8-input 1 \; step4-9-input 0 \; step4-10-input 0 \; step4-11-input
0 \; step4-12-input 0 \; step4-13-input 0 \; step4-14-input 0 \; step4-15-input
0 \; step4-16-input 1 \;;
#X connect 0 0 1 0;
#X connect 1 0 2 0;
#X connect 1 0 3 0;
#X connect 1 0 4 0;
#X connect 1 0 5 0;
#X restore 724 184 pd preset4;
#N canvas 141 285 694 300 preset5 0;
#X obj 23 4 inlet;
#X obj 23 35 bng 15 250 50 0 empty empty empty 17 7 0 10 -262144 -1
-1;
#X msg 143 73 \; step2-1-input 0 \; step2-2-input 0 \; step2-3-input
0 \; step2-4-input 0 \; step2-5-input 1 \; step2-6-input 0 \; step2-7-input
0 \; step2-8-input 0 \; step2-9-input 0 \; step2-10-input 0 \; step2-11-input
0 \; step2-12-input 0 \; step2-13-input 1 \; step2-14-input 0 \; step2-15-input
0 \; step2-16-input 0 \;;
#X msg 263 73 \; step3-1-input 1 \; step3-2-input 0 \; step3-3-input
1 \; step3-4-input 0 \; step3-5-input 1 \; step3-6-input 0 \; step3-7-input
1 \; step3-8-input 0 \; step3-9-input 1 \; step3-10-input 0 \; step3-11-input
1 \; step3-12-input 0 \; step3-13-input 1 \; step3-14-input 0 \; step3-15-input
1 \; step3-16-input 0 \;;
#X msg 383 73 \; step4-1-input 0 \; step4-2-input 0 \; step4-3-input
0 \; step4-4-input 0 \; step4-5-input 0 \; step4-6-input 0 \; step4-7-input
0 \; step4-8-input 0 \; step4-9-input 0 \; step4-10-input 0 \; step4-11-input
0 \; step4-12-input 0 \; step4-13-input 0 \; step4-14-input 0 \; step4-15-input
1 \; step4-16-input 0 \;;
#X msg 23 73 \; step1-1-input 1 \; step1-2-input 0 \; step1-3-input
0 \; step1-4-input 0 \; step1-5-input 0 \; step1-6-input 0 \; step1-7-input
0 \; step1-8-input 0 \; step1-9-input 0 \; step1-10-input 1 \; step1-11-input
0 \; step1-12-input 0 \; step1-13-input 1 \; step1-14-input 0 \; step1-15-input
1 \; step1-16-input 0 \;;
#X connect 0 0 1 0;
#X connect 1 0 5 0;
#X connect 1 0 2 0;
#X connect 1 0 3 0;
#X connect 1 0 4 0;
#X restore 514 210 pd preset5;
#N canvas 141 285 694 300 preset6 0;
#X obj 23 4 inlet;
#X obj 23 35 bng 15 250 50 0 empty empty empty 17 7 0 10 -262144 -1
-1;
#X msg 23 73 \; step1-1-input 1 \; step1-2-input 0 \; step1-3-input
1 \; step1-4-input 0 \; step1-5-input 0 \; step1-6-input 1 \; step1-7-input
0 \; step1-8-input 1 \; step1-9-input 0 \; step1-10-input 0 \; step1-11-input
1 \; step1-12-input 1 \; step1-13-input 0 \; step1-14-input 1 \; step1-15-input
0 \; step1-16-input 0 \;;
#X msg 143 73 \; step2-1-input 0 \; step2-2-input 0 \; step2-3-input
0 \; step2-4-input 0 \; step2-5-input 5 \; step2-6-input 0 \; step2-7-input
0 \; step2-8-input 0 \; step2-9-input 0 \; step2-10-input 1 \; step2-11-input
0 \; step2-12-input 0 \; step2-13-input 1 \; step2-14-input 0 \; step2-15-input
0 \; step2-16-input 0 \;;
#X msg 263 73 \; step3-1-input 1 \; step3-2-input 0 \; step3-3-input
1 \; step3-4-input 0 \; step3-5-input 1 \; step3-6-input 0 \; step3-7-input
1 \; step3-8-input 0 \; step3-9-input 1 \; step3-10-input 0 \; step3-11-input
1 \; step3-12-input 0 \; step3-13-input 1 \; step3-14-input 0 \; step3-15-input
1 \; step3-16-input 0 \;;
#X msg 383 73 \; step4-1-input 0 \; step4-2-input 0 \; step4-3-input
0 \; step4-4-input 0 \; step4-5-input 0 \; step4-6-input 0 \; step4-7-input
0 \; step4-8-input 0 \; step4-9-input 0 \; step4-10-input 0 \; step4-11-input
1 \; step4-12-input 0 \; step4-13-input 0 \; step4-14-input 0 \; step4-15-input
0 \; step4-16-input 0 \;;
#X connect 0 0 1 0;
#X connect 1 0 2 0;
#X connect 1 0 3 0;
#X connect 1 0 4 0;
#X connect 1 0 5 0;
#X restore 584 210 pd preset6;
#N canvas 134 320 694 300 preset7 0;
#X obj 23 4 inlet;
#X obj 23 35 bng 15 250 50 0 empty empty empty 17 7 0 10 -262144 -1
-1;
#X msg 23 73 \; step1-1-input 1 \; step1-2-input 0 \; step1-3-input
0 \; step1-4-input 1 \; step1-5-input 0 \; step1-6-input 0 \; step1-7-input
0 \; step1-8-input 1 \; step1-9-input 0 \; step1-10-input 0 \; step1-11-input
0 \; step1-12-input 0 \; step1-13-input 0 \; step1-14-input 0 \; step1-15-input
0 \; step1-16-input 1 \;;
#X msg 143 73 \; step2-1-input 0 \; step2-2-input 0 \; step2-3-input
3 \; step2-4-input 0 \; step2-5-input 0 \; step2-6-input 0 \; step2-7-input
0 \; step2-8-input 0 \; step2-9-input 9 \; step2-10-input 0 \; step2-11-input
1 \; step2-12-input 1 \; step2-13-input 0 \; step2-14-input 0 \; step2-15-input
1 \; step2-16-input 0 \;;
#X msg 263 73 \; step3-1-input 1 \; step3-2-input 0 \; step3-3-input
0 \; step3-4-input 1 \; step3-5-input 1 \; step3-6-input 0 \; step3-7-input
0 \; step3-8-input 1 \; step3-9-input 0 \; step3-10-input 0 \; step3-11-input
0 \; step3-12-input 0 \; step3-13-input 1 \; step3-14-input 1 \; step3-15-input
0 \; step3-16-input 0 \;;
#X msg 383 73 \; step4-1-input 0 \; step4-2-input 0 \; step4-3-input
0 \; step4-4-input 0 \; step4-5-input 0 \; step4-6-input 1 \; step4-7-input
0 \; step4-8-input 0 \; step4-9-input 0 \; step4-10-input 0 \; step4-11-input
0 \; step4-12-input 0 \; step4-13-input 0 \; step4-14-input 0 \; step4-15-input
0 \; step4-16-input 0 \;;
#X connect 0 0 1 0;
#X connect 1 0 2 0;
#X connect 1 0 3 0;
#X connect 1 0 4 0;
#X connect 1 0 5 0;
#X restore 654 210 pd preset7;
#X obj 514 43 random 8;
#X obj 514 70 s randomstartpreset;
#N canvas 206 358 694 300 preset8 0;
#X obj 23 4 inlet;
#X obj 23 35 bng 15 250 50 0 empty empty empty 17 7 0 10 -262144 -1
-1;
#X msg 23 73 \; step1-1-input 1 \; step1-2-input 0 \; step1-3-input
0 \; step1-4-input 0 \; step1-5-input 0 \; step1-6-input 0 \; step1-7-input
1 \; step1-8-input 0 \; step1-9-input 0 \; step1-10-input 0 \; step1-11-input
0 \; step1-12-input 0 \; step1-13-input 1 \; step1-14-input 0 \; step1-15-input
0 \; step1-16-input 0 \;;
#X msg 143 73 \; step2-1-input 0 \; step2-2-input 0 \; step2-3-input
0 \; step2-4-input 1 \; step2-5-input 0 \; step2-6-input 0 \; step2-7-input
0 \; step2-8-input 0 \; step2-9-input 0 \; step2-10-input 0 \; step2-11-input
1 \; step2-12-input 0 \; step2-13-input 0 \; step2-14-input 1 \; step2-15-input
0 \; step2-16-input 0 \;;
#X msg 263 73 \; step3-1-input 1 \; step3-2-input 0 \; step3-3-input
0 \; step3-4-input 0 \; step3-5-input 1 \; step3-6-input 0 \; step3-7-input
0 \; step3-8-input 0 \; step3-9-input 1 \; step3-10-input 0 \; step3-11-input
0 \; step3-12-input 0 \; step3-13-input 1 \; step3-14-input 0 \; step3-15-input
0 \; step3-16-input 0 \;;
#X msg 383 73 \; step4-1-input 0 \; step4-2-input 0 \; step4-3-input
0 \; step4-4-input 0 \; step4-5-input 0 \; step4-6-input 0 \; step4-7-input
0 \; step4-8-input 0 \; step4-9-input 0 \; step4-10-input 0 \; step4-11-input
0 \; step4-12-input 0 \; step4-13-input 0 \; step4-14-input 1 \; step4-15-input
0 \; step4-16-input 0 \;;
#X connect 0 0 1 0;
#X connect 1 0 2 0;
#X connect 1 0 3 0;
#X connect 1 0 4 0;
#X connect 1 0 5 0;
#X restore 724 210 pd preset8;
#X connect 0 0 1 0;
#X connect 0 0 2 0;
#X connect 0 0 3 0;
#X connect 0 0 4 0;
#X connect 5 0 1 0;
#X connect 6 0 2 0;
#X connect 7 0 3 0;
#X connect 8 0 4 0;
#X connect 9 0 20 0;
#X connect 13 0 14 0;
#X connect 14 0 10 0;
#X connect 14 1 11 0;
#X connect 14 2 15 0;
#X connect 14 3 16 0;
#X connect 14 4 17 0;
#X connect 14 5 18 0;
#X connect 14 6 19 0;
#X connect 14 7 22 0;
#X connect 20 0 21 0;
#X restore 146 221 pd presets;
#X obj 444 21 bng 30 250 50 0 \$0-clear empty CLEAR 35 14 1 24 -262144
-1 -1;
#N canvas 120 113 1171 487 randomize 0;
#X obj 27 75 random 2;
#X obj 27 49 bng 15 250 50 0 empty kickrandomize randomize_kick 17
7 0 10 -262144 -1 -1;
#X floatatom 27 101 5 0 0 0 - - step1-1-input;
#X obj 87 75 random 2;
#X floatatom 87 101 5 0 0 0 - - step1-2-input;
#X obj 147 75 random 2;
#X floatatom 147 101 5 0 0 0 - - step1-3-input;
#X obj 207 75 random 2;
#X floatatom 207 101 5 0 0 0 - - step1-4-input;
#X obj 267 75 random 2;
#X floatatom 267 101 5 0 0 0 - - step1-5-input;
#X obj 327 75 random 2;
#X floatatom 327 101 5 0 0 0 - - step1-6-input;
#X obj 387 75 random 2;
#X floatatom 387 101 5 0 0 0 - - step1-7-input;
#X obj 447 75 random 2;
#X floatatom 447 101 5 0 0 0 - - step1-8-input;
#X obj 507 75 random 2;
#X floatatom 507 101 5 0 0 0 - - step1-9-input;
#X obj 567 75 random 2;
#X floatatom 567 101 5 0 0 0 - - step1-10-input;
#X obj 627 75 random 2;
#X floatatom 627 101 5 0 0 0 - - step1-11-input;
#X obj 687 75 random 2;
#X floatatom 687 101 5 0 0 0 - - step1-12-input;
#X obj 747 75 random 2;
#X floatatom 747 101 5 0 0 0 - - step1-13-input;
#X obj 807 75 random 2;
#X floatatom 807 101 5 0 0 0 - - step1-14-input;
#X obj 867 75 random 2;
#X floatatom 867 101 5 0 0 0 - - step1-15-input;
#X obj 927 75 random 2;
#X floatatom 927 101 5 0 0 0 - - step1-16-input;
#X obj 27 155 random 2;
#X obj 27 129 bng 15 250 50 0 empty snarerandomize randomize_snare
17 7 0 10 -262144 -1 -1;
#X floatatom 27 181 5 0 0 0 - - step2-1-input;
#X obj 87 155 random 2;
#X floatatom 87 181 5 0 0 1 - - step2-2-input;
#X obj 147 155 random 2;
#X floatatom 147 181 5 0 0 0 - - step2-3-input;
#X obj 207 155 random 2;
#X floatatom 207 181 5 0 0 0 - - step2-4-input;
#X obj 267 155 random 2;
#X floatatom 267 181 5 0 0 0 - - step2-5-input;
#X obj 327 155 random 2;
#X floatatom 327 181 5 0 0 0 - - step2-6-input;
#X obj 387 155 random 2;
#X floatatom 387 181 5 0 0 0 - - step2-7-input;
#X obj 447 155 random 2;
#X floatatom 447 181 5 0 0 0 - - step2-8-input;
#X obj 507 155 random 2;
#X floatatom 507 181 5 0 0 0 - - step2-9-input;
#X obj 567 155 random 2;
#X floatatom 567 181 5 0 0 0 - - step2-10-input;
#X obj 627 155 random 2;
#X floatatom 627 181 5 0 0 0 - - step2-11-input;
#X obj 687 155 random 2;
#X floatatom 687 181 5 0 0 0 - - step2-12-input;
#X obj 747 155 random 2;
#X floatatom 747 181 5 0 0 0 - - step2-13-input;
#X obj 807 155 random 2;
#X floatatom 807 181 5 0 0 0 - - step2-14-input;
#X obj 867 155 random 2;
#X floatatom 867 181 5 0 0 0 - - step2-15-input;
#X obj 927 155 random 2;
#X floatatom 927 181 5 0 0 0 - - step2-16-input;
#X obj 27 235 random 2;
#X obj 27 209 bng 15 250 50 0 empty closedhatrandomize randomize_closed_hat
17 7 0 10 -262144 -1 -1;
#X floatatom 27 261 5 0 0 0 - - step3-1-input;
#X obj 87 235 random 2;
#X floatatom 87 261 5 0 0 1 - - step3-2-input;
#X obj 147 235 random 2;
#X floatatom 147 261 5 0 0 0 - - step3-3-input;
#X obj 207 235 random 2;
#X floatatom 207 261 5 0 0 0 - - step3-4-input;
#X obj 267 235 random 2;
#X floatatom 267 261 5 0 0 0 - - step3-5-input;
#X obj 327 235 random 2;
#X floatatom 327 261 5 0 0 0 - - step3-6-input;
#X obj 387 235 random 2;
#X floatatom 387 261 5 0 0 0 - - step3-7-input;
#X obj 447 235 random 2;
#X floatatom 447 261 5 0 0 0 - - step3-8-input;
#X obj 507 235 random 2;
#X floatatom 507 261 5 0 0 0 - - step3-9-input;
#X obj 567 235 random 2;
#X floatatom 567 261 5 0 0 0 - - step3-10-input;
#X obj 627 235 random 2;
#X floatatom 627 261 5 0 0 0 - - step3-11-input;
#X obj 687 235 random 2;
#X floatatom 687 261 5 0 0 0 - - step3-12-input;
#X obj 747 235 random 2;
#X floatatom 747 261 5 0 0 0 - - step3-13-input;
#X obj 807 235 random 2;
#X floatatom 807 261 5 0 0 0 - - step3-14-input;
#X obj 867 235 random 2;
#X floatatom 867 261 5 0 0 0 - - step3-15-input;
#X obj 927 235 random 2;
#X floatatom 927 261 5 0 0 0 - - step3-16-input;
#X obj 27 315 random 2;
#X obj 27 289 bng 15 250 50 0 empty openhatrandomize randomize_open_hat
17 7 0 10 -262144 -1 -1;
#X floatatom 27 341 5 0 0 0 - - step4-1-input;
#X obj 87 315 random 2;
#X floatatom 87 341 5 0 0 1 - - step4-2-input;
#X obj 147 315 random 2;
#X floatatom 147 341 5 0 0 0 - - step4-3-input;
#X obj 207 315 random 2;
#X floatatom 207 341 5 0 0 0 - - step4-4-input;
#X obj 267 315 random 2;
#X floatatom 267 341 5 0 0 0 - - step4-5-input;
#X obj 327 315 random 2;
#X floatatom 327 341 5 0 0 0 - - step4-6-input;
#X obj 387 315 random 2;
#X floatatom 387 341 5 0 0 0 - - step4-7-input;
#X obj 447 315 random 2;
#X floatatom 447 341 5 0 0 0 - - step4-8-input;
#X obj 507 315 random 2;
#X floatatom 507 341 5 0 0 0 - - step4-9-input;
#X obj 567 315 random 2;
#X floatatom 567 341 5 0 0 0 - - step4-10-input;
#X obj 627 315 random 2;
#X floatatom 627 341 5 0 0 0 - - step4-11-input;
#X obj 687 315 random 2;
#X floatatom 687 341 5 0 0 0 - - step4-12-input;
#X obj 747 315 random 2;
#X floatatom 747 341 5 0 0 0 - - step4-13-input;
#X obj 807 315 random 2;
#X floatatom 807 341 5 0 0 0 - - step4-14-input;
#X obj 867 315 random 2;
#X floatatom 867 341 5 0 0 0 - - step4-15-input;
#X obj 927 315 random 2;
#X floatatom 927 341 5 0 0 0 - - step4-16-input;
#X obj 27 24 bng 15 250 50 0 empty randomizeall randomize_all 17 7
0 10 -262144 -1 -1;
#X connect 0 0 2 0;
#X connect 1 0 0 0;
#X connect 1 0 3 0;
#X connect 1 0 5 0;
#X connect 1 0 7 0;
#X connect 1 0 9 0;
#X connect 1 0 11 0;
#X connect 1 0 13 0;
#X connect 1 0 15 0;
#X connect 1 0 17 0;
#X connect 1 0 19 0;
#X connect 1 0 21 0;
#X connect 1 0 23 0;
#X connect 1 0 25 0;
#X connect 1 0 27 0;
#X connect 1 0 29 0;
#X connect 1 0 31 0;
#X connect 3 0 4 0;
#X connect 5 0 6 0;
#X connect 7 0 8 0;
#X connect 9 0 10 0;
#X connect 11 0 12 0;
#X connect 13 0 14 0;
#X connect 15 0 16 0;
#X connect 17 0 18 0;
#X connect 19 0 20 0;
#X connect 21 0 22 0;
#X connect 23 0 24 0;
#X connect 25 0 26 0;
#X connect 27 0 28 0;
#X connect 29 0 30 0;
#X connect 31 0 32 0;
#X connect 33 0 35 0;
#X connect 34 0 33 0;
#X connect 34 0 36 0;
#X connect 34 0 38 0;
#X connect 34 0 40 0;
#X connect 34 0 42 0;
#X connect 34 0 44 0;
#X connect 34 0 46 0;
#X connect 34 0 48 0;
#X connect 34 0 50 0;
#X connect 34 0 52 0;
#X connect 34 0 54 0;
#X connect 34 0 56 0;
#X connect 34 0 58 0;
#X connect 34 0 60 0;
#X connect 34 0 62 0;
#X connect 34 0 64 0;
#X connect 36 0 37 0;
#X connect 38 0 39 0;
#X connect 40 0 41 0;
#X connect 42 0 43 0;
#X connect 44 0 45 0;
#X connect 46 0 47 0;
#X connect 48 0 49 0;
#X connect 50 0 51 0;
#X connect 52 0 53 0;
#X connect 54 0 55 0;
#X connect 56 0 57 0;
#X connect 58 0 59 0;
#X connect 60 0 61 0;
#X connect 62 0 63 0;
#X connect 64 0 65 0;
#X connect 66 0 68 0;
#X connect 67 0 66 0;
#X connect 67 0 69 0;
#X connect 67 0 71 0;
#X connect 67 0 73 0;
#X connect 67 0 75 0;
#X connect 67 0 77 0;
#X connect 67 0 79 0;
#X connect 67 0 81 0;
#X connect 67 0 83 0;
#X connect 67 0 85 0;
#X connect 67 0 87 0;
#X connect 67 0 89 0;
#X connect 67 0 91 0;
#X connect 67 0 93 0;
#X connect 67 0 95 0;
#X connect 67 0 97 0;
#X connect 69 0 70 0;
#X connect 71 0 72 0;
#X connect 73 0 74 0;
#X connect 75 0 76 0;
#X connect 77 0 78 0;
#X connect 79 0 80 0;
#X connect 81 0 82 0;
#X connect 83 0 84 0;
#X connect 85 0 86 0;
#X connect 87 0 88 0;
#X connect 89 0 90 0;
#X connect 91 0 92 0;
#X connect 93 0 94 0;
#X connect 95 0 96 0;
#X connect 97 0 98 0;
#X connect 99 0 101 0;
#X connect 100 0 99 0;
#X connect 100 0 102 0;
#X connect 100 0 104 0;
#X connect 100 0 106 0;
#X connect 100 0 108 0;
#X connect 100 0 110 0;
#X connect 100 0 112 0;
#X connect 100 0 114 0;
#X connect 100 0 116 0;
#X connect 100 0 118 0;
#X connect 100 0 120 0;
#X connect 100 0 122 0;
#X connect 100 0 124 0;
#X connect 100 0 126 0;
#X connect 100 0 128 0;
#X connect 100 0 130 0;
#X connect 102 0 103 0;
#X connect 104 0 105 0;
#X connect 106 0 107 0;
#X connect 108 0 109 0;
#X connect 110 0 111 0;
#X connect 112 0 113 0;
#X connect 114 0 115 0;
#X connect 116 0 117 0;
#X connect 118 0 119 0;
#X connect 120 0 121 0;
#X connect 122 0 123 0;
#X connect 124 0 125 0;
#X connect 126 0 127 0;
#X connect 128 0 129 0;
#X connect 130 0 131 0;
#X connect 132 0 1 0;
#X connect 132 0 34 0;
#X connect 132 0 67 0;
#X connect 132 0 100 0;
#X restore 227 222 pd randomize;
#X obj 569 99 bng 15 250 50 0 kickrandomize empty empty 20 7 0 10 -262144
-1 -1;
#X obj 569 128 bng 15 250 50 0 snarerandomize empty empty 20 7 0 10
-262144 -1 -1;
#X text 589 98 Randomize Kick;
#X text 589 127 Randomize Snare;
#X obj 569 158 bng 15 250 50 0 closedhatrandomize empty empty 20 7
0 10 -262144 -1 -1;
#X text 589 157 Randomize CH;
#X obj 569 187 bng 15 250 50 0 openhatrandomize empty empty 20 7 0
10 -262144 -1 -1;
#X text 589 186 Randomize OH;
#X obj 569 69 bng 15 250 50 0 randomizeall empty empty 20 7 0 10 -262144
-1 -1;
#X text 589 68 Randomize ALL;
#X obj 689 99 bng 15 250 50 0 clearkick empty empty 20 7 0 10 -262144
-1 -1;
#X obj 689 128 bng 15 250 50 0 clearsnare empty empty 20 7 0 10 -262144
-1 -1;
#X obj 689 158 bng 15 250 50 0 clearch empty empty 20 7 0 10 -262144
-1 -1;
#X obj 689 187 bng 15 250 50 0 clearoh empty empty 20 7 0 10 -262144
-1 -1;
#X text 709 98 Clear Kick;
#X text 709 157 Clear CH;
#X text 709 186 Clear OH;
#X text 709 127 Clear Snare;
#X obj 587 27 hradio 15 1 0 8 presetradio randomstartpreset Presets
0 -8 1 14 -262144 -1 -1 3;
#X text 520 220 www.formeryugoslavia.org;
#X text 520 233 "take this \, brother. may it serve you well.";
