#N canvas 422 35 849 545 10;
#N canvas 199 14 936 630 drunk 0;
#X text 356 331 state;
#X obj 210 65 inlet;
#X text 690 69 step size;
#X obj 491 43 inlet;
#X obj 627 69 inlet;
#X text 555 36 max value;
#X obj 557 266 random 2;
#X obj 645 172 + 1;
#X obj 557 291 t f b;
#X obj 650 309 * 2;
#X obj 645 335 - 1;
#X obj 651 276 random 2;
#X obj 487 396 *;
#X text 702 321 pos/neg step;
#X obj 354 179 t b b;
#X obj 411 429 +;
#X obj 397 466 clip 0 1, f 12;
#X obj 210 518 outlet;
#X obj 382 397 i;
#X obj 442 340 / 2;
#X obj 210 91 route float bang set seed, f 32;
#X msg 534 150 seed \$1;
#X obj 536 179 t a a;
#X obj 489 79 max 1;
#X obj 638 132 max 1;
#X obj 653 19 loadbang;
#X obj 573 72 f \$1;
#X obj 671 95 f \$2;
#X text 6 197 in1: bang - trigger;
#X text 47 224 float - set state and output;
#X text 49 254 set - set state;
#X text 10 326 in2: float - max value;
#X text 16 364 in3: float - step size;
#X text 15 101 arg1: max value;
#X text 17 131 arg2: step size;
#X text 798 33 derek kwan;
#X text 808 59 pdkvabs;
#X text 815 94 gpl v 3 2017;
#X text 13 26 dkdrunk: a vanilla drunk object (int vals);
#X text 51 283 seed - set seed;
#X connect 1 0 20 0;
#X connect 3 0 23 0;
#X connect 4 0 24 0;
#X connect 6 0 8 0;
#X connect 7 0 6 1;
#X connect 8 0 12 0;
#X connect 8 1 11 0;
#X connect 9 0 10 0;
#X connect 10 0 12 1;
#X connect 11 0 9 0;
#X connect 12 0 15 1;
#X connect 14 0 18 0;
#X connect 14 1 6 0;
#X connect 15 0 16 0;
#X connect 16 0 17 0;
#X connect 16 0 18 1;
#X connect 18 0 15 0;
#X connect 19 0 18 1;
#X connect 20 0 17 0;
#X connect 20 0 18 1;
#X connect 20 1 14 0;
#X connect 20 2 18 1;
#X connect 20 3 21 0;
#X connect 21 0 22 0;
#X connect 22 0 11 0;
#X connect 22 1 6 0;
#X connect 23 0 19 0;
#X connect 23 0 16 2;
#X connect 24 0 7 0;
#X connect 25 0 26 0;
#X connect 25 0 27 0;
#X connect 26 0 23 0;
#X connect 27 0 24 0;
#X restore 161 311 pd drunk;
#X floatatom 183 265 5 0 127 0 - - -;
#X floatatom 206 285 5 0 0 0 - - -;
#X obj 161 214 tgl 15 0 empty \$0-tempo empty 17 7 0 10 -262144 -1
-1 0 1;
#X obj 161 388 ctlout 3 1;
#X obj 161 239 metro 62;
#X floatatom 161 363 5 0 0 0 - - -;
#X obj 161 337 + 64;
#N canvas 611 232 450 300 drunk 0;
#X text 356 331 state;
#X obj 210 65 inlet;
#X text 690 69 step size;
#X obj 491 43 inlet;
#X obj 627 69 inlet;
#X text 555 36 max value;
#X obj 557 266 random 2;
#X obj 645 172 + 1;
#X obj 557 291 t f b;
#X obj 650 309 * 2;
#X obj 645 335 - 1;
#X obj 651 276 random 2;
#X obj 487 396 *;
#X text 702 321 pos/neg step;
#X obj 354 179 t b b;
#X obj 459 429 +;
#X obj 456 466 clip 0 1, f 12;
#X obj 355 518 outlet;
#X obj 382 397 i;
#X obj 442 340 / 2;
#X obj 210 102 route float bang set seed, f 32;
#X msg 534 150 seed \$1;
#X obj 536 179 t a a;
#X obj 489 79 max 1;
#X obj 638 132 max 1;
#X obj 653 19 loadbang;
#X obj 573 72 f \$1;
#X obj 671 95 f \$2;
#X text 6 197 in1: bang - trigger;
#X text 47 224 float - set state and output;
#X text 49 254 set - set state;
#X text 10 326 in2: float - max value;
#X text 16 364 in3: float - step size;
#X text 15 101 arg1: max value;
#X text 17 131 arg2: step size;
#X text 798 33 derek kwan;
#X text 808 59 pdkvabs;
#X text 815 94 gpl v 3 2017;
#X text 13 26 dkdrunk: a vanilla drunk object (int vals);
#X text 51 283 seed - set seed;
#X connect 1 0 20 0;
#X connect 3 0 23 0;
#X connect 4 0 24 0;
#X connect 6 0 8 0;
#X connect 7 0 6 1;
#X connect 8 0 12 0;
#X connect 8 1 11 0;
#X connect 9 0 10 0;
#X connect 10 0 12 1;
#X connect 11 0 9 0;
#X connect 12 0 15 1;
#X connect 14 0 18 0;
#X connect 14 1 6 0;
#X connect 15 0 16 0;
#X connect 16 0 17 0;
#X connect 16 0 18 1;
#X connect 18 0 15 0;
#X connect 19 0 18 1;
#X connect 20 0 17 0;
#X connect 20 0 18 1;
#X connect 20 1 14 0;
#X connect 20 2 18 1;
#X connect 20 3 21 0;
#X connect 21 0 22 0;
#X connect 22 0 11 0;
#X connect 22 1 6 0;
#X connect 23 0 19 0;
#X connect 23 0 16 2;
#X connect 24 0 7 0;
#X connect 25 0 26 0;
#X connect 25 0 27 0;
#X connect 26 0 23 0;
#X connect 27 0 24 0;
#X restore 251 311 pd drunk;
#X floatatom 273 265 5 0 127 0 - - -;
#X floatatom 296 285 5 0 0 0 - - -;
#X obj 251 214 tgl 15 0 empty \$0-tempo empty 17 7 0 10 -262144 -1
-1 0 1;
#X obj 251 239 metro 62;
#X floatatom 251 363 5 0 0 0 - - -;
#X obj 251 388 ctlout 9 1;
#X msg 84 350 0;
#X msg 332 345 0;
#X text 69 415 Using these to ride the frequency (CC 3) and resonance
(CC 9) knobs on an Ableton Auto Filter. It can run in the background
while I play a keyboard VSTi.;
#X text 56 10 DRUNK FILTERSWEEPS - using ctlout to send the output
of a one-dimensional random walk to MIDI CC \, mimicing the knobs on
a controller. Bang a MIDI value (0-127) into "pd drunk" (I used Derek
Kwan's dkdrunk object \, as drunk was only standard in pd-extended)
after clicking on a parameter in Ableton's MIDI map to connect. I think
if you used a Mio or something similar to go from USB to MIDI cable
\, you can skip that step. Be sure to use the undefined CC numbers
- any other number could interfere with another controller function
like the pitch or mod wheels \,;
#X text 56 130 UNDEFINED CC NUMBERS: 3 \, 9 \, 14 \, 15 \, 20 \, 21
\, 22 \, 23 \, 24 \, 25 \, 26 \, 27 \, 28 \, 29 \, 30 \, 31 \, 85 \,
86 \, 87 \, 88 \, 89 \, 90 \, 102 \, 103 \, 104 \, 105 \, 106 \, 107
\, 108 \, 109 \, 110 \, 111 \, 112 \, 113 \, 114 \, 115 \, 116 \, 117
\, 118 \, 119;
#X text 71 460 http://www.formeryugoslavia.org;
#X text 71 470 "take this \, brother. may it serve you well.";
#X connect 0 0 7 0;
#X connect 1 0 0 1;
#X connect 2 0 0 2;
#X connect 3 0 5 0;
#X connect 5 0 0 0;
#X connect 6 0 4 0;
#X connect 7 0 6 0;
#X connect 8 0 13 0;
#X connect 9 0 8 1;
#X connect 10 0 8 2;
#X connect 11 0 12 0;
#X connect 12 0 8 0;
#X connect 13 0 14 0;
#X connect 15 0 4 0;
#X connect 16 0 14 0;
