#N canvas 972 279 894 406 10;
#X obj 17 180 outlet;
#X obj 96 180 outlet;
#X obj 175 180 outlet;
#X obj 253 180 outlet;
#X floatatom 17 198 5 0 0 0 - - -, f 5;
#X obj 17 162 ctlin 70;
#X obj 96 162 ctlin 71;
#X floatatom 96 198 5 0 0 0 - - -, f 5;
#X obj 175 162 ctlin 75;
#X floatatom 174 198 5 0 0 0 - - -, f 5;
#X obj 253 162 ctlin 80;
#X floatatom 253 198 5 0 0 0 - - -, f 5;
#X obj 330 180 outlet;
#X floatatom 330 198 5 0 0 0 - - -, f 5;
#X obj 330 162 ctlin 82;
#X obj 409 180 outlet;
#X floatatom 409 198 5 0 0 0 - - -, f 5;
#X obj 20 48 hsl 290 60 0 127 0 0 empty empty empty -2 -8 0 10 -262144
-1 -1 0 1;
#X floatatom 17 33 5 0 0 0 - - -, f 5;
#X obj 488 180 outlet;
#X floatatom 488 198 5 0 0 0 - - -, f 5;
#X obj 488 162 ctlin 55;
#X obj 564 180 outlet;
#X floatatom 564 198 5 0 0 0 - - -, f 5;
#X obj 564 162 ctlin 87;
#X obj 17 310 outlet;
#X obj 95 312 outlet;
#X obj 173 312 outlet;
#X obj 251 312 outlet;
#X floatatom 17 328 5 0 0 0 - - -, f 5;
#X floatatom 95 330 5 0 0 0 - - -, f 5;
#X floatatom 173 330 5 0 0 0 - - -, f 5;
#X floatatom 251 330 5 0 0 0 - - -, f 5;
#X obj 329 312 outlet;
#X floatatom 329 330 5 0 0 0 - - -, f 5;
#X obj 407 312 outlet;
#X floatatom 407 330 5 0 0 0 - - -, f 5;
#X obj 485 312 outlet;
#X floatatom 485 330 5 0 0 0 - - -, f 5;
#X obj 563 312 outlet;
#X floatatom 563 330 5 0 0 0 - - -, f 5;
#X text 38 142 1;
#X text 114 140 2;
#X text 192 140 3;
#X text 279 140 4;
#X text 355 140 5;
#X text 433 140 6;
#X text 511 140 7;
#X text 586 140 8;
#X text 36 270 9;
#X text 113 272 10;
#X text 180 272 11;
#X text 270 272 12;
#X text 350 272 13;
#X text 427 272 14;
#X text 504 272 15;
#X text 582 272 16;
#X obj 17 294 ctlin 105;
#X obj 95 294 ctlin 106;
#X obj 173 294 ctlin 107;
#X obj 251 294 ctlin 108;
#X obj 329 294 ctlin 110;
#X obj 407 294 ctlin 111;
#X obj 485 294 ctlin 112;
#X obj 563 294 ctlin 116;
#X obj 17 16 ctlin 40;
#X text 114 13 HOLY SHIT IT'S AN EVOLUTION X-SESSION MIDI CONTROLLER
MAP!!!!!, f 62;
#X obj 662 49 ctlin 22;
#X obj 662 67 bng 40 250 50 0 empty empty empty 17 7 0 10 -262144 -1
-1;
#X obj 733 67 bng 40 250 50 0 empty empty empty 17 7 0 10 -262144 -1
-1;
#X obj 733 49 ctlin 23;
#X obj 662 108 outlet;
#X obj 733 108 outlet;
#X obj 733 67 bng 40 250 50 0 empty empty empty 17 7 0 10 -262144 -1
-1;
#X obj 733 49 ctlin 23;
#X obj 733 108 outlet;
#X obj 804 67 bng 40 250 50 0 empty empty empty 17 7 0 10 -262144 -1
-1;
#X obj 804 108 outlet;
#X obj 804 67 bng 40 250 50 0 empty empty empty 17 7 0 10 -262144 -1
-1;
#X obj 804 108 outlet;
#X obj 804 49 ctlin 24;
#X obj 804 49 ctlin 24;
#X obj 662 154 bng 40 250 50 0 empty empty empty 17 7 0 10 -262144
-1 -1;
#X obj 662 195 outlet;
#X obj 662 136 ctlin 41;
#X obj 733 154 bng 40 250 50 0 empty empty empty 17 7 0 10 -262144
-1 -1;
#X obj 733 195 outlet;
#X obj 733 136 ctlin 42;
#X obj 804 154 bng 40 250 50 0 empty empty empty 17 7 0 10 -262144
-1 -1;
#X obj 804 195 outlet;
#X obj 804 136 ctlin 44;
#X obj 662 241 bng 40 250 50 0 empty empty empty 17 7 0 10 -262144
-1 -1;
#X obj 662 282 outlet;
#X obj 662 223 ctlin 52;
#X obj 733 241 bng 40 250 50 0 empty empty empty 17 7 0 10 -262144
-1 -1;
#X obj 733 282 outlet;
#X obj 733 224 ctlin 53;
#X obj 804 241 bng 40 250 50 0 empty empty empty 17 7 0 10 -262144
-1 -1;
#X obj 804 282 outlet;
#X obj 804 224 ctlin 54;
#X obj 733 327 bng 40 250 50 0 empty empty empty 17 7 0 10 -262144
-1 -1;
#X obj 733 368 outlet;
#X obj 733 310 ctlin 57;
#X obj 17 109 outlet;
#X obj 409 162 ctlin 83;
#X obj 381 51 notein;
#X floatatom 381 73 5 0 0 0 - - -, f 5;
#X text 435 61 midi from keyboard;
#X connect 5 0 0 0;
#X connect 5 0 4 0;
#X connect 6 0 1 0;
#X connect 6 0 7 0;
#X connect 8 0 2 0;
#X connect 8 0 9 0;
#X connect 10 0 3 0;
#X connect 10 0 11 0;
#X connect 14 0 12 0;
#X connect 14 0 13 0;
#X connect 17 0 103 0;
#X connect 21 0 19 0;
#X connect 21 0 20 0;
#X connect 24 0 22 0;
#X connect 24 0 23 0;
#X connect 57 0 25 0;
#X connect 57 0 29 0;
#X connect 58 0 26 0;
#X connect 58 0 30 0;
#X connect 59 0 27 0;
#X connect 59 0 31 0;
#X connect 60 0 28 0;
#X connect 60 0 32 0;
#X connect 61 0 33 0;
#X connect 61 0 34 0;
#X connect 62 0 35 0;
#X connect 62 0 36 0;
#X connect 63 0 37 0;
#X connect 63 0 38 0;
#X connect 64 0 39 0;
#X connect 64 0 40 0;
#X connect 65 0 17 0;
#X connect 65 0 18 0;
#X connect 67 0 68 0;
#X connect 68 0 71 0;
#X connect 69 0 72 0;
#X connect 70 0 69 0;
#X connect 73 0 75 0;
#X connect 74 0 73 0;
#X connect 76 0 77 0;
#X connect 78 0 79 0;
#X connect 80 0 76 0;
#X connect 81 0 78 0;
#X connect 82 0 83 0;
#X connect 84 0 82 0;
#X connect 85 0 86 0;
#X connect 87 0 85 0;
#X connect 88 0 89 0;
#X connect 90 0 88 0;
#X connect 91 0 92 0;
#X connect 93 0 91 0;
#X connect 94 0 95 0;
#X connect 96 0 94 0;
#X connect 97 0 98 0;
#X connect 99 0 97 0;
#X connect 100 0 101 0;
#X connect 102 0 100 0;
#X connect 104 0 15 0;
#X connect 104 0 16 0;
#X connect 105 0 106 0;
