#N canvas 559 213 834 547 10;
#N canvas 695 51 478 486 stutter 0;
#X obj 256 210 phasor~;
#X obj 104 206 tabwrite~ \$0-buffer;
#X msg 104 162 start;
#X obj 186 230 *~;
#X obj 187 291 tabread~ \$0-buffer;
#X obj 187 312 *~;
#X msg 401 132 0;
#X obj 153 136 del 2000;
#X msg 153 163 stop;
#X obj 186 163 * 44.1;
#X obj 256 145 expr (1000/$f1);
#X obj 64 423 outlet~ audio;
#X obj 186 36 inlet bpm;
#X obj 294 36 inlet notelen;
#X obj 294 70 t b f;
#X obj 186 112 expr (240/$f1*1000)/$f2;
#X obj 191 423 table \$0-buffer 88200;
#X obj 63 386 expr~ if($f3==1 \, $v2 \, $v1);
#X obj 62 65 inlet~;
#X obj 215 353 pipe;
#X obj 104 115 sel 1 0;
#X msg 123 294 0;
#X msg 105 253 1;
#X obj 382 36 inlet speed;
#X obj 382 74 pow 2;
#X obj 382 100 / 2;
#X obj 256 180 *~;
#X obj 104 40 inlet key;
#N canvas 0 50 291 240 window 0;
#X obj 64 82 cos~;
#X obj 67 19 inlet~ phasor;
#X obj 65 203 outlet~;
#X obj 64 153 clip~ -0.5 0.5;
#X obj 65 61 *~ 0.5;
#X obj 66 40 -~ 0.5;
#X obj 64 177 *~ 2;
#X obj 65 122 *~ 4.5;
#X connect 0 0 7 0;
#X connect 1 0 5 0;
#X connect 3 0 6 0;
#X connect 4 0 0 0;
#X connect 5 0 4 0;
#X connect 6 0 2 0;
#X connect 7 0 3 0;
#X restore 255 250 pd window;
#X connect 0 0 3 1;
#X connect 0 0 28 0;
#X connect 2 0 1 0;
#X connect 3 0 4 0;
#X connect 4 0 5 0;
#X connect 5 0 17 1;
#X connect 6 0 0 1;
#X connect 7 0 8 0;
#X connect 8 0 1 0;
#X connect 9 0 3 0;
#X connect 10 0 26 0;
#X connect 12 0 15 0;
#X connect 13 0 14 0;
#X connect 14 0 15 0;
#X connect 14 1 15 1;
#X connect 15 0 9 0;
#X connect 15 0 10 0;
#X connect 15 0 19 1;
#X connect 17 0 11 0;
#X connect 18 0 1 0;
#X connect 18 0 17 0;
#X connect 19 0 17 2;
#X connect 20 0 2 0;
#X connect 20 0 7 0;
#X connect 20 0 6 0;
#X connect 20 0 22 0;
#X connect 20 1 21 0;
#X connect 21 0 17 2;
#X connect 22 0 19 0;
#X connect 23 0 24 0;
#X connect 24 0 25 0;
#X connect 25 0 26 1;
#X connect 26 0 0 0;
#X connect 27 0 20 0;
#X connect 28 0 5 1;
#X restore 31 275 pd stutter;
#X obj 31 334 dac~;
#X obj 108 234 nbx 5 14 1 1e+037 0 1 empty empty bpm 0 20 0 10 -262144
-1 -1 5.9311 256;
#X obj 189 234 nbx 5 14 -1e+037 1e+037 0 1 empty empty notelen 0 20
0 10 -262144 -1 -1 32 256;
#X obj 622 144 vsl 15 128 0.5 4 0 0 empty empty log_speed_(pitch) 0
-9 0 10 -262144 -1 -1 3317 1;
#X obj 189 83 bng 15 250 50 0 empty empty empty 17 7 0 10 -262144 -1
-1;
#X obj 189 126 sqrt 2;
#X msg 189 105 2;
#X obj 253 62 loadbang;
#X obj 189 62 r keyup_q;
#X msg 317 83 \; pd dsp 0;
#X floatatom 622 281 5 0 0 0 - - -, f 5;
#X msg 253 83 \; pd dsp 1;
#X obj 30 170 adc~;
#X obj 549 214 + 1;
#N canvas 867 136 292 174 key_q 0;
#X obj 84 25 key;
#X msg 84 72 1;
#X msg 138 72 0;
#X obj 84 103 change;
#X obj 138 24 keyup;
#X obj 84 137 outlet;
#X obj 138 112 s keyup_q;
#X floatatom 24 44 5 0 0 0 - - -, f 5;
#X obj 84 47 sel 119;
#X obj 138 46 sel 119;
#X connect 0 0 7 0;
#X connect 0 0 8 0;
#X connect 1 0 3 0;
#X connect 2 0 3 0;
#X connect 2 0 6 0;
#X connect 3 0 5 0;
#X connect 4 0 9 0;
#X connect 8 0 1 0;
#X connect 9 0 2 0;
#X restore 45 234 pd key_q;
#N canvas 1428 393 382 400 taptempo 0;
#X obj 80 151 t b b;
#X obj 80 195 timer;
#X obj 80 92 bng 15 250 50 0 empty empty empty 0 -6 0 10 -262144 -1
-1;
#X obj 80 237 expr 60000 / $f1;
#X floatatom 80 273 10 0 0 0 - - -, f 10;
#N canvas 861 32 1040 834 superTT 0;
#X obj 307 139 t b b;
#X obj 307 183 timer;
#N canvas 0 0 450 300 (subpatch) 0;
#X array \$0-tt 6 float 2;
#X coords 0 1000 6 -1 40 50 1;
#X restore 501 202 graph;
#X obj 530 320 f;
#X msg 572 289 0;
#X obj 557 378 + 1;
#X obj 530 350 t f f;
#X obj 449 376 tabwrite \$0-tt;
#X obj 572 257 loadbang;
#X obj 308 364 until;
#X msg 355 397 0;
#X obj 308 430 f;
#X obj 308 512 tabread \$0-tt;
#X obj 308 541 + 0;
#X obj 308 462 t f f;
#X obj 335 489 + 1;
#X obj 308 567 t f f;
#X obj 220 472 f;
#X obj 308 300 t b b b;
#X msg 388 396 0;
#X obj 307 223 t b b f b;
#X obj 220 612 expr 60000 / $f1;
#X obj 307 92 inlet bang;
#X obj 96 673 outlet ms;
#X obj 220 671 outlet bpm;
#X obj 557 406 sel 6;
#X msg 308 339 6;
#X obj 220 498 / 6;
#X connect 0 0 1 0;
#X connect 0 1 1 1;
#X connect 1 0 20 0;
#X connect 3 0 6 0;
#X connect 4 0 3 1;
#X connect 5 0 25 0;
#X connect 6 0 7 1;
#X connect 6 1 5 0;
#X connect 8 0 4 0;
#X connect 9 0 11 0;
#X connect 10 0 11 1;
#X connect 11 0 14 0;
#X connect 12 0 13 0;
#X connect 13 0 16 0;
#X connect 14 0 12 0;
#X connect 14 1 15 0;
#X connect 15 0 11 1;
#X connect 16 0 17 1;
#X connect 16 1 13 1;
#X connect 17 0 27 0;
#X connect 18 0 26 0;
#X connect 18 1 10 0;
#X connect 18 2 19 0;
#X connect 19 0 13 1;
#X connect 20 0 17 0;
#X connect 20 1 18 0;
#X connect 20 2 7 0;
#X connect 20 3 3 0;
#X connect 21 0 24 0;
#X connect 22 0 0 0;
#X connect 25 0 4 0;
#X connect 25 1 3 1;
#X connect 26 0 9 0;
#X connect 27 0 21 0;
#X connect 27 0 23 0;
#X restore 209 237 pd superTT;
#X floatatom 209 274 8 0 0 3 ms - -, f 8;
#X floatatom 266 274 10 0 0 3 bpm - -, f 10;
#X obj 268 308 outlet;
#X obj 79 45 key;
#X floatatom 127 43 5 0 0 0 - - -, f 5;
#X obj 79 68 sel 114;
#X connect 0 0 1 0;
#X connect 0 1 1 1;
#X connect 1 0 3 0;
#X connect 2 0 0 0;
#X connect 2 0 5 0;
#X connect 3 0 4 0;
#X connect 5 0 6 0;
#X connect 5 1 7 0;
#X connect 7 0 8 0;
#X connect 9 0 10 0;
#X connect 9 0 11 0;
#X connect 11 0 2 0;
#X restore 108 193 pd taptempo;
#N canvas 993 52 292 278 loadmeter 0;
#X floatatom 17 194 0 0 0 0 - - #0-load;
#X obj 17 128 cputime;
#X obj 17 18 loadbang;
#X obj 17 84 metro 1000;
#X msg 17 40 1;
#X floatatom 17 62 0 0 0 0 - - -;
#X obj 17 106 t b b;
#X obj 17 172 * 0.1;
#X obj 17 150 int;
#X text 53 194 CPU load in percent;
#X obj 17 216 outlet;
#X connect 1 0 8 0;
#X connect 2 0 4 0;
#X connect 3 0 6 0;
#X connect 4 0 5 0;
#X connect 5 0 3 0;
#X connect 6 0 1 0;
#X connect 6 1 1 1;
#X connect 7 0 0 0;
#X connect 7 0 10 0;
#X connect 8 0 7 0;
#X coords 0 278 1 277 85 60 0;
#X restore 30 57 pd loadmeter;
#X floatatom 30 79 5 0 0 0 - - -, f 5;
#X text 27 93 cpu load in %;
#X obj 189 170 sel 0;
#X obj 234 170 sel 1;
#X obj 279 170 sel 2;
#X obj 324 170 sel 3;
#X obj 369 170 sel 4;
#X obj 414 170 sel 5;
#X obj 459 170 sel 6;
#X obj 504 170 sel 7;
#X msg 189 192 4;
#X msg 234 192 6;
#X msg 279 192 8;
#X msg 324 192 12;
#X msg 369 192 16;
#X msg 414 192 24;
#X obj 189 148 random 9;
#X obj 549 170 sel 8;
#X msg 459 192 32;
#X msg 504 192 48;
#N canvas 140 62 299 206 key122 0;
#X obj 84 25 key;
#X msg 84 72 1;
#X msg 138 72 0;
#X obj 84 103 change;
#X obj 138 24 keyup;
#X obj 84 137 outlet;
#X floatatom 24 44 5 0 0 0 - - -, f 5;
#X obj 84 47 sel 122;
#X obj 138 112 s keyup122;
#X obj 138 46 sel 122;
#X connect 0 0 6 0;
#X connect 0 0 7 0;
#X connect 1 0 3 0;
#X connect 2 0 3 0;
#X connect 2 0 8 0;
#X connect 3 0 5 0;
#X connect 4 0 9 0;
#X connect 7 0 1 0;
#X connect 9 0 2 0;
#X restore 638 39 pd key122;
#X obj 707 39 r keyup122;
#X obj 638 61 bng 15 250 50 0 empty empty empty 17 7 0 10 -262144 -1
-1;
#X obj 707 61 bng 15 250 50 0 empty empty empty 17 7 0 10 -262144 -1
-1;
#X msg 707 82 stop;
#X obj 638 104 float;
#X obj 638 82 metro 25;
#N canvas 658 138 296 194 key99 0;
#X obj 84 25 key;
#X msg 84 72 1;
#X msg 138 72 0;
#X obj 84 103 change;
#X obj 138 24 keyup;
#X obj 84 137 outlet;
#X floatatom 24 44 5 0 0 0 - - -, f 5;
#X obj 84 47 sel 99;
#X obj 139 46 sel 99;
#X obj 138 112 s keyup99;
#X connect 0 0 6 0;
#X connect 0 0 7 0;
#X connect 1 0 3 0;
#X connect 2 0 3 0;
#X connect 2 0 9 0;
#X connect 3 0 5 0;
#X connect 4 0 8 0;
#X connect 7 0 1 0;
#X connect 8 0 2 0;
#X restore 477 40 pd key99;
#X obj 546 40 r keyup99;
#X obj 477 62 bng 15 250 50 0 empty empty empty 17 7 0 10 -262144 -1
-1;
#X obj 546 62 bng 15 250 50 0 empty empty empty 17 7 0 10 -262144 -1
-1;
#X obj 477 83 metro 100;
#X obj 477 105 float;
#X msg 546 83 stop;
#X text 469 11 top-left button;
#X text 635 10 top-right button;
#X obj 706 104 + 0.01;
#X msg 752 83 1.404;
#X obj 548 105 - 0.01;
#X msg 589 82 1.424;
#X text 470 23 slow "pitch" bend down;
#X text 635 22 slow "pitch" bend up;
#X text 30 443 original patch found here:;
#X text 30 453 https://forum.pdpatchrepo.info/topic/3041/stutter;
#X text 27 359 "the greenwood effect";
#X obj 108 149 loadbang;
#X msg 108 171 120;
#X text 69 121 tap tempo;
#X text 69 110 bottom left button;
#X text 70 132 hit 6x for results;
#X text 252 233 bottom right button triggers effect;
#X text 251 243 hold and release (on/off) for controlled stutter;
#X text 252 253 quick-tap to autohold and use the "pitch" bend buttons
;
#X text 29 503 tap tempo is the superTap1 patch found here: https://forum.pdpatchrepo.info/topic/1494/tap-tempo/2
;
#X text 28 488 (the up/down button code isn't elegant \, but it works)
;
#X text 534 507 http://www.formeryugoslavia.org/;
#X text 531 518 "take this \, brother. may it serve you well.";
#X obj 549 192 random 48;
#X text 31 372 this is a lot like that max patch that jonny greenwood
used in the go to sleep solo. i wanted something a little even-rhythmed
to use with the band i've been jamming with \, so instead of complete
randomness \, instead i "tuned it" by adding a tap tempo and a set
of "notelen" numbers that make a little more sense rhythmically.;
#X text 29 464 modified to break out controls for use with a foot controller
;
#X connect 0 0 1 0;
#X connect 0 0 1 1;
#X connect 2 0 0 2;
#X connect 3 0 0 3;
#X connect 4 0 0 4;
#X connect 4 0 11 0;
#X connect 5 0 7 0;
#X connect 5 0 34 0;
#X connect 6 0 4 0;
#X connect 7 0 6 0;
#X connect 8 0 7 0;
#X connect 8 0 12 0;
#X connect 9 0 5 0;
#X connect 13 0 0 0;
#X connect 13 1 0 0;
#X connect 14 0 3 0;
#X connect 15 0 0 1;
#X connect 16 0 2 0;
#X connect 17 0 18 0;
#X connect 20 0 28 0;
#X connect 21 0 29 0;
#X connect 22 0 30 0;
#X connect 23 0 31 0;
#X connect 24 0 32 0;
#X connect 25 0 33 0;
#X connect 26 0 36 0;
#X connect 27 0 37 0;
#X connect 28 0 3 0;
#X connect 29 0 3 0;
#X connect 30 0 3 0;
#X connect 31 0 3 0;
#X connect 32 0 3 0;
#X connect 33 0 3 0;
#X connect 34 0 20 0;
#X connect 34 0 21 0;
#X connect 34 0 22 0;
#X connect 34 0 23 0;
#X connect 34 0 24 0;
#X connect 34 0 25 0;
#X connect 34 0 26 0;
#X connect 34 0 27 0;
#X connect 34 0 35 0;
#X connect 35 0 75 0;
#X connect 36 0 3 0;
#X connect 37 0 3 0;
#X connect 38 0 40 0;
#X connect 39 0 41 0;
#X connect 40 0 44 0;
#X connect 41 0 42 0;
#X connect 41 0 55 0;
#X connect 42 0 44 0;
#X connect 43 0 54 0;
#X connect 44 0 43 0;
#X connect 45 0 47 0;
#X connect 46 0 48 0;
#X connect 47 0 49 0;
#X connect 48 0 51 0;
#X connect 48 0 57 0;
#X connect 49 0 50 0;
#X connect 50 0 56 0;
#X connect 51 0 49 0;
#X connect 54 0 43 1;
#X connect 54 0 4 0;
#X connect 55 0 43 0;
#X connect 56 0 50 1;
#X connect 56 0 4 0;
#X connect 57 0 50 0;
#X connect 63 0 64 0;
#X connect 64 0 2 0;
#X connect 75 0 14 0;
