#N canvas 659 50 402 290 10;
#N canvas 657 397 359 264 loadmidi 1;
#X obj 37 16 inlet;
#X obj 37 72 seq;
#X msg 37 44 read;
#X obj 87 16 inlet;
#X msg 87 44 start 65536;
#X obj 206 89 bng 15 250 50 0 empty empty empty 17 7 0 10 -262144 -1
-1;
#X obj 37 115 midiparse ------------;
#X obj 206 115 outlet;
#X obj 263 115 s finished;
#X obj 37 143 unpack;
#X obj 37 171 stripnote;
#X floatatom 37 199 5 0 0 0 - - -, f 5;
#X obj 37 224 outlet;
#X connect 0 0 2 0;
#X connect 1 0 6 0;
#X connect 1 1 5 0;
#X connect 2 0 1 0;
#X connect 3 0 4 0;
#X connect 4 0 1 0;
#X connect 5 0 7 0;
#X connect 5 0 8 0;
#X connect 6 0 9 0;
#X connect 9 0 10 0;
#X connect 9 1 10 1;
#X connect 10 0 11 0;
#X connect 11 0 12 0;
#X restore 24 38 pd loadmidi;
#N canvas 1034 400 286 127 markov 1;
#X obj 45 11 inlet;
#N canvas 1079 134 289 207 pair 1;
#X obj 111 23 inlet;
#X floatatom 111 51 5 0 0 0 - - -, f 5;
#X obj 111 76 t f b f;
#X obj 111 104 f;
#X obj 111 132 pack;
#X obj 111 160 outlet;
#X connect 0 0 1 0;
#X connect 1 0 2 0;
#X connect 2 0 3 1;
#X connect 2 1 3 0;
#X connect 2 2 4 1;
#X connect 3 0 4 0;
#X connect 4 0 5 0;
#X restore 45 39 pd pair;
#X msg 45 67 merge \$1 \$2;
#X obj 45 95 coll pitchmatrix;
#C restore;
#X obj 172 45 r resetmatrix;
#X msg 172 67 clear;
#X connect 0 0 1 0;
#X connect 1 0 2 0;
#X connect 2 0 3 0;
#X connect 4 0 5 0;
#X connect 5 0 3 0;
#X restore 24 66 pd markov;
#X obj 24 12 bng 15 250 50 0 empty empty open 17 7 0 10 -262144 -1
-1;
#X obj 98 12 bng 15 250 50 0 empty empty play 17 7 0 10 -262144 -1
-1;
#X obj 98 66 bng 15 250 50 0 empty empty empty 17 7 0 10 -262144 -1
-1;
#X obj 24 124 tgl 15 0 empty empty empty 17 7 0 10 -262144 -1 -1 0
1;
#N canvas 1336 91 292 439 pitchgenerate 1;
#X obj 35 12 inlet;
#X obj 35 39 bng 15 250 50 0 empty empty empty 17 7 0 10 -262144 -1
-1;
#X obj 119 12 inlet;
#X obj 169 12 r finished;
#X obj 119 40 next;
#X obj 119 68 coll pitchmatrix;
#C restore;
#X floatatom 119 96 5 0 0 0 - - -, f 5;
#X obj 35 110 f;
#X obj 35 138 t f f;
#X obj 35 166 coll pitchmatrix;
#C restore;
#X obj 35 194 length;
#X obj 35 222 t b f;
#X obj 35 250 random;
#X obj 35 278 + 1;
#X obj 35 306 pack;
#X msg 35 334 nth \$2 \$1;
#X obj 35 362 coll pitchmatrix;
#C restore;
#X floatatom 35 390 5 0 0 0 - - -, f 5;
#X obj 35 412 outlet;
#X connect 0 0 1 0;
#X connect 1 0 7 0;
#X connect 2 0 4 0;
#X connect 3 0 4 0;
#X connect 4 0 5 0;
#X connect 5 0 6 0;
#X connect 6 0 7 1;
#X connect 7 0 8 0;
#X connect 8 0 9 0;
#X connect 8 1 14 1;
#X connect 9 0 10 0;
#X connect 10 0 11 0;
#X connect 11 0 12 0;
#X connect 11 1 12 1;
#X connect 12 0 13 0;
#X connect 13 0 14 0;
#X connect 14 0 15 0;
#X connect 15 0 16 0;
#X connect 16 0 17 0;
#X connect 17 0 18 0;
#X connect 17 0 7 1;
#X restore 24 204 pd pitchgenerate;
#X obj 24 178 bng 15 250 50 0 empty empty empty 17 7 0 10 -262144 -1
-1;
#X floatatom 24 232 5 0 0 0 - - -, f 5;
#X obj 133 178 bng 15 250 50 0 empty empty new_start_pitch 17 7 0 10
-262144 -1 -1;
#X obj 185 13 bng 50 250 50 0 empty empty reset_that_shit! 55 25 0
15 -258113 -4160 -1;
#N canvas 11 50 631 527 synth 1;
#X floatatom 73 16 5 0 0 0 - - -, f 5;
#X obj 16 72 t f f b;
#X obj 16 100 mtof;
#X floatatom 80 100 8 0 0 0 - - -, f 8;
#X obj 16 128 osc~;
#X obj 17 326 *~;
#X obj 35 291 phasor~;
#X obj 164 111 vline~;
#X obj 16 156 *~;
#X obj 74 490 tabwrite~ array01;
#N canvas 0 50 450 250 (subpatch) 0;
#X array array01 100 float 5;
#A 0 0 0 0 0 0 0 0 0 0 0 0 0 0 0 0 0 0 0 0 0 0 0 0 0 0 0 0 0 0 0 0
0 0 0 0 0 0 0 0 0 0 0 0 0 0 0 0 0 0 0 0 0 0 0 0 0 0 0 0 0 0 0 0 0 0
0 0 0 0 0 0 0 0 0 0 0 0 0 0 0 0 0 0 0 0 0 0 0 0 0 0 0 0 0 0 0 0 0 0
0;
#X coords 0 1 99 -1 384 264 1 0 0;
#X restore 208 243 graph;
#X floatatom 35 266 5 0 0 0 - - -, f 5;
#X obj 38 240 hsl 128 15 110 880 0 0 empty empty empty -2 -8 0 10 -262144
-1 -1 5443 1;
#X msg 35 212 440;
#X obj 35 184 loadbang;
#X obj 106 184 ctlin 70;
#X text 169 182 cc from ev-xs knob 1;
#X obj 106 209 * 6.92913;
#X text 178 208 880 / 127;
#X obj 74 436 tgl 15 0 empty empty empty 17 7 0 10 -262144 -1 -1 1
1;
#X obj 17 436 *~;
#X obj 38 410 hsl 128 15 0 1 0 0 empty empty volume -2 -8 0 10 -262144
-1 -1 0 1;
#X obj 35 354 ctlin 71;
#X obj 35 376 / 127;
#X text 141 22 amplitude modulation synth;
#X obj 422 16 loadbang;
#X msg 422 44 \; pd dsp 1;
#X obj 106 354 loadbang;
#X msg 106 376 1;
#X text 219 73 adsr envelope;
#X msg 164 89 1 250 \, 0.7 1000 2000 \, 0 2000 1000;
#X text 219 107 attack: ramp up to x in y ms;
#X text 221 133 release: ramp down to 0 in x m after y ms hold;
#X text 221 120 decay + sustain: ramp down to x in y ms after z ms
hold;
#X obj 74 462 metro 64;
#X obj 16 16 inlet;
#X obj 17 490 dac~;
#X obj 16 44 / 2;
#X connect 1 0 2 0;
#X connect 1 2 30 0;
#X connect 2 0 3 0;
#X connect 2 0 4 0;
#X connect 4 0 8 0;
#X connect 5 0 20 0;
#X connect 6 0 5 1;
#X connect 7 0 8 1;
#X connect 8 0 5 0;
#X connect 11 0 6 0;
#X connect 12 0 11 0;
#X connect 13 0 12 0;
#X connect 14 0 13 0;
#X connect 15 0 17 0;
#X connect 17 0 12 0;
#X connect 19 0 34 0;
#X connect 20 0 9 0;
#X connect 20 0 36 0;
#X connect 20 0 36 1;
#X connect 21 0 20 1;
#X connect 22 0 23 0;
#X connect 23 0 21 0;
#X connect 25 0 26 0;
#X connect 27 0 28 0;
#X connect 28 0 19 0;
#X connect 30 0 7 0;
#X connect 34 0 9 0;
#X connect 35 0 0 0;
#X connect 35 0 37 0;
#X connect 37 0 1 0;
#X restore 24 257 pd synth;
#X obj 24 149 metro 400;
#X connect 0 0 1 0;
#X connect 0 1 4 0;
#X connect 2 0 0 0;
#X connect 3 0 0 1;
#X connect 5 0 12 0;
#X connect 6 0 8 0;
#X connect 7 0 6 0;
#X connect 8 0 11 0;
#X connect 9 0 6 1;
#X connect 12 0 7 0;
