#N canvas 272 51 573 548 10;
#X obj 42 154 metro;
#X obj 128 128 expr 60000/(8*$f1);
#X msg 168 180 0;
#X floatatom 128 154 5 0 0 0 - - -;
#X obj 42 180 f;
#X obj 75 180 + 1;
#X obj 42 205 % 32;
#X obj 42 231 sel 0;
#X obj 138 231 sel 0;
#X obj 228 231 sel 0;
#X obj 336 231 sel 0;
#X obj 438 231 sel 0;
#X obj 42 257 bng 15 250 50 0 empty empty whole 17 7 0 10 -262144 -1
-1;
#X obj 138 257 bng 15 250 50 0 empty empty 1/2 17 7 0 10 -262144 -1
-1;
#X obj 228 257 bng 15 250 50 0 empty empty 1/4 17 7 0 10 -262144 -1
-1;
#X obj 336 257 bng 15 250 50 0 empty empty 1/8 17 7 0 10 -262144 -1
-1;
#X obj 438 257 bng 15 250 50 0 empty empty 1/16 17 7 0 10 -262144 -1
-1;
#X obj 438 205 % 2;
#X obj 336 205 % 4;
#X obj 228 205 % 8;
#X obj 138 205 % 16;
#X obj 241 49 inlet;
#X obj 327 49 inlet;
#X obj 371 49 inlet;
#X obj 43 367 tgl 15 0 empty empty empty 17 7 0 10 -262144 -1 -1 0
1;
#X obj 43 474 midiout;
#X obj 43 418 select 0 1;
#X msg 43 444 252;
#X msg 72 444 250;
#X msg 118 444 248;
#X obj 118 418 metro 20.8333;
#X floatatom 193 393 5 0 0 0 - - -;
#X obj 193 368 expr (60000/$f1/24);
#X text 42 324 248 = clock \, 250 = start \, 252 = stop;
#X text 41 314 MIDI BEAT CLOCK;
#X text 40 48 INLET 1: Start/Stop (toggle);
#X text 40 58 INLET 2: BPM (number);
#X text 40 68 INLET 3: Counter resets (bang);
#X text 42 500 www.formeryugoslavia.org;
#X text 42 510 "take this \, brother. may it serve you well.";
#X obj 42 282 outlet whole;
#X obj 138 282 outlet half;
#X obj 228 282 outlet quarter;
#X obj 336 282 outlet eighth;
#X obj 438 282 outlet sixteenth;
#X obj 241 75 s start-stop;
#X obj 327 75 s bpm;
#X obj 371 75 s reset;
#X obj 42 99 r start-stop;
#X obj 128 99 r bpm;
#X obj 168 155 r reset;
#X obj 193 342 r bpm;
#X obj 43 342 r start-stop;
#X text 42 11 MASTERCLOCK - Multiple outlet metronome and MIDI beat
clock;
#X connect 0 0 4 0;
#X connect 1 0 3 0;
#X connect 2 0 4 0;
#X connect 3 0 0 1;
#X connect 4 0 5 0;
#X connect 4 0 6 0;
#X connect 4 0 17 0;
#X connect 4 0 18 0;
#X connect 4 0 19 0;
#X connect 4 0 20 0;
#X connect 5 0 4 1;
#X connect 6 0 7 0;
#X connect 7 0 12 0;
#X connect 8 0 13 0;
#X connect 9 0 14 0;
#X connect 10 0 15 0;
#X connect 11 0 16 0;
#X connect 12 0 40 0;
#X connect 13 0 41 0;
#X connect 14 0 42 0;
#X connect 15 0 43 0;
#X connect 16 0 44 0;
#X connect 17 0 11 0;
#X connect 18 0 10 0;
#X connect 19 0 9 0;
#X connect 20 0 8 0;
#X connect 21 0 45 0;
#X connect 22 0 46 0;
#X connect 23 0 47 0;
#X connect 24 0 26 0;
#X connect 24 0 30 0;
#X connect 26 0 27 0;
#X connect 26 1 28 0;
#X connect 27 0 25 0;
#X connect 28 0 25 0;
#X connect 29 0 25 0;
#X connect 30 0 29 0;
#X connect 31 0 30 1;
#X connect 32 0 31 0;
#X connect 48 0 0 0;
#X connect 49 0 1 0;
#X connect 50 0 2 0;
#X connect 51 0 32 0;
#X connect 52 0 24 0;
