#N canvas 560 278 786 421 10;
#X obj 88 154 vradio 25 1 0 5 \$0-osc1 empty OSC1_waveforms 0 -8 0
10 -4032 -1 -1 4;
#X text 122 158 SINE;
#X text 122 183 SQUARE;
#X text 122 209 SAWTOOTH;
#N canvas 0 50 450 250 (subpatch) 0;
#X array osc01 2051 float 4;
#X coords 0 1 2050 -1 200 130 1 0 0;
#X restore 185 150 graph;
#X text 122 233 TRIANGLE;
#X text 123 257 RANDOM;
#N canvas 0 50 450 250 (subpatch) 0;
#X array osc02 2051 float 4;
#X coords 0 1 2050 -1 200 130 1 0 0;
#X restore 515 150 graph;
#X obj 414 154 vradio 25 1 0 5 \$0-osc2 empty OSC2_waveforms 0 -8 0
10 -204800 -1 -1 4;
#X text 446 157 SINE;
#X text 446 182 SQUARE;
#X text 446 208 SAWTOOTH;
#X text 446 232 TRIANGLE;
#X text 447 256 RANDOM;
#X obj 244 377 bng 30 250 50 0 empty \$0-bang01 empty 17 7 0 10 -258113
-261234 -1;
#X obj 284 377 bng 30 250 50 0 empty \$0-bang02 empty 17 7 0 10 -260097
-261682 -1;
#X obj 324 377 bng 30 250 50 0 empty \$0-bang03 empty 17 7 0 10 -257985
-262130 -1;
#X obj 364 377 bng 30 250 50 0 empty \$0-bang04 empty 17 7 0 10 -4034
-204786 -1;
#X obj 404 377 bng 30 250 50 0 empty \$0-bang05 empty 17 7 0 10 -4032
-204800 -1;
#X obj 444 377 bng 30 250 50 0 empty \$0-bang06 empty 17 7 0 10 -4160
-203904 -1;
#X obj 484 377 bng 30 250 50 0 empty \$0-bang07 empty 17 7 0 10 -159808
-232576 -1;
#X obj 524 377 bng 30 250 50 0 empty \$0-bang08 empty 17 7 0 10 -162280
-262144 -1;
#X obj 266 9 bng 50 250 50 0 \$0-start empty empty 17 7 0 10 -4034
-1 -1;
#X text 273 35 start;
#X obj 468 9 bng 50 250 50 0 \$0-stop empty empty 17 7 0 10 -258113
-1 -1;
#X text 467 36 stop;
#X obj 249 84 hsl 300 50 0 1000 0 0 \$0-bpm bpm-default BPM -2 -8 0
10 -261682 -1 -1 19913 1;
#N canvas 1378 236 450 300 default 0;
#X obj 19 12 loadbang;
#X msg 19 44 \; bpm-default 666;
#X obj 129 12 bng 15 250 50 0 empty \$0-666 empty 17 7 0 10 -262144
-1 -1;
#X msg 129 44 \; bpm-default 666;
#X connect 0 0 1 0;
#X connect 2 0 3 0;
#X restore 81 371 pd default;
#X floatatom 376 63 5 0 0 0 - #0-bpm -, f 5;
#X obj 367 10 bng 50 250 50 0 \$0-666 empty empty 17 7 0 10 -4160 -1
-1;
#X text 377 36 666;
#X obj 85 303 hsl 300 50 100 3000 0 0 \$0-vcf-signal empty FILTER_CUTOFF_FREQUENCY
-2 -8 0 10 -16662 -262144 -1 8400 1;
#X obj 415 303 hsl 300 50 0 50 0 0 \$0-vcf-q empty Q -2 -8 0 10 -45076
-262144 -1 2600 1;
#N canvas 0 50 347 550 guts 0;
#X obj 21 18 bng 50 250 50 0 empty \$0-start empty 17 7 0 10 -4034
-1 -1;
#X obj 21 77 t b b b, f 10;
#X obj 21 183 metro;
#X msg 223 154 stop;
#X msg 54 105 60000;
#X obj 54 133 /;
#X obj 54 155 i;
#X obj 21 211 i;
#X text 170 79 set bpm;
#X text 28 44 start;
#X obj 57 211 + 1;
#X text 124 132 ms == 60000/bpm;
#X floatatom 128 151 5 0 0 0 - - -, f 5;
#X obj 223 18 bng 50 250 50 0 empty \$0-stop empty 17 7 0 10 -258113
-1 -1;
#X text 232 45 stop;
#X msg 64 184 0;
#X obj 21 234 % 8;
#X obj 21 260 sel 0 1 2 3 4 5 6 7;
#X msg 21 311 40;
#X obj 21 285 bng 15 250 50 0 \$0-bang01 empty empty 17 7 0 10 -262144
-1 -1;
#X obj 41 285 bng 15 250 50 0 \$0-bang02 empty empty 17 7 0 10 -262144
-1 -1;
#X obj 61 285 bng 15 250 50 0 \$0-bang03 empty empty 17 7 0 10 -262144
-1 -1;
#X obj 81 285 bng 15 250 50 0 \$0-bang04 empty empty 17 7 0 10 -262144
-1 -1;
#X obj 101 285 bng 15 250 50 0 \$0-bang05 empty empty 17 7 0 10 -262144
-1 -1;
#X obj 121 285 bng 15 250 50 0 \$0-bang06 empty empty 17 7 0 10 -262144
-1 -1;
#X obj 141 285 bng 15 250 50 0 \$0-bang07 empty empty 17 7 0 10 -262144
-1 -1;
#X obj 161 285 bng 15 250 50 0 \$0-bang08 empty empty 17 7 0 10 -262144
-1 -1;
#X msg 52 311 43;
#X msg 82 311 45;
#X msg 112 311 43;
#X msg 142 311 50;
#X msg 172 311 48;
#X msg 202 311 50;
#X msg 232 311 52;
#X obj 21 351 mtof;
#X floatatom 59 351 5 0 0 0 - - -, f 5;
#X obj 20 517 dac~;
#X obj 21 474 vcf~;
#X obj 32 427 sig~;
#X floatatom 82 433 5 0 0 0 - #0-vcf-q -, f 5;
#X text 124 433 q;
#X obj 86 399 hsl 128 15 0 3000 0 0 empty \$0-vcf-signal empty -2 -8
0 10 -262144 -1 -1 3872 1;
#X floatatom 185 414 5 0 0 0 - - -, f 5;
#X msg 72 18 \; pd dsp 1;
#X msg 274 19 \; pd dsp 0;
#N canvas 1016 28 642 286 oscillators 0;
#X obj 22 18 inlet;
#X obj 22 260 outlet~;
#X text 268 73 SINE;
#X text 268 90 SQUARE;
#X text 532 70 SINE;
#X text 532 87 SQUARE;
#X obj 22 180 *~;
#X obj 43 160 hsl 128 15 0.1 1 0 0 empty empty trim -2 -8 0 10 -262144
-1 -1 12700 1;
#X obj 251 76 vradio 15 1 0 5 empty \$0-osc1 empty 0 -8 0 10 -262144
-1 -1 0;
#X floatatom 251 156 5 0 0 0 - - -, f 5;
#X obj 251 175 sel 0 1 2 3 4;
#N canvas 999 38 733 507 osc1wavs 0;
#X obj 12 14 inlet;
#X obj 56 14 inlet;
#X obj 100 14 inlet;
#X obj 144 14 inlet;
#X obj 188 14 inlet;
#X text 160 48 SINE;
#X text 443 102 SQUARE;
#X text 404 165 SAWTOOTH;
#X text 390 227 TRIANGLE;
#X obj 12 271 t b;
#X obj 12 293 random 1e+008;
#X obj 12 315 / 1e+008;
#X floatatom 12 337 5 0 0 1 harmonic1 - -, f 5;
#X obj 122 293 random 1e+008;
#X obj 122 315 / 1e+008;
#X floatatom 122 337 5 0 0 1 harmonic2 - -, f 5;
#X obj 232 293 random 1e+008;
#X obj 232 315 / 1e+008;
#X floatatom 232 337 5 0 0 1 harmonic3 - -, f 5;
#X obj 342 293 random 1e+008;
#X obj 342 315 / 1e+008;
#X floatatom 342 337 5 0 0 1 harmonic4 - -, f 5;
#X obj 452 293 random 1e+008;
#X obj 452 315 / 1e+008;
#X floatatom 452 337 5 0 0 1 harmonic5 - -, f 5;
#X obj 562 293 random 1e+008;
#X obj 562 315 / 1e+008;
#X floatatom 562 337 5 0 0 1 harmonic6 - -, f 5;
#X obj 12 356 random 1e+008;
#X obj 12 378 / 1e+008;
#X floatatom 12 400 5 0 0 1 harmonic7 - -, f 5;
#X obj 122 356 random 1e+008;
#X obj 122 378 / 1e+008;
#X floatatom 122 400 5 0 0 1 harmonic8 - -, f 5;
#X obj 232 356 random 1e+008;
#X obj 232 378 / 1e+008;
#X floatatom 232 400 5 0 0 1 harmonic9 - -, f 5;
#X obj 342 356 random 1e+008;
#X obj 342 378 / 1e+008;
#X floatatom 342 400 5 0 0 1 harmonic10 - -, f 5;
#X obj 452 356 random 1e+008;
#X obj 452 378 / 1e+008;
#X floatatom 452 400 5 0 0 1 harmonic11 - -, f 5;
#X obj 562 356 random 1e+008;
#X obj 562 378 / 1e+008;
#X floatatom 562 400 5 0 0 1 harmonic12 - -, f 5;
#X obj 12 424 pack f1 f2 f3 f4 f5 f6 f7 f8 f9 f10 f11 f12;
#X text 679 334 DUH;
#X msg 12 36 \; osc01 sinesum 2048 1 \; osc01 normalize 1;
#X msg 12 87 \; osc01 sinesum 2048 1 0 0.333333 0 0.2 0 0.142857 0
0.111111 0 0.090909 0 0.076923 \; osc01 normalize 1;
#X msg 12 147 \; osc01 sinesum 2048 1 0.5 0.33 0.25 0.2 0.166667 0.142857
0.125 0.111111 0.1 0.090909 0.0833333 0.076923 \; osc01 normalize 1
;
#X msg 12 210 \; osc01 sinesum 2048 1 0 -0.111111 0 0.04 0 -0.0204082
0 0.0123457 0 -0.00826446 0 \; osc01 normalize 1;
#X msg 12 446 \; osc01 sinesum 2048 \$1 \$2 \$3 \$4 \$5 \$6 \$7 \$8
\$9 \$10 \$11 \$12 \; osc01 normalize 1;
#X connect 0 0 48 0;
#X connect 1 0 49 0;
#X connect 2 0 50 0;
#X connect 3 0 51 0;
#X connect 4 0 9 0;
#X connect 9 0 10 0;
#X connect 9 0 13 0;
#X connect 9 0 16 0;
#X connect 9 0 19 0;
#X connect 9 0 22 0;
#X connect 9 0 25 0;
#X connect 9 0 28 0;
#X connect 9 0 31 0;
#X connect 9 0 34 0;
#X connect 9 0 37 0;
#X connect 9 0 40 0;
#X connect 9 0 43 0;
#X connect 10 0 11 0;
#X connect 11 0 12 0;
#X connect 12 0 46 0;
#X connect 13 0 14 0;
#X connect 14 0 15 0;
#X connect 15 0 46 1;
#X connect 16 0 17 0;
#X connect 17 0 18 0;
#X connect 18 0 46 2;
#X connect 19 0 20 0;
#X connect 20 0 21 0;
#X connect 21 0 46 3;
#X connect 22 0 23 0;
#X connect 23 0 24 0;
#X connect 24 0 46 4;
#X connect 25 0 26 0;
#X connect 26 0 27 0;
#X connect 27 0 46 5;
#X connect 28 0 29 0;
#X connect 29 0 30 0;
#X connect 30 0 46 6;
#X connect 31 0 32 0;
#X connect 32 0 33 0;
#X connect 33 0 46 7;
#X connect 34 0 35 0;
#X connect 35 0 36 0;
#X connect 36 0 46 8;
#X connect 37 0 38 0;
#X connect 38 0 39 0;
#X connect 39 0 46 9;
#X connect 40 0 41 0;
#X connect 41 0 42 0;
#X connect 42 0 46 10;
#X connect 43 0 44 0;
#X connect 44 0 45 0;
#X connect 45 0 46 11;
#X connect 46 0 52 0;
#X restore 251 197 pd osc1wavs;
#X text 268 105 SAWTOOTH;
#X text 267 120 TRIANGLE;
#X text 268 135 RANDOM;
#X obj 349 199 *~;
#X obj 370 161 hsl 128 15 0.1 1 0 0 empty empty trim -2 -8 0 10 -262144
-1 -1 12700 1;
#X obj 515 73 vradio 15 1 0 5 empty \$0-osc2 empty 0 -8 0 10 -262144
-1 -1 4;
#X floatatom 515 153 5 0 0 0 - - -, f 5;
#X obj 515 172 sel 0 1 2 3 4;
#X text 532 102 SAWTOOTH;
#X text 531 117 TRIANGLE;
#X text 532 132 RANDOM;
#N canvas 494 393 733 507 osc2wavs 0;
#X obj 12 14 inlet;
#X obj 56 14 inlet;
#X obj 100 14 inlet;
#X obj 144 14 inlet;
#X obj 188 14 inlet;
#X text 160 48 SINE;
#X text 443 102 SQUARE;
#X text 404 165 SAWTOOTH;
#X text 390 227 TRIANGLE;
#X obj 12 271 t b;
#X obj 12 293 random 1e+008;
#X obj 12 315 / 1e+008;
#X floatatom 12 337 5 0 0 1 harmonic1 - -, f 5;
#X obj 122 293 random 1e+008;
#X obj 122 315 / 1e+008;
#X floatatom 122 337 5 0 0 1 harmonic2 - -, f 5;
#X obj 232 293 random 1e+008;
#X obj 232 315 / 1e+008;
#X floatatom 232 337 5 0 0 1 harmonic3 - -, f 5;
#X obj 342 293 random 1e+008;
#X obj 342 315 / 1e+008;
#X floatatom 342 337 5 0 0 1 harmonic4 - -, f 5;
#X obj 452 293 random 1e+008;
#X obj 452 315 / 1e+008;
#X floatatom 452 337 5 0 0 1 harmonic5 - -, f 5;
#X obj 562 293 random 1e+008;
#X obj 562 315 / 1e+008;
#X floatatom 562 337 5 0 0 1 harmonic6 - -, f 5;
#X obj 12 356 random 1e+008;
#X obj 12 378 / 1e+008;
#X floatatom 12 400 5 0 0 1 harmonic7 - -, f 5;
#X obj 122 356 random 1e+008;
#X obj 122 378 / 1e+008;
#X floatatom 122 400 5 0 0 1 harmonic8 - -, f 5;
#X obj 232 356 random 1e+008;
#X obj 232 378 / 1e+008;
#X floatatom 232 400 5 0 0 1 harmonic9 - -, f 5;
#X obj 342 356 random 1e+008;
#X obj 342 378 / 1e+008;
#X floatatom 342 400 5 0 0 1 harmonic10 - -, f 5;
#X obj 452 356 random 1e+008;
#X obj 452 378 / 1e+008;
#X floatatom 452 400 5 0 0 1 harmonic11 - -, f 5;
#X obj 562 356 random 1e+008;
#X obj 562 378 / 1e+008;
#X floatatom 562 400 5 0 0 1 harmonic12 - -, f 5;
#X obj 12 424 pack f1 f2 f3 f4 f5 f6 f7 f8 f9 f10 f11 f12;
#X text 679 334 DUH;
#X msg 12 36 \; osc02 sinesum 2048 1 \; osc02 normalize 1;
#X msg 12 87 \; osc02 sinesum 2048 1 0 0.333333 0 0.2 0 0.142857 0
0.111111 0 0.090909 0 0.076923 \; osc02 normalize 1;
#X msg 12 147 \; osc02 sinesum 2048 1 0.5 0.33 0.25 0.2 0.166667 0.142857
0.125 0.111111 0.1 0.090909 0.0833333 0.076923 \; osc02 normalize 1
;
#X msg 12 210 \; osc02 sinesum 2048 1 0 -0.111111 0 0.04 0 -0.0204082
0 0.0123457 0 -0.00826446 0 \; osc02 normalize 1;
#X msg 12 446 \; osc02 sinesum 2048 \$1 \$2 \$3 \$4 \$5 \$6 \$7 \$8
\$9 \$10 \$11 \$12 \; osc02 normalize 1;
#X connect 0 0 48 0;
#X connect 1 0 49 0;
#X connect 2 0 50 0;
#X connect 3 0 51 0;
#X connect 4 0 9 0;
#X connect 9 0 10 0;
#X connect 9 0 13 0;
#X connect 9 0 16 0;
#X connect 9 0 19 0;
#X connect 9 0 22 0;
#X connect 9 0 25 0;
#X connect 9 0 28 0;
#X connect 9 0 31 0;
#X connect 9 0 34 0;
#X connect 9 0 37 0;
#X connect 9 0 40 0;
#X connect 9 0 43 0;
#X connect 10 0 11 0;
#X connect 11 0 12 0;
#X connect 12 0 46 0;
#X connect 13 0 14 0;
#X connect 14 0 15 0;
#X connect 15 0 46 1;
#X connect 16 0 17 0;
#X connect 17 0 18 0;
#X connect 18 0 46 2;
#X connect 19 0 20 0;
#X connect 20 0 21 0;
#X connect 21 0 46 3;
#X connect 22 0 23 0;
#X connect 23 0 24 0;
#X connect 24 0 46 4;
#X connect 25 0 26 0;
#X connect 26 0 27 0;
#X connect 27 0 46 5;
#X connect 28 0 29 0;
#X connect 29 0 30 0;
#X connect 30 0 46 6;
#X connect 31 0 32 0;
#X connect 32 0 33 0;
#X connect 33 0 46 7;
#X connect 34 0 35 0;
#X connect 35 0 36 0;
#X connect 36 0 46 8;
#X connect 37 0 38 0;
#X connect 38 0 39 0;
#X connect 39 0 46 9;
#X connect 40 0 41 0;
#X connect 41 0 42 0;
#X connect 42 0 46 10;
#X connect 43 0 44 0;
#X connect 44 0 45 0;
#X connect 45 0 46 11;
#X connect 46 0 52 0;
#X restore 515 194 pd osc2wavs;
#X obj 22 215 *~;
#X obj 22 117 tabosc4~ osc01;
#X obj 349 118 tabosc4~ osc02;
#X obj 40 64 loadbang;
#X msg 40 89 1;
#X connect 0 0 25 0;
#X connect 0 0 26 0;
#X connect 6 0 24 0;
#X connect 7 0 6 1;
#X connect 8 0 9 0;
#X connect 9 0 10 0;
#X connect 10 0 11 0;
#X connect 10 1 11 1;
#X connect 10 2 11 2;
#X connect 10 3 11 3;
#X connect 10 4 11 4;
#X connect 15 0 24 1;
#X connect 16 0 15 1;
#X connect 17 0 18 0;
#X connect 18 0 19 0;
#X connect 19 0 23 0;
#X connect 19 1 23 1;
#X connect 19 2 23 2;
#X connect 19 3 23 3;
#X connect 19 4 23 4;
#X connect 24 0 1 0;
#X connect 25 0 6 0;
#X connect 26 0 15 0;
#X connect 27 0 28 0;
#X connect 28 0 7 0;
#X connect 28 0 16 0;
#X restore 21 375 pd oscillators;
#X floatatom 137 79 5 0 0 0 - #0-bpm -, f 5;
#X connect 0 0 1 0;
#X connect 0 0 43 0;
#X connect 1 0 2 0;
#X connect 1 1 4 0;
#X connect 2 0 7 0;
#X connect 3 0 2 0;
#X connect 4 0 5 0;
#X connect 5 0 6 0;
#X connect 6 0 2 1;
#X connect 6 0 12 0;
#X connect 7 0 10 0;
#X connect 7 0 16 0;
#X connect 10 0 7 1;
#X connect 13 0 3 0;
#X connect 13 0 44 0;
#X connect 13 0 15 0;
#X connect 15 0 7 1;
#X connect 16 0 17 0;
#X connect 17 0 19 0;
#X connect 17 1 20 0;
#X connect 17 2 21 0;
#X connect 17 3 22 0;
#X connect 17 4 23 0;
#X connect 17 5 24 0;
#X connect 17 6 25 0;
#X connect 17 7 26 0;
#X connect 18 0 34 0;
#X connect 19 0 18 0;
#X connect 20 0 27 0;
#X connect 21 0 28 0;
#X connect 22 0 29 0;
#X connect 23 0 30 0;
#X connect 24 0 31 0;
#X connect 25 0 32 0;
#X connect 26 0 33 0;
#X connect 27 0 34 0;
#X connect 28 0 34 0;
#X connect 29 0 34 0;
#X connect 30 0 34 0;
#X connect 31 0 34 0;
#X connect 32 0 34 0;
#X connect 33 0 34 0;
#X connect 34 0 35 0;
#X connect 34 0 45 0;
#X connect 37 0 36 0;
#X connect 37 0 36 1;
#X connect 38 0 37 1;
#X connect 39 0 37 2;
#X connect 41 0 38 0;
#X connect 41 0 42 0;
#X connect 45 0 37 0;
#X connect 46 0 5 1;
#X restore 81 391 pd guts;
#X text 85 12 "On the Run";
