#N canvas 333 457 909 398 10;
#N canvas 0 50 450 250 (subpatch) 0;
#X array osc01 2051 float 4;
#X coords 0 1 2050 -1 114 78 1;
#X restore 369 48 graph;
#X obj 262 154 *~;
#X obj 283 134 hsl 128 15 0.1 1 0 0 empty empty trim -2 -8 0 10 -262144
-1 -1 12700 1;
#X obj 491 50 vradio 15 1 0 5 empty empty empty 0 -8 0 10 -262144 -1
-1 0;
#X floatatom 491 130 5 0 0 0 - - -, f 5;
#X obj 491 149 sel 0 1 2 3 4;
#N canvas 999 38 733 507 osc1wavs 1;
#X obj 12 14 inlet;
#X obj 56 14 inlet;
#X obj 100 14 inlet;
#X obj 144 14 inlet;
#X obj 188 14 inlet;
#X text 160 48 SINE;
#X text 443 102 SQUARE;
#X text 404 165 SAWTOOTH;
#X text 390 227 TRIANGLE;
#X obj 12 271 t b;
#X obj 12 293 random 1e+008;
#X obj 12 315 / 1e+008;
#X floatatom 12 337 5 0 0 1 harmonic1 - -, f 5;
#X obj 122 293 random 1e+008;
#X obj 122 315 / 1e+008;
#X floatatom 122 337 5 0 0 1 harmonic2 - -, f 5;
#X obj 232 293 random 1e+008;
#X obj 232 315 / 1e+008;
#X floatatom 232 337 5 0 0 1 harmonic3 - -, f 5;
#X obj 342 293 random 1e+008;
#X obj 342 315 / 1e+008;
#X floatatom 342 337 5 0 0 1 harmonic4 - -, f 5;
#X obj 452 293 random 1e+008;
#X obj 452 315 / 1e+008;
#X floatatom 452 337 5 0 0 1 harmonic5 - -, f 5;
#X obj 562 293 random 1e+008;
#X obj 562 315 / 1e+008;
#X floatatom 562 337 5 0 0 1 harmonic6 - -, f 5;
#X obj 12 356 random 1e+008;
#X obj 12 378 / 1e+008;
#X floatatom 12 400 5 0 0 1 harmonic7 - -, f 5;
#X obj 122 356 random 1e+008;
#X obj 122 378 / 1e+008;
#X floatatom 122 400 5 0 0 1 harmonic8 - -, f 5;
#X obj 232 356 random 1e+008;
#X obj 232 378 / 1e+008;
#X floatatom 232 400 5 0 0 1 harmonic9 - -, f 5;
#X obj 342 356 random 1e+008;
#X obj 342 378 / 1e+008;
#X floatatom 342 400 5 0 0 1 harmonic10 - -, f 5;
#X obj 452 356 random 1e+008;
#X obj 452 378 / 1e+008;
#X floatatom 452 400 5 0 0 1 harmonic11 - -, f 5;
#X obj 562 356 random 1e+008;
#X obj 562 378 / 1e+008;
#X floatatom 562 400 5 0 0 1 harmonic12 - -, f 5;
#X obj 12 424 pack f1 f2 f3 f4 f5 f6 f7 f8 f9 f10 f11 f12;
#X text 679 334 DUH;
#X msg 12 36 \; osc01 sinesum 2048 1 \; osc01 normalize 1;
#X msg 12 87 \; osc01 sinesum 2048 1 0 0.333333 0 0.2 0 0.142857 0
0.111111 0 0.090909 0 0.076923 \; osc01 normalize 1;
#X msg 12 147 \; osc01 sinesum 2048 1 0.5 0.33 0.25 0.2 0.166667 0.142857
0.125 0.111111 0.1 0.090909 0.0833333 0.076923 \; osc01 normalize 1
;
#X msg 12 210 \; osc01 sinesum 2048 1 0 -0.111111 0 0.04 0 -0.0204082
0 0.0123457 0 -0.00826446 0 \; osc01 normalize 1;
#X msg 12 446 \; osc01 sinesum 2048 \$1 \$2 \$3 \$4 \$5 \$6 \$7 \$8
\$9 \$10 \$11 \$12 \; osc01 normalize 1;
#X connect 0 0 48 0;
#X connect 1 0 49 0;
#X connect 2 0 50 0;
#X connect 3 0 51 0;
#X connect 4 0 9 0;
#X connect 9 0 10 0;
#X connect 9 0 13 0;
#X connect 9 0 16 0;
#X connect 9 0 19 0;
#X connect 9 0 22 0;
#X connect 9 0 25 0;
#X connect 9 0 28 0;
#X connect 9 0 31 0;
#X connect 9 0 34 0;
#X connect 9 0 37 0;
#X connect 9 0 40 0;
#X connect 9 0 43 0;
#X connect 10 0 11 0;
#X connect 11 0 12 0;
#X connect 12 0 46 0;
#X connect 13 0 14 0;
#X connect 14 0 15 0;
#X connect 15 0 46 1;
#X connect 16 0 17 0;
#X connect 17 0 18 0;
#X connect 18 0 46 2;
#X connect 19 0 20 0;
#X connect 20 0 21 0;
#X connect 21 0 46 3;
#X connect 22 0 23 0;
#X connect 23 0 24 0;
#X connect 24 0 46 4;
#X connect 25 0 26 0;
#X connect 26 0 27 0;
#X connect 27 0 46 5;
#X connect 28 0 29 0;
#X connect 29 0 30 0;
#X connect 30 0 46 6;
#X connect 31 0 32 0;
#X connect 32 0 33 0;
#X connect 33 0 46 7;
#X connect 34 0 35 0;
#X connect 35 0 36 0;
#X connect 36 0 46 8;
#X connect 37 0 38 0;
#X connect 38 0 39 0;
#X connect 39 0 46 9;
#X connect 40 0 41 0;
#X connect 41 0 42 0;
#X connect 42 0 46 10;
#X connect 43 0 44 0;
#X connect 44 0 45 0;
#X connect 45 0 46 11;
#X connect 46 0 52 0;
#X restore 491 171 pd osc1wavs;
#X text 508 47 SINE;
#X text 508 64 SQUARE;
#X text 508 79 SAWTOOTH;
#X text 507 94 TRIANGLE;
#X text 508 109 RANDOM;
#X obj 589 173 *~;
#X obj 610 135 hsl 128 15 0.1 1 0 0 empty empty trim -2 -8 0 10 -262144
-1 -1 12700 1;
#X obj 818 51 vradio 15 1 0 5 empty empty empty 0 -8 0 10 -262144 -1
-1 4;
#X floatatom 818 131 5 0 0 0 - - -, f 5;
#X obj 818 150 sel 0 1 2 3 4;
#X text 835 48 SINE;
#X text 835 65 SQUARE;
#X text 835 80 SAWTOOTH;
#X text 834 95 TRIANGLE;
#X text 835 110 RANDOM;
#N canvas 0 50 450 250 (subpatch) 0;
#X array osc02 2051 float 4;
#X coords 0 1 2050 -1 118 80 1;
#X restore 695 48 graph;
#N canvas 1199 372 733 507 osc2wavs 0;
#X obj 12 14 inlet;
#X obj 56 14 inlet;
#X obj 100 14 inlet;
#X obj 144 14 inlet;
#X obj 188 14 inlet;
#X text 160 48 SINE;
#X text 443 102 SQUARE;
#X text 404 165 SAWTOOTH;
#X text 390 227 TRIANGLE;
#X obj 12 271 t b;
#X obj 12 293 random 1e+008;
#X obj 12 315 / 1e+008;
#X floatatom 12 337 5 0 0 1 harmonic1 - -, f 5;
#X obj 122 293 random 1e+008;
#X obj 122 315 / 1e+008;
#X floatatom 122 337 5 0 0 1 harmonic2 - -, f 5;
#X obj 232 293 random 1e+008;
#X obj 232 315 / 1e+008;
#X floatatom 232 337 5 0 0 1 harmonic3 - -, f 5;
#X obj 342 293 random 1e+008;
#X obj 342 315 / 1e+008;
#X floatatom 342 337 5 0 0 1 harmonic4 - -, f 5;
#X obj 452 293 random 1e+008;
#X obj 452 315 / 1e+008;
#X floatatom 452 337 5 0 0 1 harmonic5 - -, f 5;
#X obj 562 293 random 1e+008;
#X obj 562 315 / 1e+008;
#X floatatom 562 337 5 0 0 1 harmonic6 - -, f 5;
#X obj 12 356 random 1e+008;
#X obj 12 378 / 1e+008;
#X floatatom 12 400 5 0 0 1 harmonic7 - -, f 5;
#X obj 122 356 random 1e+008;
#X obj 122 378 / 1e+008;
#X floatatom 122 400 5 0 0 1 harmonic8 - -, f 5;
#X obj 232 356 random 1e+008;
#X obj 232 378 / 1e+008;
#X floatatom 232 400 5 0 0 1 harmonic9 - -, f 5;
#X obj 342 356 random 1e+008;
#X obj 342 378 / 1e+008;
#X floatatom 342 400 5 0 0 1 harmonic10 - -, f 5;
#X obj 452 356 random 1e+008;
#X obj 452 378 / 1e+008;
#X floatatom 452 400 5 0 0 1 harmonic11 - -, f 5;
#X obj 562 356 random 1e+008;
#X obj 562 378 / 1e+008;
#X floatatom 562 400 5 0 0 1 harmonic12 - -, f 5;
#X obj 12 424 pack f1 f2 f3 f4 f5 f6 f7 f8 f9 f10 f11 f12;
#X text 679 334 DUH;
#X msg 12 36 \; osc02 sinesum 2048 1 \; osc02 normalize 1;
#X msg 12 87 \; osc02 sinesum 2048 1 0 0.333333 0 0.2 0 0.142857 0
0.111111 0 0.090909 0 0.076923 \; osc02 normalize 1;
#X msg 12 147 \; osc02 sinesum 2048 1 0.5 0.33 0.25 0.2 0.166667 0.142857
0.125 0.111111 0.1 0.090909 0.0833333 0.076923 \; osc02 normalize 1
;
#X msg 12 210 \; osc02 sinesum 2048 1 0 -0.111111 0 0.04 0 -0.0204082
0 0.0123457 0 -0.00826446 0 \; osc02 normalize 1;
#X msg 12 446 \; osc02 sinesum 2048 \$1 \$2 \$3 \$4 \$5 \$6 \$7 \$8
\$9 \$10 \$11 \$12 \; osc02 normalize 1;
#X connect 0 0 48 0;
#X connect 1 0 49 0;
#X connect 2 0 50 0;
#X connect 3 0 51 0;
#X connect 4 0 9 0;
#X connect 9 0 10 0;
#X connect 9 0 13 0;
#X connect 9 0 16 0;
#X connect 9 0 19 0;
#X connect 9 0 22 0;
#X connect 9 0 25 0;
#X connect 9 0 28 0;
#X connect 9 0 31 0;
#X connect 9 0 34 0;
#X connect 9 0 37 0;
#X connect 9 0 40 0;
#X connect 9 0 43 0;
#X connect 10 0 11 0;
#X connect 11 0 12 0;
#X connect 12 0 46 0;
#X connect 13 0 14 0;
#X connect 14 0 15 0;
#X connect 15 0 46 1;
#X connect 16 0 17 0;
#X connect 17 0 18 0;
#X connect 18 0 46 2;
#X connect 19 0 20 0;
#X connect 20 0 21 0;
#X connect 21 0 46 3;
#X connect 22 0 23 0;
#X connect 23 0 24 0;
#X connect 24 0 46 4;
#X connect 25 0 26 0;
#X connect 26 0 27 0;
#X connect 27 0 46 5;
#X connect 28 0 29 0;
#X connect 29 0 30 0;
#X connect 30 0 46 6;
#X connect 31 0 32 0;
#X connect 32 0 33 0;
#X connect 33 0 46 7;
#X connect 34 0 35 0;
#X connect 35 0 36 0;
#X connect 36 0 46 8;
#X connect 37 0 38 0;
#X connect 38 0 39 0;
#X connect 39 0 46 9;
#X connect 40 0 41 0;
#X connect 41 0 42 0;
#X connect 42 0 46 10;
#X connect 43 0 44 0;
#X connect 44 0 45 0;
#X connect 45 0 46 11;
#X connect 46 0 52 0;
#X restore 818 172 pd osc2wavs;
#X obj 262 189 *~;
#X obj 262 91 tabosc4~ osc01;
#X obj 589 92 tabosc4~ osc02;
#X obj 21 18 bng 50 250 50 0 empty empty empty 17 7 0 10 -4034 -1 -1
;
#X obj 21 77 t b b b, f 10;
#X obj 21 183 metro;
#X msg 223 154 stop;
#X msg 54 105 60000;
#X obj 54 133 /;
#X floatatom 130 81 5 0 0 0 - - -, f 5;
#X obj 54 155 i;
#X obj 21 211 i;
#X text 170 79 set bpm;
#X text 28 44 start;
#X obj 57 211 + 1;
#X obj 130 25 loadbang;
#X text 124 132 ms == 60000/bpm;
#X floatatom 128 151 5 0 0 0 - - -, f 5;
#X obj 223 18 bng 50 250 50 0 empty empty empty 17 7 0 10 -258113 -1
-1;
#X text 232 45 stop;
#X msg 64 184 0;
#X obj 21 234 % 8;
#X obj 21 260 sel 0 1 2 3 4 5 6 7;
#X msg 21 311 40;
#X obj 21 285 bng 15 250 50 0 empty empty empty 17 7 0 10 -262144 -1
-1;
#X obj 41 285 bng 15 250 50 0 empty empty empty 17 7 0 10 -262144 -1
-1;
#X obj 61 285 bng 15 250 50 0 empty empty empty 17 7 0 10 -262144 -1
-1;
#X obj 81 285 bng 15 250 50 0 empty empty empty 17 7 0 10 -262144 -1
-1;
#X obj 101 285 bng 15 250 50 0 empty empty empty 17 7 0 10 -262144
-1 -1;
#X obj 121 285 bng 15 250 50 0 empty empty empty 17 7 0 10 -262144
-1 -1;
#X obj 141 285 bng 15 250 50 0 empty empty empty 17 7 0 10 -262144
-1 -1;
#X obj 161 285 bng 15 250 50 0 empty empty empty 17 7 0 10 -262144
-1 -1;
#X msg 52 311 43;
#X msg 82 311 45;
#X msg 112 311 43;
#X msg 142 311 50;
#X msg 172 311 48;
#X msg 202 311 50;
#X msg 232 311 52;
#X obj 21 349 mtof;
#X floatatom 59 351 5 0 0 0 - - -, f 5;
#X obj 261 359 dac~;
#X obj 262 316 vcf~;
#X obj 273 269 sig~;
#X floatatom 323 275 5 0 0 0 - - -, f 5;
#X text 365 275 q;
#X obj 327 241 hsl 128 15 0 3000 0 0 empty empty empty -2 -8 0 10 -262144
-1 -1 5600 1;
#X floatatom 426 256 5 0 0 0 - - -, f 5;
#X msg 72 18 \; pd dsp 1;
#X msg 274 19 \; pd dsp 0;
#X msg 130 53 666;
#X connect 1 0 24 0;
#X connect 2 0 1 1;
#X connect 3 0 4 0;
#X connect 4 0 5 0;
#X connect 5 0 6 0;
#X connect 5 1 6 1;
#X connect 5 2 6 2;
#X connect 5 3 6 3;
#X connect 5 4 6 4;
#X connect 12 0 24 1;
#X connect 13 0 12 1;
#X connect 14 0 15 0;
#X connect 15 0 16 0;
#X connect 16 0 23 0;
#X connect 16 1 23 1;
#X connect 16 2 23 2;
#X connect 16 3 23 3;
#X connect 16 4 23 4;
#X connect 24 0 66 0;
#X connect 25 0 1 0;
#X connect 26 0 12 0;
#X connect 27 0 28 0;
#X connect 27 0 72 0;
#X connect 28 0 29 0;
#X connect 28 1 31 0;
#X connect 28 2 33 0;
#X connect 29 0 35 0;
#X connect 30 0 29 0;
#X connect 31 0 32 0;
#X connect 32 0 34 0;
#X connect 33 0 32 1;
#X connect 34 0 29 1;
#X connect 34 0 41 0;
#X connect 35 0 38 0;
#X connect 35 0 45 0;
#X connect 38 0 35 1;
#X connect 39 0 74 0;
#X connect 42 0 30 0;
#X connect 42 0 73 0;
#X connect 42 0 44 0;
#X connect 44 0 35 1;
#X connect 45 0 46 0;
#X connect 46 0 48 0;
#X connect 46 1 49 0;
#X connect 46 2 50 0;
#X connect 46 3 51 0;
#X connect 46 4 52 0;
#X connect 46 5 53 0;
#X connect 46 6 54 0;
#X connect 46 7 55 0;
#X connect 47 0 63 0;
#X connect 48 0 47 0;
#X connect 49 0 56 0;
#X connect 50 0 57 0;
#X connect 51 0 58 0;
#X connect 52 0 59 0;
#X connect 53 0 60 0;
#X connect 54 0 61 0;
#X connect 55 0 62 0;
#X connect 56 0 63 0;
#X connect 57 0 63 0;
#X connect 58 0 63 0;
#X connect 59 0 63 0;
#X connect 60 0 63 0;
#X connect 61 0 63 0;
#X connect 62 0 63 0;
#X connect 63 0 64 0;
#X connect 63 0 25 0;
#X connect 63 0 26 0;
#X connect 66 0 65 0;
#X connect 66 0 65 1;
#X connect 67 0 66 1;
#X connect 68 0 66 2;
#X connect 70 0 67 0;
#X connect 70 0 71 0;
#X connect 74 0 33 0;
