#N canvas 536 218 770 492 10;
#X obj 68 -120 t b b b;
#X obj 68 -8 metro;
#X msg 95 -92 60000;
#X obj 95 -64 /;
#X floatatom 141 -92 5 0 0 0 - - -;
#X obj 95 -36 i;
#X floatatom 128 -64 5 0 0 0 - - -;
#X floatatom 128 -36 5 0 0 0 - - -;
#X obj 128 -8 bng 15 250 50 0 empty empty empty 17 7 0 10 -262144 -1
-1;
#X msg 22 -8 stop;
#X obj 22 -45 bng 30 75 50 0 empty empty STAHP! -5 -7 0 13 -258113
-1 -1;
#X obj 68 -251 bng 30 75 10 0 empty empty START -3 -7 0 13 -4034 -1
-1;
#X obj 68 20 counter;
#X obj 68 48 % 12;
#X obj 68 76 sel 0 1 2 3 4 5 6 7 8 9 10 11;
#X obj 68 159 noteout 1;
#X obj 68 131 makenote 128 60;
#X msg 68 103 64;
#X msg 96 103 66;
#X msg 122 103 71;
#X msg 150 103 73;
#X msg 179 103 74;
#X msg 237 103 64;
#X msg 294 103 71;
#X msg 352 103 74;
#X msg 208 103 66;
#X msg 323 103 66;
#X msg 380 103 73;
#X msg 265 103 73;
#X floatatom 107 48 5 0 0 0 - - -;
#X obj 415 -120 t b b b;
#X obj 415 -8 metro;
#X msg 442 -92 60000;
#X obj 442 -64 /;
#X floatatom 488 -92 5 0 0 0 - - -;
#X obj 442 -36 i;
#X floatatom 475 -64 5 0 0 0 - - -;
#X floatatom 475 -36 5 0 0 0 - - -;
#X obj 475 -8 bng 15 250 50 0 empty empty empty 17 7 0 10 -262144 -1
-1;
#X obj 415 20 counter;
#X obj 415 48 % 12;
#X obj 415 76 sel 0 1 2 3 4 5 6 7 8 9 10 11;
#X obj 415 131 makenote 128 60;
#X msg 415 103 64;
#X msg 443 103 66;
#X msg 469 103 71;
#X msg 497 103 73;
#X msg 526 103 74;
#X msg 584 103 64;
#X msg 641 103 71;
#X msg 699 103 74;
#X msg 555 103 66;
#X msg 670 103 66;
#X msg 727 103 73;
#X msg 612 103 73;
#X floatatom 454 48 5 0 0 0 - - -;
#X obj 415 159 noteout 2;
#X obj 417 -191 loadbang;
#X msg 417 -164 500;
#X text 62 -173;
#X obj 488 -191 loadbang;
#X msg 488 -163 503;
#X text 147 -289;
#X text 157 -244 THIS PATCH IS SUPPOSED TO BE A RECREATION OF SECTION
3 OF PIANO PHASE. APOLOGIES TO STEVE REICH. THIS CAN BE MORE ELEGANT.
SORRY.;
#X connect 0 0 1 0;
#X connect 0 1 2 0;
#X connect 0 2 4 0;
#X connect 1 0 8 0;
#X connect 1 0 12 0;
#X connect 2 0 3 0;
#X connect 3 0 5 0;
#X connect 3 0 6 0;
#X connect 4 0 3 1;
#X connect 5 0 7 0;
#X connect 5 0 1 1;
#X connect 9 0 1 0;
#X connect 9 0 31 0;
#X connect 10 0 9 0;
#X connect 10 0 12 2;
#X connect 10 0 39 2;
#X connect 11 0 0 0;
#X connect 11 0 30 0;
#X connect 12 0 13 0;
#X connect 13 0 14 0;
#X connect 13 0 29 0;
#X connect 14 0 17 0;
#X connect 14 1 18 0;
#X connect 14 2 19 0;
#X connect 14 3 20 0;
#X connect 14 4 21 0;
#X connect 14 5 25 0;
#X connect 14 6 22 0;
#X connect 14 7 28 0;
#X connect 14 8 23 0;
#X connect 14 9 26 0;
#X connect 14 10 24 0;
#X connect 14 11 27 0;
#X connect 16 0 15 0;
#X connect 16 1 15 1;
#X connect 17 0 16 0;
#X connect 18 0 16 0;
#X connect 19 0 16 0;
#X connect 20 0 16 0;
#X connect 21 0 16 0;
#X connect 22 0 16 0;
#X connect 23 0 16 0;
#X connect 24 0 16 0;
#X connect 25 0 16 0;
#X connect 26 0 16 0;
#X connect 27 0 16 0;
#X connect 28 0 16 0;
#X connect 30 0 31 0;
#X connect 30 1 32 0;
#X connect 30 2 34 0;
#X connect 31 0 38 0;
#X connect 31 0 39 0;
#X connect 32 0 33 0;
#X connect 33 0 35 0;
#X connect 33 0 36 0;
#X connect 34 0 33 1;
#X connect 35 0 37 0;
#X connect 35 0 31 1;
#X connect 39 0 40 0;
#X connect 40 0 41 0;
#X connect 40 0 55 0;
#X connect 41 0 43 0;
#X connect 41 1 44 0;
#X connect 41 2 45 0;
#X connect 41 3 46 0;
#X connect 41 4 47 0;
#X connect 41 5 51 0;
#X connect 41 6 48 0;
#X connect 41 7 54 0;
#X connect 41 8 49 0;
#X connect 41 9 52 0;
#X connect 41 10 50 0;
#X connect 41 11 53 0;
#X connect 42 0 56 0;
#X connect 42 1 56 1;
#X connect 43 0 42 0;
#X connect 44 0 42 0;
#X connect 45 0 42 0;
#X connect 46 0 42 0;
#X connect 47 0 42 0;
#X connect 48 0 42 0;
#X connect 49 0 42 0;
#X connect 50 0 42 0;
#X connect 51 0 42 0;
#X connect 52 0 42 0;
#X connect 53 0 42 0;
#X connect 54 0 42 0;
#X connect 57 0 58 0;
#X connect 58 0 4 0;
#X connect 60 0 61 0;
#X connect 61 0 34 0;
