#N canvas 656 127 600 305 10;
#X obj 58 38 vradio 20 1 0 10 \$0-modeselecta initmodestate MODE 0 -8 0 10 #fcfcfc #000000 #000000 0;
#X text 82 38 major;
#X text 82 60 minor;
#X text 83 81 dorian;
#X text 84 102 lydian;
#X text 84 142 locrian;
#X text 84 161 phrygian;
#X text 83 122 mixolydian;
#X text 84 182 harmonic major;
#X text 84 223 melodic minor;
#N canvas 206 33 795 464 modes 0;
#X obj 48 395 spigot;
#X obj 81 370 tgl 15 0 empty empty empty 17 7 0 10 #fcfcfc #000000 #000000 0 1;
#X obj 98 395 spigot;
#X obj 131 370 tgl 15 0 empty empty empty 17 7 0 10 #fcfcfc #000000 #000000 0 1;
#X obj 148 395 spigot;
#X obj 181 370 tgl 15 0 empty empty empty 17 7 0 10 #fcfcfc #000000 #000000 0 1;
#X obj 198 395 spigot;
#X obj 231 370 tgl 15 0 empty empty empty 17 7 0 10 #fcfcfc #000000 #000000 0 1;
#X obj 81 343 == 0;
#X obj 131 343 == 1;
#X obj 181 343 == 2;
#X obj 231 343 == 3;
#X obj 248 395 spigot;
#X obj 281 370 tgl 15 0 empty empty empty 17 7 0 10 #fcfcfc #000000 #000000 0 1;
#X obj 298 395 spigot;
#X obj 331 370 tgl 15 0 empty empty empty 17 7 0 10 #fcfcfc #000000 #000000 0 1;
#X obj 348 395 spigot;
#X obj 381 370 tgl 15 0 empty empty empty 17 7 0 10 #fcfcfc #000000 #000000 0 1;
#X obj 398 395 spigot;
#X obj 431 370 tgl 15 0 empty empty empty 17 7 0 10 #fcfcfc #000000 #000000 0 1;
#X obj 281 343 == 4;
#X obj 331 343 == 5;
#X obj 381 343 == 6;
#X obj 431 343 == 7;
#X obj 448 395 spigot;
#X obj 481 370 tgl 15 0 empty empty empty 17 7 0 10 #fcfcfc #000000 #000000 0 1;
#X obj 498 395 spigot;
#X obj 531 370 tgl 15 0 empty empty empty 17 7 0 10 #fcfcfc #000000 #000000 0 1;
#X obj 481 343 == 8;
#X obj 531 343 == 9;
#X floatatom 281 318 5 0 0 0 - \$0-modeselecta - 0;
#N canvas 305 166 964 456 major 0;
#X obj 31 16 inlet;
#X floatatom 31 42 5 0 0 0 - - - 0;
#X obj 31 93 bng 15 250 50 0 empty empty empty 17 7 0 10 #fcfcfc #000000 #000000;
#X obj 51 93 bng 15 250 50 0 empty empty empty 17 7 0 10 #fcfcfc #000000 #000000;
#X obj 71 93 bng 15 250 50 0 empty empty empty 17 7 0 10 #fcfcfc #000000 #000000;
#X obj 91 93 bng 15 250 50 0 empty empty empty 17 7 0 10 #fcfcfc #000000 #000000;
#X obj 111 93 bng 15 250 50 0 empty empty empty 17 7 0 10 #fcfcfc #000000 #000000;
#X obj 131 93 bng 15 250 50 0 empty empty empty 17 7 0 10 #fcfcfc #000000 #000000;
#X obj 151 93 bng 15 250 50 0 empty empty empty 17 7 0 10 #fcfcfc #000000 #000000;
#X obj 31 67 sel 0 1 2 3 4 5 6;
#X msg 31 117 36 40 43;
#X msg 98 117 38 41 45;
#X msg 165 117 40 43 47;
#X msg 231 117 41 45 48;
#X msg 297 117 43 47 50;
#X msg 359 117 45 48 52;
#X msg 426 117 47 50 53;
#X obj 31 167 unpack f f f;
#X floatatom 31 193 5 0 0 0 - - - 0;
#X floatatom 71 193 5 0 0 0 - - - 0;
#X floatatom 111 193 5 0 0 0 - - - 0;
#X obj 31 218 +;
#X obj 71 218 +;
#X obj 111 218 +;
#X floatatom 145 218 5 0 0 1 transpose \$0-transpose - 0;
#X floatatom 31 244 5 0 0 0 - - - 0;
#X floatatom 71 244 5 0 0 0 - - - 0;
#X floatatom 111 244 5 0 0 0 - - - 0;
#X floatatom 353 219 5 0 0 1 duration \$0-duration - 0;
#X obj 353 244 - 10;
#X obj 31 277 makenote;
#X floatatom 255 218 5 0 0 1 velocity \$0-velocity - 0;
#X obj 31 303 noteout 1;
#X symbolatom 146 192 10 0 0 0 - - \$0-chordname 0;
#X msg 146 156 symbol C-(I);
#X msg 236 156 symbol D-min-(ii);
#X msg 356 156 symbol E-min-(iii);
#X msg 486 156 symbol F-(IV);
#X msg 586 156 symbol G-(V);
#X msg 676 156 symbol A-min-(vi);
#X msg 796 156 symbol B-dim-(viiº);
#X obj 796 203 print;
#X connect 0 0 1 0;
#X connect 1 0 9 0;
#X connect 2 0 10 0;
#X connect 2 0 34 0;
#X connect 3 0 11 0;
#X connect 3 0 35 0;
#X connect 4 0 12 0;
#X connect 4 0 36 0;
#X connect 5 0 13 0;
#X connect 5 0 37 0;
#X connect 6 0 14 0;
#X connect 6 0 38 0;
#X connect 7 0 15 0;
#X connect 7 0 39 0;
#X connect 8 0 16 0;
#X connect 8 0 40 0;
#X connect 9 0 2 0;
#X connect 9 1 3 0;
#X connect 9 2 4 0;
#X connect 9 3 5 0;
#X connect 9 4 6 0;
#X connect 9 5 7 0;
#X connect 9 6 8 0;
#X connect 10 0 17 0;
#X connect 11 0 17 0;
#X connect 12 0 17 0;
#X connect 13 0 17 0;
#X connect 14 0 17 0;
#X connect 15 0 17 0;
#X connect 16 0 17 0;
#X connect 17 0 18 0;
#X connect 17 1 19 0;
#X connect 17 2 20 0;
#X connect 18 0 21 0;
#X connect 19 0 22 0;
#X connect 20 0 23 0;
#X connect 21 0 25 0;
#X connect 22 0 26 0;
#X connect 23 0 27 0;
#X connect 24 0 21 1;
#X connect 24 0 22 1;
#X connect 24 0 23 1;
#X connect 25 0 30 0;
#X connect 26 0 30 0;
#X connect 27 0 30 0;
#X connect 28 0 29 0;
#X connect 29 0 30 2;
#X connect 30 0 32 0;
#X connect 30 1 32 1;
#X connect 31 0 30 1;
#X connect 34 0 33 0;
#X connect 34 0 41 0;
#X connect 35 0 33 0;
#X connect 35 0 41 0;
#X connect 36 0 33 0;
#X connect 36 0 41 0;
#X connect 37 0 33 0;
#X connect 37 0 41 0;
#X connect 38 0 33 0;
#X connect 38 0 41 0;
#X connect 39 0 33 0;
#X connect 39 0 41 0;
#X connect 40 0 33 0;
#X connect 40 0 41 0;
#X restore 48 421 pd major;
#N canvas 210 140 916 342 minor 0;
#X obj 31 16 inlet;
#X floatatom 31 42 5 0 0 0 - - - 0;
#X obj 31 93 bng 15 250 50 0 empty empty empty 17 7 0 10 #fcfcfc #000000 #000000;
#X obj 51 93 bng 15 250 50 0 empty empty empty 17 7 0 10 #fcfcfc #000000 #000000;
#X obj 71 93 bng 15 250 50 0 empty empty empty 17 7 0 10 #fcfcfc #000000 #000000;
#X obj 91 93 bng 15 250 50 0 empty empty empty 17 7 0 10 #fcfcfc #000000 #000000;
#X obj 111 93 bng 15 250 50 0 empty empty empty 17 7 0 10 #fcfcfc #000000 #000000;
#X obj 131 93 bng 15 250 50 0 empty empty empty 17 7 0 10 #fcfcfc #000000 #000000;
#X obj 151 93 bng 15 250 50 0 empty empty empty 17 7 0 10 #fcfcfc #000000 #000000;
#X obj 31 67 sel 0 1 2 3 4 5 6;
#X obj 31 167 unpack f f f;
#X floatatom 31 193 5 0 0 0 - - - 0;
#X floatatom 71 193 5 0 0 0 - - - 0;
#X floatatom 111 193 5 0 0 0 - - - 0;
#X obj 31 218 +;
#X obj 71 218 +;
#X obj 111 218 +;
#X floatatom 145 218 5 0 0 1 transpose \$0-transpose - 0;
#X floatatom 31 244 5 0 0 0 - - - 0;
#X floatatom 71 244 5 0 0 0 - - - 0;
#X floatatom 111 244 5 0 0 0 - - - 0;
#X floatatom 353 219 10 0 0 1 duration \$0-duration - 0;
#X obj 353 244 - 10;
#X obj 31 277 makenote;
#X floatatom 255 218 5 0 0 1 velocity \$0-velocity - 0;
#X obj 31 303 noteout 1;
#X symbolatom 146 192 10 0 0 0 - - \$0-chordname 0;
#X msg 31 117 36 39 43;
#X msg 98 117 38 41 44;
#X msg 165 117 39 43 46;
#X msg 231 117 41 44 48;
#X msg 297 117 43 46 50;
#X msg 359 117 44 48 51;
#X msg 426 117 46 50 53;
#X msg 146 156 symbol C-min-(i);
#X msg 256 156 symbol D-dim-(iiº);
#X msg 376 156 symbol Eb-(III);
#X msg 476 156 symbol F-min-(iv);
#X msg 590 156 symbol G-min-(v);
#X msg 700 156 symbol Ab-(VI);
#X msg 798 156 symbol Bb-(VII);
#X obj 798 218 print;
#X connect 0 0 1 0;
#X connect 1 0 9 0;
#X connect 2 0 27 0;
#X connect 2 0 34 0;
#X connect 3 0 28 0;
#X connect 3 0 35 0;
#X connect 4 0 29 0;
#X connect 4 0 36 0;
#X connect 5 0 30 0;
#X connect 5 0 37 0;
#X connect 6 0 31 0;
#X connect 6 0 38 0;
#X connect 7 0 32 0;
#X connect 7 0 39 0;
#X connect 8 0 33 0;
#X connect 8 0 40 0;
#X connect 9 0 2 0;
#X connect 9 1 3 0;
#X connect 9 2 4 0;
#X connect 9 3 5 0;
#X connect 9 4 6 0;
#X connect 9 5 7 0;
#X connect 9 6 8 0;
#X connect 10 0 11 0;
#X connect 10 1 12 0;
#X connect 10 2 13 0;
#X connect 11 0 14 0;
#X connect 12 0 15 0;
#X connect 13 0 16 0;
#X connect 14 0 18 0;
#X connect 15 0 19 0;
#X connect 16 0 20 0;
#X connect 17 0 14 1;
#X connect 17 0 15 1;
#X connect 17 0 16 1;
#X connect 18 0 23 0;
#X connect 19 0 23 0;
#X connect 20 0 23 0;
#X connect 21 0 22 0;
#X connect 22 0 23 2;
#X connect 23 0 25 0;
#X connect 23 1 25 1;
#X connect 24 0 23 1;
#X connect 27 0 10 0;
#X connect 28 0 10 0;
#X connect 29 0 10 0;
#X connect 30 0 10 0;
#X connect 31 0 10 0;
#X connect 32 0 10 0;
#X connect 33 0 10 0;
#X connect 34 0 26 0;
#X connect 34 0 41 0;
#X connect 35 0 26 0;
#X connect 35 0 41 0;
#X connect 36 0 26 0;
#X connect 36 0 41 0;
#X connect 37 0 26 0;
#X connect 37 0 41 0;
#X connect 38 0 26 0;
#X connect 38 0 41 0;
#X connect 39 0 26 0;
#X connect 39 0 41 0;
#X connect 40 0 26 0;
#X connect 40 0 41 0;
#X restore 108 421 pd minor;
#N canvas 0 50 920 362 dorian 0;
#X obj 31 16 inlet;
#X floatatom 31 42 5 0 0 0 - - - 0;
#X obj 31 93 bng 15 250 50 0 empty empty empty 17 7 0 10 #fcfcfc #000000 #000000;
#X obj 51 93 bng 15 250 50 0 empty empty empty 17 7 0 10 #fcfcfc #000000 #000000;
#X obj 71 93 bng 15 250 50 0 empty empty empty 17 7 0 10 #fcfcfc #000000 #000000;
#X obj 91 93 bng 15 250 50 0 empty empty empty 17 7 0 10 #fcfcfc #000000 #000000;
#X obj 111 93 bng 15 250 50 0 empty empty empty 17 7 0 10 #fcfcfc #000000 #000000;
#X obj 131 93 bng 15 250 50 0 empty empty empty 17 7 0 10 #fcfcfc #000000 #000000;
#X obj 151 93 bng 15 250 50 0 empty empty empty 17 7 0 10 #fcfcfc #000000 #000000;
#X obj 31 67 sel 0 1 2 3 4 5 6;
#X obj 31 167 unpack f f f;
#X floatatom 31 193 5 0 0 0 - - - 0;
#X floatatom 71 193 5 0 0 0 - - - 0;
#X floatatom 111 193 5 0 0 0 - - - 0;
#X obj 31 218 +;
#X obj 71 218 +;
#X obj 111 218 +;
#X floatatom 145 218 5 0 0 1 transpose \$0-transpose - 0;
#X floatatom 31 244 5 0 0 0 - - - 0;
#X floatatom 71 244 5 0 0 0 - - - 0;
#X floatatom 111 244 5 0 0 0 - - - 0;
#X floatatom 353 219 10 0 0 1 duration \$0-duration - 0;
#X obj 353 244 - 10;
#X obj 31 277 makenote;
#X floatatom 255 218 5 0 0 1 velocity \$0-velocity - 0;
#X obj 31 303 noteout 1;
#X symbolatom 146 192 10 0 0 0 - - \$0-chordname 0;
#X msg 31 117 36 39 43;
#X msg 426 117 46 50 53;
#X msg 146 156 symbol C-min-(i);
#X msg 376 156 symbol Eb-(III);
#X msg 567 156 symbol G-min-(v);
#X msg 798 156 symbol Bb-(VII);
#X msg 98 117 38 41 45;
#X msg 165 117 39 43 46;
#X msg 231 117 41 45 48;
#X msg 297 117 43 46 50;
#X msg 359 117 45 48 51;
#X msg 256 156 symbol D-min-(ii);
#X msg 476 156 symbol F-(IV);
#X msg 680 156 symbol A-dim-(viº);
#X connect 0 0 1 0;
#X connect 1 0 9 0;
#X connect 2 0 27 0;
#X connect 2 0 29 0;
#X connect 3 0 33 0;
#X connect 3 0 38 0;
#X connect 4 0 34 0;
#X connect 4 0 30 0;
#X connect 5 0 35 0;
#X connect 5 0 39 0;
#X connect 6 0 36 0;
#X connect 6 0 31 0;
#X connect 7 0 37 0;
#X connect 7 0 40 0;
#X connect 8 0 28 0;
#X connect 8 0 32 0;
#X connect 9 0 2 0;
#X connect 9 1 3 0;
#X connect 9 2 4 0;
#X connect 9 3 5 0;
#X connect 9 4 6 0;
#X connect 9 5 7 0;
#X connect 9 6 8 0;
#X connect 10 0 11 0;
#X connect 10 1 12 0;
#X connect 10 2 13 0;
#X connect 11 0 14 0;
#X connect 12 0 15 0;
#X connect 13 0 16 0;
#X connect 14 0 18 0;
#X connect 15 0 19 0;
#X connect 16 0 20 0;
#X connect 17 0 14 1;
#X connect 17 0 15 1;
#X connect 17 0 16 1;
#X connect 18 0 23 0;
#X connect 19 0 23 0;
#X connect 20 0 23 0;
#X connect 21 0 22 0;
#X connect 22 0 23 2;
#X connect 23 0 25 0;
#X connect 23 1 25 1;
#X connect 24 0 23 1;
#X connect 27 0 10 0;
#X connect 28 0 10 0;
#X connect 29 0 26 0;
#X connect 30 0 26 0;
#X connect 31 0 26 0;
#X connect 32 0 26 0;
#X connect 33 0 10 0;
#X connect 34 0 10 0;
#X connect 35 0 10 0;
#X connect 36 0 10 0;
#X connect 37 0 10 0;
#X connect 38 0 26 0;
#X connect 39 0 26 0;
#X connect 40 0 26 0;
#X restore 170 421 pd dorian;
#N canvas 0 50 961 347 lydian 0;
#X obj 31 16 inlet;
#X floatatom 31 42 5 0 0 0 - - - 0;
#X obj 31 93 bng 15 250 50 0 empty empty empty 17 7 0 10 #fcfcfc #000000 #000000;
#X obj 51 93 bng 15 250 50 0 empty empty empty 17 7 0 10 #fcfcfc #000000 #000000;
#X obj 71 93 bng 15 250 50 0 empty empty empty 17 7 0 10 #fcfcfc #000000 #000000;
#X obj 91 93 bng 15 250 50 0 empty empty empty 17 7 0 10 #fcfcfc #000000 #000000;
#X obj 111 93 bng 15 250 50 0 empty empty empty 17 7 0 10 #fcfcfc #000000 #000000;
#X obj 131 93 bng 15 250 50 0 empty empty empty 17 7 0 10 #fcfcfc #000000 #000000;
#X obj 151 93 bng 15 250 50 0 empty empty empty 17 7 0 10 #fcfcfc #000000 #000000;
#X obj 31 67 sel 0 1 2 3 4 5 6;
#X obj 31 167 unpack f f f;
#X floatatom 31 193 5 0 0 0 - - - 0;
#X floatatom 71 193 5 0 0 0 - - - 0;
#X floatatom 111 193 5 0 0 0 - - - 0;
#X obj 31 218 +;
#X obj 71 218 +;
#X obj 111 218 +;
#X floatatom 145 218 5 0 0 1 transpose \$0-transpose - 0;
#X floatatom 31 244 5 0 0 0 - - - 0;
#X floatatom 71 244 5 0 0 0 - - - 0;
#X floatatom 111 244 5 0 0 0 - - - 0;
#X floatatom 353 219 10 0 0 1 duration \$0-duration - 0;
#X obj 353 244 - 10;
#X obj 31 277 makenote;
#X floatatom 255 218 5 0 0 1 velocity \$0-velocity - 0;
#X obj 31 303 noteout 1;
#X symbolatom 146 192 10 0 0 0 - - \$0-chordname 0;
#X msg 31 117 36 40 43;
#X msg 98 117 38 42 45;
#X msg 165 117 40 43 47;
#X msg 231 117 42 45 48;
#X msg 297 117 43 47 50;
#X msg 359 117 45 48 52;
#X msg 426 117 47 50 54;
#X msg 146 156 symbol C-(I);
#X msg 256 156 symbol D-(II);
#X msg 356 156 symbol E-min-(iii);
#X msg 488 156 symbol F#-dim-(ivº);
#X msg 617 156 symbol G-(V);
#X msg 710 156 symbol A-min-(vi);
#X msg 830 156 symbol B-min-(vii);
#X connect 0 0 1 0;
#X connect 1 0 9 0;
#X connect 2 0 27 0;
#X connect 2 0 34 0;
#X connect 3 0 28 0;
#X connect 3 0 35 0;
#X connect 4 0 29 0;
#X connect 4 0 36 0;
#X connect 5 0 30 0;
#X connect 5 0 37 0;
#X connect 6 0 31 0;
#X connect 6 0 38 0;
#X connect 7 0 32 0;
#X connect 7 0 39 0;
#X connect 8 0 33 0;
#X connect 8 0 40 0;
#X connect 9 0 2 0;
#X connect 9 1 3 0;
#X connect 9 2 4 0;
#X connect 9 3 5 0;
#X connect 9 4 6 0;
#X connect 9 5 7 0;
#X connect 9 6 8 0;
#X connect 10 0 11 0;
#X connect 10 1 12 0;
#X connect 10 2 13 0;
#X connect 11 0 14 0;
#X connect 12 0 15 0;
#X connect 13 0 16 0;
#X connect 14 0 18 0;
#X connect 15 0 19 0;
#X connect 16 0 20 0;
#X connect 17 0 14 1;
#X connect 17 0 15 1;
#X connect 17 0 16 1;
#X connect 18 0 23 0;
#X connect 19 0 23 0;
#X connect 20 0 23 0;
#X connect 21 0 22 0;
#X connect 22 0 23 2;
#X connect 23 0 25 0;
#X connect 23 1 25 1;
#X connect 24 0 23 1;
#X connect 27 0 10 0;
#X connect 28 0 10 0;
#X connect 29 0 10 0;
#X connect 30 0 10 0;
#X connect 31 0 10 0;
#X connect 32 0 10 0;
#X connect 33 0 10 0;
#X connect 34 0 26 0;
#X connect 35 0 26 0;
#X connect 36 0 26 0;
#X connect 37 0 26 0;
#X connect 38 0 26 0;
#X connect 39 0 26 0;
#X connect 40 0 26 0;
#X restore 238 421 pd lydian;
#N canvas 160 160 948 358 mixolydian 0;
#X obj 31 16 inlet;
#X floatatom 31 42 5 0 0 0 - - - 0;
#X obj 31 93 bng 15 250 50 0 empty empty empty 17 7 0 10 #fcfcfc #000000 #000000;
#X obj 51 93 bng 15 250 50 0 empty empty empty 17 7 0 10 #fcfcfc #000000 #000000;
#X obj 71 93 bng 15 250 50 0 empty empty empty 17 7 0 10 #fcfcfc #000000 #000000;
#X obj 91 93 bng 15 250 50 0 empty empty empty 17 7 0 10 #fcfcfc #000000 #000000;
#X obj 111 93 bng 15 250 50 0 empty empty empty 17 7 0 10 #fcfcfc #000000 #000000;
#X obj 131 93 bng 15 250 50 0 empty empty empty 17 7 0 10 #fcfcfc #000000 #000000;
#X obj 151 93 bng 15 250 50 0 empty empty empty 17 7 0 10 #fcfcfc #000000 #000000;
#X obj 31 67 sel 0 1 2 3 4 5 6;
#X obj 31 167 unpack f f f;
#X floatatom 31 193 5 0 0 0 - - - 0;
#X floatatom 71 193 5 0 0 0 - - - 0;
#X floatatom 111 193 5 0 0 0 - - - 0;
#X obj 31 218 +;
#X obj 71 218 +;
#X obj 111 218 +;
#X floatatom 145 218 5 0 0 1 transpose \$0-transpose - 0;
#X floatatom 31 244 5 0 0 0 - - - 0;
#X floatatom 71 244 5 0 0 0 - - - 0;
#X floatatom 111 244 5 0 0 0 - - - 0;
#X floatatom 353 219 10 0 0 1 duration \$0-duration - 0;
#X obj 31 277 makenote;
#X floatatom 255 218 5 0 0 1 velocity \$0-velocity - 0;
#X symbolatom 146 192 10 0 0 0 - - \$0-chordname 0;
#X msg 359 117 45 48 52;
#X msg 146 156 symbol C-(I);
#X msg 697 156 symbol A-min-(vi);
#X msg 31 117 36 40 43;
#X msg 98 117 38 41 45;
#X msg 165 117 40 43 46;
#X msg 231 117 41 45 48;
#X msg 297 117 43 46 50;
#X msg 426 117 46 50 53;
#X msg 236 156 symbol D-min-(ii);
#X msg 356 156 symbol E-dim-(iiiº);
#X msg 488 156 symbol F-(IV);
#X msg 584 156 symbol G-min-(v);
#X msg 817 156 symbol Bb-(VII);
#X obj 872 254 print;
#X obj 31 303 noteout 2;
#X connect 0 0 1 0;
#X connect 1 0 9 0;
#X connect 2 0 28 0;
#X connect 2 0 26 0;
#X connect 3 0 29 0;
#X connect 3 0 34 0;
#X connect 4 0 30 0;
#X connect 4 0 35 0;
#X connect 5 0 31 0;
#X connect 5 0 36 0;
#X connect 6 0 32 0;
#X connect 6 0 37 0;
#X connect 7 0 25 0;
#X connect 7 0 27 0;
#X connect 8 0 33 0;
#X connect 8 0 38 0;
#X connect 9 0 2 0;
#X connect 9 1 3 0;
#X connect 9 2 4 0;
#X connect 9 3 5 0;
#X connect 9 4 6 0;
#X connect 9 5 7 0;
#X connect 9 6 8 0;
#X connect 10 0 11 0;
#X connect 10 1 12 0;
#X connect 10 2 13 0;
#X connect 11 0 14 0;
#X connect 12 0 15 0;
#X connect 13 0 16 0;
#X connect 14 0 18 0;
#X connect 15 0 19 0;
#X connect 16 0 20 0;
#X connect 17 0 14 1;
#X connect 17 0 15 1;
#X connect 17 0 16 1;
#X connect 18 0 22 0;
#X connect 19 0 22 0;
#X connect 20 0 22 0;
#X connect 21 0 22 2;
#X connect 22 0 40 0;
#X connect 22 1 40 1;
#X connect 23 0 22 1;
#X connect 25 0 10 0;
#X connect 26 0 24 0;
#X connect 26 0 39 0;
#X connect 27 0 24 0;
#X connect 27 0 39 0;
#X connect 28 0 10 0;
#X connect 29 0 10 0;
#X connect 30 0 10 0;
#X connect 31 0 10 0;
#X connect 32 0 10 0;
#X connect 33 0 10 0;
#X connect 34 0 24 0;
#X connect 34 0 39 0;
#X connect 35 0 24 0;
#X connect 35 0 39 0;
#X connect 36 0 24 0;
#X connect 36 0 39 0;
#X connect 37 0 24 0;
#X connect 37 0 39 0;
#X connect 38 0 24 0;
#X connect 38 0 39 0;
#X restore 306 421 pd mixolydian;
#N canvas 0 50 959 361 locrian 0;
#X obj 31 16 inlet;
#X floatatom 31 42 5 0 0 0 - - - 0;
#X obj 31 93 bng 15 250 50 0 empty empty empty 17 7 0 10 #fcfcfc #000000 #000000;
#X obj 51 93 bng 15 250 50 0 empty empty empty 17 7 0 10 #fcfcfc #000000 #000000;
#X obj 71 93 bng 15 250 50 0 empty empty empty 17 7 0 10 #fcfcfc #000000 #000000;
#X obj 91 93 bng 15 250 50 0 empty empty empty 17 7 0 10 #fcfcfc #000000 #000000;
#X obj 111 93 bng 15 250 50 0 empty empty empty 17 7 0 10 #fcfcfc #000000 #000000;
#X obj 131 93 bng 15 250 50 0 empty empty empty 17 7 0 10 #fcfcfc #000000 #000000;
#X obj 151 93 bng 15 250 50 0 empty empty empty 17 7 0 10 #fcfcfc #000000 #000000;
#X obj 31 67 sel 0 1 2 3 4 5 6;
#X obj 31 167 unpack f f f;
#X floatatom 31 193 5 0 0 0 - - - 0;
#X floatatom 71 193 5 0 0 0 - - - 0;
#X floatatom 111 193 5 0 0 0 - - - 0;
#X obj 31 218 +;
#X obj 71 218 +;
#X obj 111 218 +;
#X floatatom 145 218 5 0 0 1 transpose \$0-transpose - 0;
#X floatatom 31 244 5 0 0 0 - - - 0;
#X floatatom 71 244 5 0 0 0 - - - 0;
#X floatatom 111 244 5 0 0 0 - - - 0;
#X floatatom 353 219 10 0 0 1 duration \$0-duration - 0;
#X obj 353 244 - 10;
#X obj 31 277 makenote;
#X floatatom 255 218 5 0 0 1 velocity \$0-velocity - 0;
#X obj 31 303 noteout 1;
#X symbolatom 146 192 10 0 0 0 - - \$0-chordname 0;
#X msg 31 117 36 39 42;
#X msg 98 117 37 41 44;
#X msg 165 117 39 42 46;
#X msg 231 117 41 44 48;
#X msg 297 117 42 46 49;
#X msg 359 117 44 48 51;
#X msg 426 117 46 49 53;
#X msg 146 156 symbol C-dim-(iº);
#X msg 366 156 symbol Eb-min-(iii);
#X msg 498 156 symbol F-min-(iv);
#X msg 706 156 symbol Ab-(VI);
#X msg 614 156 symbol Gb-(V);
#X msg 807 156 symbol Bb-min-(vii);
#X msg 266 156 symbol Db-(II);
#X connect 0 0 1 0;
#X connect 1 0 9 0;
#X connect 2 0 27 0;
#X connect 2 0 34 0;
#X connect 3 0 28 0;
#X connect 3 0 40 0;
#X connect 4 0 29 0;
#X connect 4 0 35 0;
#X connect 5 0 30 0;
#X connect 5 0 36 0;
#X connect 6 0 31 0;
#X connect 6 0 38 0;
#X connect 7 0 32 0;
#X connect 7 0 37 0;
#X connect 8 0 33 0;
#X connect 8 0 39 0;
#X connect 9 0 2 0;
#X connect 9 1 3 0;
#X connect 9 2 4 0;
#X connect 9 3 5 0;
#X connect 9 4 6 0;
#X connect 9 5 7 0;
#X connect 9 6 8 0;
#X connect 10 0 11 0;
#X connect 10 1 12 0;
#X connect 10 2 13 0;
#X connect 11 0 14 0;
#X connect 12 0 15 0;
#X connect 13 0 16 0;
#X connect 14 0 18 0;
#X connect 15 0 19 0;
#X connect 16 0 20 0;
#X connect 17 0 14 1;
#X connect 17 0 15 1;
#X connect 17 0 16 1;
#X connect 18 0 23 0;
#X connect 19 0 23 0;
#X connect 20 0 23 0;
#X connect 21 0 22 0;
#X connect 22 0 23 2;
#X connect 23 0 25 0;
#X connect 23 1 25 1;
#X connect 24 0 23 1;
#X connect 27 0 10 0;
#X connect 28 0 10 0;
#X connect 29 0 10 0;
#X connect 30 0 10 0;
#X connect 31 0 10 0;
#X connect 32 0 10 0;
#X connect 33 0 10 0;
#X connect 34 0 26 0;
#X connect 35 0 26 0;
#X connect 36 0 26 0;
#X connect 37 0 26 0;
#X connect 38 0 26 0;
#X connect 39 0 26 0;
#X connect 40 0 26 0;
#X restore 398 421 pd locrian;
#N canvas 0 50 965 349 phrygian 0;
#X obj 31 16 inlet;
#X floatatom 31 42 5 0 0 0 - - - 0;
#X obj 31 93 bng 15 250 50 0 empty empty empty 17 7 0 10 #fcfcfc #000000 #000000;
#X obj 51 93 bng 15 250 50 0 empty empty empty 17 7 0 10 #fcfcfc #000000 #000000;
#X obj 71 93 bng 15 250 50 0 empty empty empty 17 7 0 10 #fcfcfc #000000 #000000;
#X obj 91 93 bng 15 250 50 0 empty empty empty 17 7 0 10 #fcfcfc #000000 #000000;
#X obj 111 93 bng 15 250 50 0 empty empty empty 17 7 0 10 #fcfcfc #000000 #000000;
#X obj 131 93 bng 15 250 50 0 empty empty empty 17 7 0 10 #fcfcfc #000000 #000000;
#X obj 151 93 bng 15 250 50 0 empty empty empty 17 7 0 10 #fcfcfc #000000 #000000;
#X obj 31 67 sel 0 1 2 3 4 5 6;
#X obj 31 167 unpack f f f;
#X floatatom 31 193 5 0 0 0 - - - 0;
#X floatatom 71 193 5 0 0 0 - - - 0;
#X floatatom 111 193 5 0 0 0 - - - 0;
#X obj 31 218 +;
#X obj 71 218 +;
#X obj 111 218 +;
#X floatatom 145 218 5 0 0 1 transpose \$0-transpose - 0;
#X floatatom 31 244 5 0 0 0 - - - 0;
#X floatatom 71 244 5 0 0 0 - - - 0;
#X floatatom 111 244 5 0 0 0 - - - 0;
#X floatatom 353 219 10 0 0 1 duration \$0-duration - 0;
#X obj 353 244 - 10;
#X obj 31 277 makenote;
#X floatatom 255 218 5 0 0 1 velocity \$0-velocity - 0;
#X obj 31 303 noteout 1;
#X symbolatom 146 192 10 0 0 0 - - \$0-chordname 0;
#X msg 359 117 44 48 51;
#X msg 426 117 46 49 53;
#X msg 266 156 symbol Db (II);
#X msg 468 156 symbol F-min-(iv);
#X msg 706 156 symbol Ab-(VI);
#X msg 807 156 symbol Bb-min-(vii);
#X msg 31 117 36 39 43;
#X msg 98 117 37 41 44;
#X msg 165 117 39 43 46;
#X msg 231 117 41 44 48;
#X msg 297 117 43 46 49;
#X msg 146 156 symbol C-min-(i);
#X msg 366 156 symbol Eb-(III);
#X msg 584 156 symbol G-dim-(vº);
#X connect 0 0 1 0;
#X connect 1 0 9 0;
#X connect 2 0 33 0;
#X connect 2 0 38 0;
#X connect 3 0 34 0;
#X connect 3 0 29 0;
#X connect 4 0 35 0;
#X connect 4 0 39 0;
#X connect 5 0 36 0;
#X connect 5 0 30 0;
#X connect 6 0 37 0;
#X connect 6 0 40 0;
#X connect 7 0 27 0;
#X connect 7 0 31 0;
#X connect 8 0 28 0;
#X connect 8 0 32 0;
#X connect 9 0 2 0;
#X connect 9 1 3 0;
#X connect 9 2 4 0;
#X connect 9 3 5 0;
#X connect 9 4 6 0;
#X connect 9 5 7 0;
#X connect 9 6 8 0;
#X connect 10 0 11 0;
#X connect 10 1 12 0;
#X connect 10 2 13 0;
#X connect 11 0 14 0;
#X connect 12 0 15 0;
#X connect 13 0 16 0;
#X connect 14 0 18 0;
#X connect 15 0 19 0;
#X connect 16 0 20 0;
#X connect 17 0 14 1;
#X connect 17 0 15 1;
#X connect 17 0 16 1;
#X connect 18 0 23 0;
#X connect 19 0 23 0;
#X connect 20 0 23 0;
#X connect 21 0 22 0;
#X connect 22 0 23 2;
#X connect 23 0 25 0;
#X connect 23 1 25 1;
#X connect 24 0 23 1;
#X connect 27 0 10 0;
#X connect 28 0 10 0;
#X connect 29 0 26 0;
#X connect 30 0 26 0;
#X connect 31 0 26 0;
#X connect 32 0 26 0;
#X connect 33 0 10 0;
#X connect 34 0 10 0;
#X connect 35 0 10 0;
#X connect 36 0 10 0;
#X connect 37 0 10 0;
#X connect 38 0 26 0;
#X connect 39 0 26 0;
#X connect 40 0 26 0;
#X restore 472 421 pd phrygian;
#N canvas 0 50 969 342 harmmaj 0;
#X obj 31 16 inlet;
#X floatatom 31 42 5 0 0 0 - - - 0;
#X obj 31 93 bng 15 250 50 0 empty empty empty 17 7 0 10 #fcfcfc #000000 #000000;
#X obj 51 93 bng 15 250 50 0 empty empty empty 17 7 0 10 #fcfcfc #000000 #000000;
#X obj 71 93 bng 15 250 50 0 empty empty empty 17 7 0 10 #fcfcfc #000000 #000000;
#X obj 91 93 bng 15 250 50 0 empty empty empty 17 7 0 10 #fcfcfc #000000 #000000;
#X obj 111 93 bng 15 250 50 0 empty empty empty 17 7 0 10 #fcfcfc #000000 #000000;
#X obj 131 93 bng 15 250 50 0 empty empty empty 17 7 0 10 #fcfcfc #000000 #000000;
#X obj 151 93 bng 15 250 50 0 empty empty empty 17 7 0 10 #fcfcfc #000000 #000000;
#X obj 31 67 sel 0 1 2 3 4 5 6;
#X obj 31 167 unpack f f f;
#X floatatom 31 193 5 0 0 0 - - - 0;
#X floatatom 71 193 5 0 0 0 - - - 0;
#X floatatom 111 193 5 0 0 0 - - - 0;
#X obj 31 218 +;
#X obj 71 218 +;
#X obj 111 218 +;
#X floatatom 145 218 5 0 0 1 transpose \$0-transpose - 0;
#X floatatom 31 244 5 0 0 0 - - - 0;
#X floatatom 71 244 5 0 0 0 - - - 0;
#X floatatom 111 244 5 0 0 0 - - - 0;
#X floatatom 353 219 10 0 0 1 duration \$0-duration - 0;
#X obj 353 244 - 10;
#X obj 31 277 makenote;
#X floatatom 255 218 5 0 0 1 velocity \$0-velocity - 0;
#X obj 31 303 noteout 1;
#X symbolatom 146 192 10 0 0 0 - - \$0-chordname 0;
#X msg 486 156 symbol F-min-(iv);
#X msg 31 117 36 40 43;
#X msg 98 117 38 41 44;
#X msg 165 117 40 43 47;
#X msg 231 117 41 44 48;
#X msg 297 117 43 47 50;
#X msg 359 117 44 48 52;
#X msg 426 117 47 50 53;
#X msg 146 156 symbol C-(I);
#X msg 236 156 symbol D-dim-(iiº);
#X msg 359 156 symbol E-min-(iii);
#X msg 602 156 symbol G-(V);
#X msg 690 156 symbol G#-aug-(VI+);
#X msg 825 156 symbol B-dim-(viiº);
#X connect 0 0 1 0;
#X connect 1 0 9 0;
#X connect 2 0 28 0;
#X connect 2 0 35 0;
#X connect 3 0 29 0;
#X connect 3 0 36 0;
#X connect 4 0 30 0;
#X connect 4 0 37 0;
#X connect 5 0 31 0;
#X connect 5 0 27 0;
#X connect 6 0 32 0;
#X connect 6 0 38 0;
#X connect 7 0 33 0;
#X connect 7 0 39 0;
#X connect 8 0 34 0;
#X connect 8 0 40 0;
#X connect 9 0 2 0;
#X connect 9 1 3 0;
#X connect 9 2 4 0;
#X connect 9 3 5 0;
#X connect 9 4 6 0;
#X connect 9 5 7 0;
#X connect 9 6 8 0;
#X connect 10 0 11 0;
#X connect 10 1 12 0;
#X connect 10 2 13 0;
#X connect 11 0 14 0;
#X connect 12 0 15 0;
#X connect 13 0 16 0;
#X connect 14 0 18 0;
#X connect 15 0 19 0;
#X connect 16 0 20 0;
#X connect 17 0 14 1;
#X connect 17 0 15 1;
#X connect 17 0 16 1;
#X connect 18 0 23 0;
#X connect 19 0 23 0;
#X connect 20 0 23 0;
#X connect 21 0 22 0;
#X connect 22 0 23 2;
#X connect 23 0 25 0;
#X connect 23 1 25 1;
#X connect 24 0 23 1;
#X connect 27 0 26 0;
#X connect 28 0 10 0;
#X connect 29 0 10 0;
#X connect 30 0 10 0;
#X connect 31 0 10 0;
#X connect 32 0 10 0;
#X connect 33 0 10 0;
#X connect 34 0 10 0;
#X connect 35 0 26 0;
#X connect 36 0 26 0;
#X connect 37 0 26 0;
#X connect 38 0 26 0;
#X connect 39 0 26 0;
#X connect 40 0 26 0;
#X restore 552 421 pd harmmaj;
#N canvas 0 50 982 491 harmmin 0;
#X obj 31 16 inlet;
#X floatatom 31 42 5 0 0 0 - - - 0;
#X obj 31 93 bng 15 250 50 0 empty empty empty 17 7 0 10 #fcfcfc #000000 #000000;
#X obj 51 93 bng 15 250 50 0 empty empty empty 17 7 0 10 #fcfcfc #000000 #000000;
#X obj 71 93 bng 15 250 50 0 empty empty empty 17 7 0 10 #fcfcfc #000000 #000000;
#X obj 91 93 bng 15 250 50 0 empty empty empty 17 7 0 10 #fcfcfc #000000 #000000;
#X obj 111 93 bng 15 250 50 0 empty empty empty 17 7 0 10 #fcfcfc #000000 #000000;
#X obj 131 93 bng 15 250 50 0 empty empty empty 17 7 0 10 #fcfcfc #000000 #000000;
#X obj 151 93 bng 15 250 50 0 empty empty empty 17 7 0 10 #fcfcfc #000000 #000000;
#X obj 31 67 sel 0 1 2 3 4 5 6;
#X obj 31 167 unpack f f f;
#X floatatom 31 193 5 0 0 0 - - - 0;
#X floatatom 71 193 5 0 0 0 - - - 0;
#X floatatom 111 193 5 0 0 0 - - - 0;
#X obj 31 218 +;
#X obj 71 218 +;
#X obj 111 218 +;
#X floatatom 145 218 5 0 0 1 transpose \$0-transpose - 0;
#X floatatom 31 244 5 0 0 0 - - - 0;
#X floatatom 71 244 5 0 0 0 - - - 0;
#X floatatom 111 244 5 0 0 0 - - - 0;
#X floatatom 353 219 10 0 0 1 duration \$0-duration - 0;
#X obj 353 244 - 10;
#X obj 31 277 makenote;
#X floatatom 255 218 5 0 0 1 velocity \$0-velocity - 0;
#X obj 31 303 noteout 1;
#X symbolatom 146 192 10 0 0 0 - - \$0-chordname 0;
#X msg 513 156 symbol F-min-(iv);
#X msg 98 117 38 41 44;
#X msg 426 117 47 50 53;
#X msg 256 156 symbol D-dim-(iiº);
#X msg 629 156 symbol G-(V);
#X msg 816 156 symbol B-dim-(viiº);
#X msg 31 117 36 39 43;
#X msg 165 117 39 43 47;
#X msg 231 117 41 44 48;
#X msg 297 116 43 47 50;
#X msg 359 117 44 48 51;
#X msg 146 156 symbol C-min-(i);
#X msg 379 156 symbol D#-aug-(III+);
#X msg 717 156 symbol G#-(VI);
#X connect 0 0 1 0;
#X connect 1 0 9 0;
#X connect 2 0 33 0;
#X connect 2 0 38 0;
#X connect 3 0 28 0;
#X connect 3 0 30 0;
#X connect 4 0 34 0;
#X connect 4 0 39 0;
#X connect 5 0 35 0;
#X connect 5 0 27 0;
#X connect 6 0 36 0;
#X connect 6 0 31 0;
#X connect 7 0 37 0;
#X connect 7 0 40 0;
#X connect 8 0 29 0;
#X connect 8 0 32 0;
#X connect 9 0 2 0;
#X connect 9 1 3 0;
#X connect 9 2 4 0;
#X connect 9 3 5 0;
#X connect 9 4 6 0;
#X connect 9 5 7 0;
#X connect 9 6 8 0;
#X connect 10 0 11 0;
#X connect 10 1 12 0;
#X connect 10 2 13 0;
#X connect 11 0 14 0;
#X connect 12 0 15 0;
#X connect 13 0 16 0;
#X connect 14 0 18 0;
#X connect 15 0 19 0;
#X connect 16 0 20 0;
#X connect 17 0 14 1;
#X connect 17 0 15 1;
#X connect 17 0 16 1;
#X connect 18 0 23 0;
#X connect 19 0 23 0;
#X connect 20 0 23 0;
#X connect 21 0 22 0;
#X connect 22 0 23 2;
#X connect 23 0 25 0;
#X connect 23 1 25 1;
#X connect 24 0 23 1;
#X connect 27 0 26 0;
#X connect 28 0 10 0;
#X connect 29 0 10 0;
#X connect 30 0 26 0;
#X connect 31 0 26 0;
#X connect 32 0 26 0;
#X connect 33 0 10 0;
#X connect 34 0 10 0;
#X connect 35 0 10 0;
#X connect 36 0 10 0;
#X connect 37 0 10 0;
#X connect 38 0 26 0;
#X connect 39 0 26 0;
#X connect 40 0 26 0;
#X restore 626 421 pd harmmin;
#N canvas 0 50 973 360 melmin 0;
#X obj 31 16 inlet;
#X floatatom 31 42 5 0 0 0 - - - 0;
#X obj 31 93 bng 15 250 50 0 empty empty empty 17 7 0 10 #fcfcfc #000000 #000000;
#X obj 51 93 bng 15 250 50 0 empty empty empty 17 7 0 10 #fcfcfc #000000 #000000;
#X obj 71 93 bng 15 250 50 0 empty empty empty 17 7 0 10 #fcfcfc #000000 #000000;
#X obj 91 93 bng 15 250 50 0 empty empty empty 17 7 0 10 #fcfcfc #000000 #000000;
#X obj 111 93 bng 15 250 50 0 empty empty empty 17 7 0 10 #fcfcfc #000000 #000000;
#X obj 131 93 bng 15 250 50 0 empty empty empty 17 7 0 10 #fcfcfc #000000 #000000;
#X obj 151 93 bng 15 250 50 0 empty empty empty 17 7 0 10 #fcfcfc #000000 #000000;
#X obj 31 67 sel 0 1 2 3 4 5 6;
#X obj 31 167 unpack f f f;
#X floatatom 31 193 5 0 0 0 - - - 0;
#X floatatom 71 193 5 0 0 0 - - - 0;
#X floatatom 111 193 5 0 0 0 - - - 0;
#X obj 31 218 +;
#X obj 71 218 +;
#X obj 111 218 +;
#X floatatom 145 218 5 0 0 1 transpose \$0-transpose - 0;
#X floatatom 31 244 5 0 0 0 - - - 0;
#X floatatom 71 244 5 0 0 0 - - - 0;
#X floatatom 111 244 5 0 0 0 - - - 0;
#X floatatom 353 219 10 0 0 1 duration \$0-duration - 0;
#X obj 353 244 - 10;
#X obj 31 277 makenote;
#X floatatom 255 218 5 0 0 1 velocity \$0-velocity - 0;
#X obj 31 303 noteout 1;
#X symbolatom 146 192 10 0 0 0 - - \$0-chordname 0;
#X msg 426 117 47 50 53;
#X msg 605 156 symbol G-(V);
#X msg 822 156 symbol B-dim-(viiº);
#X msg 31 117 36 39 43;
#X msg 165 117 39 43 47;
#X msg 297 116 43 47 50;
#X msg 146 156 symbol C-min-(i);
#X msg 379 156 symbol D#-aug-(III+);
#X msg 98 117 38 41 45;
#X msg 231 117 41 45 48;
#X msg 359 117 45 48 51;
#X msg 256 156 symbol D-min (ii);
#X msg 513 156 symbol F-(IV);
#X msg 693 156 symbol A-dim-(viº);
#X connect 0 0 1 0;
#X connect 1 0 9 0;
#X connect 2 0 30 0;
#X connect 2 0 33 0;
#X connect 3 0 35 0;
#X connect 3 0 38 0;
#X connect 4 0 31 0;
#X connect 4 0 34 0;
#X connect 5 0 36 0;
#X connect 5 0 39 0;
#X connect 6 0 32 0;
#X connect 6 0 28 0;
#X connect 7 0 37 0;
#X connect 7 0 40 0;
#X connect 8 0 27 0;
#X connect 8 0 29 0;
#X connect 9 0 2 0;
#X connect 9 1 3 0;
#X connect 9 2 4 0;
#X connect 9 3 5 0;
#X connect 9 4 6 0;
#X connect 9 5 7 0;
#X connect 9 6 8 0;
#X connect 10 0 11 0;
#X connect 10 1 12 0;
#X connect 10 2 13 0;
#X connect 11 0 14 0;
#X connect 12 0 15 0;
#X connect 13 0 16 0;
#X connect 14 0 18 0;
#X connect 15 0 19 0;
#X connect 16 0 20 0;
#X connect 17 0 14 1;
#X connect 17 0 15 1;
#X connect 17 0 16 1;
#X connect 18 0 23 0;
#X connect 19 0 23 0;
#X connect 20 0 23 0;
#X connect 21 0 22 0;
#X connect 22 0 23 2;
#X connect 23 0 25 0;
#X connect 23 1 25 1;
#X connect 24 0 23 1;
#X connect 27 0 10 0;
#X connect 28 0 26 0;
#X connect 29 0 26 0;
#X connect 30 0 10 0;
#X connect 31 0 10 0;
#X connect 32 0 10 0;
#X connect 33 0 26 0;
#X connect 34 0 26 0;
#X connect 35 0 10 0;
#X connect 36 0 10 0;
#X connect 37 0 10 0;
#X connect 38 0 26 0;
#X connect 39 0 26 0;
#X connect 40 0 26 0;
#X restore 700 421 pd melmin;
#X msg 92 291 seed \$1;
#X floatatom 186 264 10 0 0 0 - - \$0-seedvalue 0;
#X obj 48 135 metro;
#X obj 48 110 tgl 15 0 empty \$0-start empty 17 7 0 10 #fcfcfc #000000 #000000 0 1;
#X floatatom 93 43 5 0 0 0 - \$0-bpm - 0;
#X floatatom 93 120 5 0 0 0 - - \$0-duration 0;
#X obj 186 211 bng 15 250 50 0 empty \$0-reseed empty 17 7 0 10 #fcfcfc #000000 #000000;
#X obj 92 265 f;
#X obj 186 238 random 100000;
#X obj 48 317 random 7;
#X obj 92 212 counter 1 8;
#X obj 92 238 sel 1;
#X obj 123 187 bng 15 250 50 0 empty empty empty 17 7 0 10 #fcfcfc #000000 #000000;
#X obj 123 161 sel 0 1;
#X floatatom 135 238 5 0 0 0 - - \$0-step 0;
#X floatatom 110 317 5 0 0 0 - - - 0;
#X obj 77 161 bng 15 250 50 0 \$0-bang2 empty empty 17 7 0 10 #fcfcfc #000000 #000000;
#X obj 93 68 expr 60000/$f1;
#X obj 218 135 metro;
#X obj 93 94 * 4;
#X obj 218 161 bng 15 250 50 0 \$0-bang1 empty empty 17 7 0 10 #fcfcfc #000000 #000000;
#X floatatom 265 120 5 0 0 0 - - - 0;
#X obj 373 75 loadbang;
#X msg 373 105 \; preloadbpm 120 \; preloadvelocity 127 \; initmodestate 0 \;;
#X obj 347 228 t b;
#X obj 347 254 delay;
#X msg 347 280 END;
#X obj 347 305 print;
#X connect 0 0 31 0;
#X connect 1 0 0 1;
#X connect 2 0 32 0;
#X connect 3 0 2 1;
#X connect 4 0 33 0;
#X connect 5 0 4 1;
#X connect 6 0 34 0;
#X connect 7 0 6 1;
#X connect 8 0 1 0;
#X connect 9 0 3 0;
#X connect 10 0 5 0;
#X connect 11 0 7 0;
#X connect 12 0 35 0;
#X connect 13 0 12 1;
#X connect 14 0 36 0;
#X connect 15 0 14 1;
#X connect 16 0 37 0;
#X connect 17 0 16 1;
#X connect 18 0 38 0;
#X connect 19 0 18 1;
#X connect 20 0 13 0;
#X connect 21 0 15 0;
#X connect 22 0 17 0;
#X connect 23 0 19 0;
#X connect 24 0 39 0;
#X connect 25 0 24 1;
#X connect 26 0 40 0;
#X connect 27 0 26 1;
#X connect 28 0 25 0;
#X connect 29 0 27 0;
#X connect 30 0 8 0;
#X connect 30 0 9 0;
#X connect 30 0 10 0;
#X connect 30 0 11 0;
#X connect 30 0 20 0;
#X connect 30 0 21 0;
#X connect 30 0 22 0;
#X connect 30 0 23 0;
#X connect 30 0 28 0;
#X connect 30 0 29 0;
#X connect 41 0 50 0;
#X connect 43 0 50 0;
#X connect 43 0 51 0;
#X connect 43 0 57 0;
#X connect 44 0 43 0;
#X connect 44 0 54 0;
#X connect 44 0 59 0;
#X connect 45 0 58 0;
#X connect 47 0 49 0;
#X connect 48 0 41 0;
#X connect 49 0 42 0;
#X connect 49 0 48 0;
#X connect 50 0 0 0;
#X connect 50 0 2 0;
#X connect 50 0 4 0;
#X connect 50 0 6 0;
#X connect 50 0 12 0;
#X connect 50 0 14 0;
#X connect 50 0 16 0;
#X connect 50 0 18 0;
#X connect 50 0 24 0;
#X connect 50 0 26 0;
#X connect 50 0 56 0;
#X connect 51 0 52 0;
#X connect 51 0 55 0;
#X connect 51 3 65 0;
#X connect 52 0 48 0;
#X connect 53 0 51 2;
#X connect 54 0 53 0;
#X connect 58 0 60 0;
#X connect 58 0 62 0;
#X connect 59 0 61 0;
#X connect 60 0 46 0;
#X connect 60 0 43 1;
#X connect 60 0 66 1;
#X connect 62 0 59 1;
#X connect 63 0 64 0;
#X connect 63 0 47 0;
#X connect 65 0 66 0;
#X connect 66 0 67 0;
#X connect 66 0 44 0;
#X connect 67 0 68 0;
#X restore 58 248 pd modes;
#X floatatom 202 63 5 10 300 1 BPM preloadbpm \$0-bpm 0;
#X floatatom 202 88 5 0 127 1 VELOCITY preloadvelocity \$0-velocity 0;
#X obj 275 63 bng 15 250 50 0 empty \$0-bang1 empty 17 7 0 10 #fcfcfc #000000 #000000;
#X obj 305 63 bng 15 250 50 0 empty \$0-bang2 empty 17 7 0 10 #fcfcfc #000000 #000000;
#X obj 202 138 bng 15 250 50 0 \$0-reseed empty RE-SEED 17 7 0 10 #fcfcfc #000000 #000000;
#X floatatom 264 137 10 0 0 0 - \$0-seedvalue - 0;
#X symbolatom 202 163 15 0 0 1 CURRENT_CHORD \$0-chordname - 0;
#X floatatom 202 113 5 0 0 1 STEP_NUMBER \$0-step - 0;
#X floatatom 202 191 5 0 24 1 TRANSPOSE - \$0-transpose 0;
#X text 199 210 0=C :: 1=C#/Db :: 2=D :: 3=D#/Eb :: 4=E :: 5=F :: 6=F#/Gb :: 7=G :: 8=G#/Ab :: 9=A :: 10=A#/Bb :: 11=B :: 12=C (1 oct);
#X text 199 234 13=C#/Db :: 14=D :: 15=D#/Eb :: 16=E :: 17=F :: 18=F#/Gb :: 19=G :: 20=G#/Ab :: 21=A :: 22=A#/Bb :: 23=B :: 24=C (2 oct);
#X text 201 10 TRIAD CHORD PROGRESSION GENERATOR;
#X text 85 202 harmonic minor;
#X obj 203 37 bng 15 250 50 0 \$0-start empty START 17 7 0 10 #fcfcfc #000000 #000000;
